<svg id="Layer_1" enable-background="new 0 0 500 500" viewBox="0 0 500 500" xmlns="http://www.w3.org/2000/svg"><path clip-rule="evenodd" d="m294.692 95.596-20.272 44.87h-48.841l-20.272-44.87zm-78.929 53.768c1.014 2.265 3.263 3.719 5.743 3.719h56.983c2.485 0 4.734-1.454 5.754-3.719l25.982-57.482c1.874-4.147-1.205-8.909-5.759-8.909h-108.937c-4.55 0-7.621 4.764-5.753 8.909zm106.345 29.906c7.815 0 14.175 6.366 14.175 14.18 0 7.825-6.36 14.185-14.175 14.185-7.831 0-14.191-6.36-14.191-14.185 0-7.815 6.36-14.18 14.191-14.18zm-72.108 39.792c17.604 0 34.779-3.011 51.144-8.926 4.916 6.156 12.479 10.123 20.964 10.123 18.976 0 31.838-19.229 24.914-36.663 3.113-2.624 6.135-5.378 9.006-8.238 2.469-2.447 2.49-6.446.032-8.92s-6.457-2.49-8.931-.032c-2.378 2.367-4.873 4.653-7.439 6.848-4.712-4.111-10.863-6.607-17.583-6.607-16.897 0-29.567 15.498-26.299 31.994-49.663 17.512-105.204 5.241-142.938-32.235-2.474-2.458-6.473-2.442-8.931.032-2.453 2.474-2.437 6.473.037 8.92 28.383 28.182 66.039 43.704 106.024 43.704zm-140.163 6.221c2.249-2.667 6.226-3.006 8.893-.768 75.888 63.81 186.664 63.874 262.54 0 2.667-2.243 6.644-1.9 8.893.768 2.238 2.657 1.9 6.65-.762 8.893-80.463 67.802-198.327 67.746-278.797 0-2.667-2.244-3.006-6.237-.767-8.893zm140.163 105.25c7.82 0 14.185 6.36 14.185 14.191 0 7.815-6.366 14.175-14.185 14.175-7.815 0-14.186-6.36-14.186-14.175.001-7.831 6.371-14.191 14.186-14.191zm-172.581-38.359c42.497 32.842 92.97 52.716 146.271 57.638 2.388 12.355 13.273 21.71 26.31 21.71s23.921-9.355 26.315-21.71c53.296-4.922 103.769-24.796 146.261-57.638 2.764-2.142 3.269-6.103 1.138-8.867-2.131-2.748-6.092-3.263-8.851-1.121-40.441 31.258-88.44 50.21-139.138 55.003-3.263-11.121-13.558-19.279-25.725-19.279s-22.462 8.158-25.725 19.279c-50.698-4.793-98.697-23.744-139.138-55.003-2.759-2.142-6.72-1.626-8.851 1.121-2.13 2.764-1.62 6.725 1.133 8.867zm319.314 99.711c-7.82 0-14.185-6.36-14.185-14.18 0-7.825 6.365-14.185 14.185-14.185s14.18 6.36 14.18 14.185c0 7.82-6.36 14.18-14.18 14.18zm-293.471 0c-7.814 0-14.174-6.36-14.174-14.18 0-7.825 6.36-14.185 14.174-14.185 7.831 0 14.191 6.36 14.191 14.185 0 7.82-6.361 14.18-14.191 14.18zm353.782-50.881c-2.061-2.812-6.006-3.419-8.818-1.358-10.042 7.348-20.567 14.185-31.36 20.39-4.916-5.598-12.119-9.14-20.132-9.14-16.571 0-29.199 14.955-26.428 31.28-77.118 29.645-163.492 29.645-240.61 0 2.734-16.461-9.923-31.28-26.433-31.28-8.008 0-15.21 3.542-20.127 9.14-10.794-6.204-21.324-13.042-31.36-20.39-2.807-2.061-6.758-1.454-8.818 1.358-2.061 2.807-1.449 6.763 1.363 8.824 10.536 7.718 21.597 14.894 32.938 21.394-4.188 16.882 8.589 33.287 26.004 33.287 8.765 0 16.547-4.219 21.442-10.729 80.313 30.998 170.28 30.998 250.593 0 4.895 6.51 12.677 10.729 21.436 10.729 17.453 0 30.215-16.48 26.004-33.287 11.352-6.5 22.408-13.676 32.944-21.394 2.811-2.061 3.423-6.017 1.362-8.824z" fill-rule="evenodd"/></svg>