<svg id="Layer_1" viewBox="0 0 512 512" xmlns="http://www.w3.org/2000/svg" data-name="Layer 1"><path d="m342.779 86.538-44.366-44.366v44.366zm-119.693 208.5a47.439 47.439 0 1 0 0 67.09 47.442 47.442 0 0 0 0-67.09zm-33.544-26.414a59.96 59.96 0 1 1 -59.96 59.959 59.961 59.961 0 0 1 59.96-59.959zm67.658 145.53 8.057 19.938h56.863v-19.938zm-41.7 3.34 21.715-.736c3.057 0 4.569-1.359 6.039-3.794l16.839 41.673-16.11-7.033a6.245 6.245 0 0 0 -8.28 2.937l-7.88 16.223zm-6.029-11.658-19.924 10.556-19.923-10.561a6.212 6.212 0 0 0 -3.014-.72l-21.34-.723-11.07-18.333a6.226 6.226 0 0 0 -2.213-2.179l-18.248-11.017-.739-21.64a6.222 6.222 0 0 0 -.714-2.712l-10.556-19.925 10.561-19.922a6.2 6.2 0 0 0 .719-3.014l.724-21.34 18.333-11.069a6.224 6.224 0 0 0 2.179-2.212l11.017-18.249 21.64-.733a6.213 6.213 0 0 0 2.712-.715l19.925-10.556 19.922 10.562a6.211 6.211 0 0 0 3.014.719l21.34.724 11.069 18.333a6.224 6.224 0 0 0 2.212 2.179l18.249 11.017.733 21.64a6.213 6.213 0 0 0 .715 2.712l10.556 19.924-10.56 19.918a6.217 6.217 0 0 0 -.719 3.015l-.724 21.34-18.333 11.069a6.224 6.224 0 0 0 -2.179 2.212l-11.017 18.248-21.64.734a6.212 6.212 0 0 0 -2.712.714zm-73.707 7-16.889 41.8 16.11-7.033a6.245 6.245 0 0 1 8.28 2.937l7.88 16.223 12.324-49.274-22-.746c-2.929-.092-4.371-1.7-5.7-3.9zm-22.064 21.256 8.056-19.938h-55.534a6.261 6.261 0 0 1 -6.261-6.261v-342.114h-16.99v368.313zm61.312-11.261-2.812 11.261h34.559l-2.8-11.2-11.5 6.1a6.242 6.242 0 0 1 -5.893-.039l-11.543-6.119zm-19.182-93.113a6.236 6.236 0 0 1 7.483-9.977l20.938 15.759 31.226-26.563a6.228 6.228 0 0 1 8.07 9.489l-34.783 29.587a6.238 6.238 0 0 1 -8.024.454l-24.91-18.751zm195.8-215.6a96.669 96.669 0 0 0 0 188.323v99.193h-99.491l-.822-2.033 3.48-5.762 19.891-12.026a6.232 6.232 0 0 0 3.015-5.148l.8-23.583 11.406-21.516a6.242 6.242 0 0 0 .039-5.893l-11.448-21.589-.786-23.17a6.249 6.249 0 0 0 -3.022-5.573l-19.9-12.014-12.026-19.892a6.231 6.231 0 0 0 -5.148-3.014l-23.583-.8-21.516-11.406a6.24 6.24 0 0 0 -5.892-.039l-21.589 11.445-23.17.786a6.249 6.249 0 0 0 -5.572 3.021l-12.014 19.9-19.882 12.025a6.234 6.234 0 0 0 -3.015 5.148l-.8 23.583-11.411 21.516a6.242 6.242 0 0 0 -.039 5.893l11.445 21.589.786 23.169a6.249 6.249 0 0 0 3.022 5.573l19.9 12.015 3.4 5.638-.872 2.157h-54.334v-368.314h213.411v59.48a6.261 6.261 0 0 0 6.26 6.261h59.479v15.058zm-54.675 59.106a83.921 83.921 0 0 0 -2.373 64.385 84.182 84.182 0 1 0 2.372-64.388zm94.005 130.135a97.582 97.582 0 0 0 32.145-12.112l4.142 11.141-32.2 11.97-4.089-11zm52.04 49.159-27.121 10.082a2.725 2.725 0 0 0 -1.6 3.477l22.428 60.323a2.726 2.726 0 0 0 3.478 1.6l27.125-10.085a2.726 2.726 0 0 0 1.6-3.478l-22.427-60.322a2.726 2.726 0 0 0 -3.478-1.6zm-.4-12.584a15.2 15.2 0 0 1 15.567 9.829l22.433 60.323a15.2 15.2 0 0 1 -8.934 19.52l-27.128 10.084a15.2 15.2 0 0 1 -19.52-8.935l-22.427-60.322a15.205 15.205 0 0 1 5.364-17.617l-9.782-26.316-4.618 1.717a6.236 6.236 0 0 1 -8.021-3.668l-7.327-19.708a96.072 96.072 0 0 1 -14.055-.342v103.39a6.261 6.261 0 0 1 -6.26 6.261h-23.251v26.2a6.261 6.261 0 0 1 -6.261 6.261h-58.065l7.088 17.541a6.257 6.257 0 0 1 -8.29 8.046l-24.792-10.824-12.659 26.06a6.256 6.256 0 0 1 -11.8-.963l-9.968-39.86h-40.826l-9.969 39.86a6.255 6.255 0 0 1 -11.8.963l-12.659-26.06-24.795 10.826a6.255 6.255 0 0 1 -8.288-8.045l7.088-17.542h-71.935a6.261 6.261 0 0 1 -6.26-6.261v-380.833a6.261 6.261 0 0 1 6.26-6.261h23.251v-26.2a6.261 6.261 0 0 1 6.261-6.26h225.931a6.242 6.242 0 0 1 4.469 1.877l65.643 65.643a6.241 6.241 0 0 1 1.887 4.479v19.255c43.042-4.207 84.705 21.109 99.941 62.554a96.682 96.682 0 0 1 -30.4 109.321l7.418 19.955a6.237 6.237 0 0 1 -3.668 8.021l-4.624 1.719 9.782 26.311zm-23.144 8.03 11.264-4.188-9.594-25.806-11.264 4.188zm-67.824-193.309a57.967 57.967 0 0 0 -19.332 12.953c-28.536 28.913-19.306 78.51 19.334 94.288v-107.241zm62.53 12.43a57.676 57.676 0 0 1 17.224 40.8c.24 36.627-32.635 63.164-67.234 57.54v-114.292a57.986 57.986 0 0 1 50.01 15.952zm29.7 40.747c-.419-63.848-77.644-92.362-120.46-48.978a70.373 70.373 0 1 0 120.46 48.978zm-328.527-116.899a6.261 6.261 0 1 1 0-12.521h83.51a6.261 6.261 0 1 1 0 12.521zm30.83 40.648h74.076a6.261 6.261 0 0 0 0-12.521h-74.076a6.261 6.261 0 1 0 0 12.521zm-30.83 0a6.261 6.261 0 1 1 0-12.521h11.4a6.261 6.261 0 1 1 0 12.521zm0 40.648a6.261 6.261 0 1 1 0-12.521h126.122a6.261 6.261 0 1 1 0 12.521z" fill-rule="evenodd"/></svg>