<svg id="Layer_1" enable-background="new 0 0 512 512" viewBox="0 0 512 512" xmlns="http://www.w3.org/2000/svg"><path d="m498.874 123.19c3.088-1.188 5.126-4.156 5.126-7.466v-23.774c0-3.31-2.038-6.277-5.127-7.466l-10.744-4.136c-1.674-5.709-3.955-11.212-6.815-16.439l4.677-10.529c1.343-3.024.686-6.564-1.654-8.904l-16.812-16.811c-2.339-2.34-5.878-2.998-8.903-1.655l-10.533 4.678c-5.227-2.859-10.729-5.14-16.435-6.813l-4.137-10.748c-1.19-3.089-4.158-5.127-7.467-5.127h-23.774c-3.31 0-6.277 2.038-7.466 5.126l-4.138 10.749c-2.596.761-5.147 1.655-7.651 2.665v-10.54c0-4.418-3.582-8-8-8s-8 3.582-8 8v11.482l-3.315-1.473c-3.025-1.343-6.563-.686-8.904 1.655l-16.812 16.812c-2.34 2.34-2.997 5.879-1.654 8.904l4.678 10.532c-.563 1.029-1.097 2.073-1.615 3.123h-12.889v-51.035c0-4.418-3.582-8-8-8s-8 3.582-8 8v51.035h-40.51v-51.035c0-4.418-3.582-8-8-8s-8 3.582-8 8v51.035h-40.51v-51.035c0-4.418-3.582-8-8-8s-8 3.582-8 8v51.035h-40.511v-51.035c0-4.418-3.582-8-8-8s-8 3.582-8 8v51.035h-59.945c-4.418 0-8 3.582-8 8v59.945h-51.034c-4.418 0-8 3.582-8 8s3.582 8 8 8h51.034v40.51h-51.034c-4.418 0-8 3.582-8 8s3.582 8 8 8h51.034v40.51h-51.034c-4.418 0-8 3.582-8 8s3.582 8 8 8h51.034v40.51h-51.034c-4.418 0-8 3.582-8 8s3.582 8 8 8h51.034v12.889c-1.05.518-2.092 1.052-3.121 1.615l-10.533-4.679c-3.025-1.345-6.563-.686-8.904 1.654l-16.812 16.812c-2.34 2.341-2.997 5.88-1.654 8.904l1.473 3.315h-11.483c-4.418 0-8 3.582-8 8s3.582 8 8 8h10.538c-1.01 2.505-1.903 5.056-2.665 7.652l-10.747 4.137c-3.088 1.189-5.126 4.157-5.126 7.466v23.774c0 3.31 2.038 6.277 5.126 7.466l10.745 4.136c1.674 5.709 3.955 11.212 6.815 16.44l-4.676 10.529c-1.343 3.024-.686 6.563 1.654 8.904l16.812 16.812c2.341 2.34 5.879 2.996 8.904 1.654l10.533-4.679c5.228 2.859 10.729 5.141 16.435 6.813l4.137 10.748c1.188 3.089 4.156 5.127 7.466 5.127h23.775c3.31 0 6.277-2.038 7.466-5.127l4.136-10.744c2.597-.761 5.147-1.655 7.652-2.664v10.536c0 4.418 3.582 8 8 8s8-3.582 8-8v-11.482l3.315 1.473c3.026 1.342 6.563.686 8.904-1.654l16.812-16.812c2.34-2.341 2.997-5.88 1.654-8.904l-4.679-10.533c.563-1.029 1.097-2.072 1.614-3.121h12.89v51.033c0 4.418 3.582 8 8 8s8-3.582 8-8v-51.034h40.51v51.034c0 4.418 3.582 8 8 8s8-3.582 8-8v-51.034h40.51v51.034c0 4.418 3.582 8 8 8s8-3.582 8-8v-51.034h40.511v51.034c0 4.418 3.582 8 8 8s8-3.582 8-8v-51.034h59.945c4.418 0 8-3.582 8-8v-59.945h51.034c4.418 0 8-3.582 8-8s-3.582-8-8-8h-51.034v-40.511h51.034c4.418 0 8-3.582 8-8s-3.582-8-8-8h-51.034v-40.51h51.034c4.418 0 8-3.582 8-8s-3.582-8-8-8h-51.034v-40.51h51.034c4.418 0 8-3.582 8-8s-3.582-8-8-8h-51.034v-12.885c1.051-.519 2.096-1.053 3.126-1.617l10.528 4.676c3.025 1.344 6.563.686 8.904-1.654l16.812-16.812c2.34-2.34 2.997-5.879 1.654-8.904l-1.473-3.315h11.483c4.418 0 8-3.582 8-8s-3.582-8-8-8h-10.54c1.01-2.505 1.904-5.056 2.666-7.652zm-166.885 40.009 16.812 16.811c.023.024.051.041.075.065l-11.842 6.837c-3.826 2.209-5.138 7.102-2.929 10.928 1.482 2.566 4.171 4.001 6.937 4.001 1.356 0 2.732-.346 3.992-1.073l13.279-7.667c3.826-2.209 5.138-7.102 2.929-10.928-.334-.58-.737-1.094-1.182-1.554l8.178-3.632c5.227 2.859 10.728 5.139 16.435 6.813l4.137 10.748c1.188 3.089 4.156 5.126 7.466 5.126h1.724v198.326h-198.325v-1.726c0-3.31-2.038-6.277-5.127-7.466l-10.744-4.135c-1.675-5.711-3.955-11.214-6.814-16.44l4.676-10.528c1.343-3.024.686-6.563-1.654-8.904l-16.812-16.812c-2.341-2.339-5.878-2.996-8.904-1.654l-10.533 4.679c-5.228-2.859-10.728-5.141-16.435-6.814l-4.137-10.748c-1.188-3.088-4.156-5.126-7.466-5.126h-1.725v-198.326h198.325v1.725c0 3.31 2.038 6.277 5.127 7.466l10.744 4.136c1.675 5.71 3.956 11.213 6.815 16.44l-4.677 10.529c-1.342 3.024-.685 6.563 1.655 8.903zm-248.955-80.164h238.184l-3.767 1.45c-3.088 1.189-5.126 4.157-5.126 7.466v6.049h-206.325c-4.418 0-8 3.582-8 8v206.325h-6.05c-3.31 0-6.277 2.037-7.466 5.126l-1.45 3.767zm86.303 340.765c-1.648 6.928-4.385 13.525-8.131 19.609-1.383 2.246-1.569 5.03-.499 7.441l4.105 9.244-9.043 9.043-9.239-4.104c-2.409-1.071-5.195-.886-7.441.5-6.084 3.746-12.683 6.481-19.614 8.131-2.566.61-4.667 2.447-5.614 4.909l-3.629 9.427h-12.789l-3.63-9.43c-.947-2.463-3.048-4.299-5.614-4.91-6.927-1.647-13.523-4.382-19.608-8.129-2.248-1.384-5.032-1.57-7.441-.499l-9.244 4.105-9.043-9.043 4.104-9.239c1.07-2.411.884-5.195-.499-7.441-3.746-6.085-6.482-12.684-8.132-19.614-.61-2.566-2.446-4.667-4.908-5.614l-9.428-3.629v-12.788l9.429-3.63c2.462-.947 4.298-3.048 4.908-5.613 1.649-6.929 4.385-13.526 8.131-19.61 1.383-2.246 1.569-5.03.499-7.441l-4.104-9.243 9.043-9.043 9.244 4.105c2.409 1.07 5.195.885 7.441-.499 6.084-3.746 12.682-6.481 19.608-8.131 2.565-.61 4.666-2.446 5.613-4.908l3.63-9.43h12.789l3.63 9.43c.947 2.462 3.048 4.298 5.613 4.908 6.928 1.648 13.525 4.385 19.609 8.131 2.248 1.384 5.032 1.569 7.441.499l9.244-4.105 9.043 9.043-4.104 9.239c-1.071 2.411-.884 5.196.5 7.442 3.745 6.081 6.48 12.68 8.131 19.613.61 2.566 2.447 4.667 4.909 5.614l9.426 3.628v12.789l-9.43 3.63c-2.46.947-4.296 3.047-4.906 5.613zm259.629 5.166h-238.185l3.768-1.45c3.088-1.188 5.126-4.156 5.126-7.466v-6.05h206.325c4.418 0 8-3.582 8-8v-206.325h6.05c3.31 0 6.277-2.038 7.466-5.126l1.45-3.768zm59.034-318.734-9.43 3.629c-2.462.947-4.298 3.047-4.908 5.614-1.648 6.927-4.384 13.524-8.131 19.609-1.383 2.247-1.569 5.03-.499 7.441l4.105 9.244-9.043 9.043-9.239-4.103c-2.409-1.07-5.194-.885-7.442.5-6.081 3.745-12.681 6.48-19.613 8.13-2.566.611-4.667 2.447-5.614 4.909l-3.629 9.426h-12.788l-3.63-9.43c-.947-2.462-3.048-4.298-5.613-4.909-6.929-1.648-13.526-4.384-19.609-8.129-2.248-1.384-5.032-1.569-7.441-.5l-9.244 4.105-9.043-9.043 4.104-9.239c1.07-2.411.884-5.196-.5-7.442-3.745-6.081-6.48-12.68-8.131-19.613-.61-2.566-2.446-4.667-4.908-5.614l-9.427-3.628v-12.789l9.429-3.63c2.462-.948 4.298-3.048 4.908-5.614 1.649-6.928 4.385-13.526 8.131-19.61 1.383-2.246 1.569-5.03.499-7.441l-4.104-9.243 9.043-9.043 9.244 4.105c2.409 1.069 5.195.884 7.441-.5 6.084-3.746 12.682-6.481 19.607-8.129 2.566-.611 4.667-2.447 5.614-4.909l3.63-9.43h12.789l3.63 9.43c.947 2.462 3.048 4.299 5.614 4.909 6.927 1.648 13.523 4.383 19.608 8.129 2.248 1.384 5.032 1.569 7.441.5l9.244-4.105 9.043 9.043-4.104 9.24c-1.07 2.411-.884 5.195.5 7.442 3.746 6.083 6.481 12.682 8.131 19.613.61 2.566 2.446 4.667 4.908 5.614l9.427 3.629zm-79.838-55.857c-27.273 0-49.462 22.189-49.462 49.462 0 27.274 22.188 49.463 49.462 49.463s49.463-22.189 49.463-49.463c0-27.273-22.189-49.462-49.463-49.462zm0 82.925c-18.451 0-33.462-15.011-33.462-33.463 0-18.451 15.011-33.462 33.462-33.462s33.463 15.011 33.463 33.462c0 18.452-15.012 33.463-33.463 33.463zm-304.324 221.4c-27.273 0-49.463 22.188-49.463 49.462s22.189 49.463 49.463 49.463 49.462-22.189 49.462-49.463-22.189-49.462-49.462-49.462zm0 82.925c-18.451 0-33.463-15.012-33.463-33.463s15.012-33.462 33.463-33.462 33.462 15.011 33.462 33.462-15.011 33.463-33.462 33.463zm152.162-282.876c-40.304 0-73.093 32.79-73.093 73.093 0 18.972 5.968 29.17 11.739 39.034 6.343 10.84 12.9 22.053 14.486 48.507v10.316c0 7.377 4.333 13.745 10.578 16.742v4.414c0 7.483 4.457 13.93 10.848 16.871v4.284c0 10.244 8.334 18.578 18.577 18.578h13.728c10.244 0 18.578-8.334 18.578-18.578v-4.284c6.391-2.94 10.848-9.388 10.848-16.871v-4.414c6.245-2.997 10.578-9.365 10.578-16.742v-10.316c1.586-26.454 8.144-37.667 14.486-48.507 5.771-9.863 11.739-20.062 11.739-39.034.001-40.304-32.788-73.093-73.092-73.093zm-19.24 80.697h-7.127c-3.93 0-7.126-3.197-7.126-7.126 0-3.93 3.196-7.126 7.126-7.126s7.127 3.197 7.127 7.126zm22.48 71.674h-6.48v-55.674h6.48zm27.627 16v2.578c0 1.397-1.181 2.578-2.577 2.578h-56.58c-1.396 0-2.577-1.181-2.577-2.578v-2.578zm-13.155 26.312h-35.423c-1.397 0-2.578-1.181-2.578-2.577v-2.578h40.578v2.578c0 1.396-1.18 2.577-2.577 2.577zm-10.849 21.156h-13.728c-1.397 0-2.577-1.181-2.577-2.578v-2.578h18.883v2.578c0 1.397-1.18 2.578-2.578 2.578zm40.681-111.793c-6.055 10.348-13.462 23.005-16.06 48.325h-12.244v-55.674h7.127c12.752 0 23.126-10.375 23.126-23.126 0-12.752-10.374-23.126-23.126-23.126s-23.127 10.375-23.127 23.126v7.126h-6.48v-7.126c0-12.752-10.375-23.126-23.127-23.126s-23.126 10.375-23.126 23.126 10.374 23.126 23.126 23.126h7.127v55.674h-12.244c-2.598-25.32-10.005-37.978-16.06-48.325-5.544-9.474-9.549-16.319-9.549-30.954 0-31.481 25.611-57.093 57.093-57.093s57.093 25.612 57.093 57.093c0 14.635-4.005 21.48-9.549 30.954zm-28.304-23.349v-7.126c0-3.93 3.197-7.126 7.127-7.126s7.126 3.197 7.126 7.126-3.196 7.126-7.126 7.126zm-27.24-94.701v-15.333c0-4.418 3.582-8 8-8s8 3.582 8 8v15.333c0 4.418-3.582 8-8 8s-8-3.581-8-8zm-55.689 3.876c-2.209-3.827-.897-8.719 2.929-10.928 3.829-2.211 8.719-.897 10.929 2.928l7.666 13.279c2.209 3.827.897 8.719-2.929 10.928-1.26.728-2.636 1.073-3.992 1.073-2.766 0-5.454-1.435-6.937-4.001zm-14.418 49.218c-1.481 2.566-4.171 4.001-6.936 4.001-1.357 0-2.732-.346-3.992-1.073l-13.278-7.666c-3.826-2.209-5.138-7.102-2.928-10.928 2.209-3.827 7.101-5.138 10.928-2.928l13.278 7.666c3.826 2.209 5.138 7.102 2.928 10.928zm120.274-43.939 7.666-13.278c2.208-3.827 7.101-5.139 10.928-2.928 3.826 2.209 5.138 7.102 2.928 10.928l-7.666 13.278c-1.481 2.566-4.171 4.001-6.936 4.001-1.357 0-2.732-.346-3.992-1.073-3.826-2.209-5.138-7.101-2.928-10.928z"/></svg>