<svg version="1.1" xmlns="http://www.w3.org/2000/svg" xmlns:xlink="http://www.w3.org/1999/xlink" width="2500" height="1467" viewBox="0,0,256,150.21875"><g fill="#000000" fill-rule="nonzero" stroke="none" stroke-width="1" stroke-linecap="butt" stroke-linejoin="miter" stroke-miterlimit="10" stroke-dasharray="" stroke-dashoffset="0" font-family="none" font-weight="none" font-size="none" text-anchor="none" style="mix-blend-mode: normal"><g transform="translate(-2.46486,-3.23022) scale(0.71058,0.702)"><path d="M333.39,52.36h28.71v123.47h-28.71zM347.75,40.81c8.89,0 15.85,-6.85 15.85,-15.6c0,-8.74 -7.11,-15.85 -15.85,-15.85c-8.75,0 -15.6,6.96 -15.6,15.85c-0.01,8.75 6.85,15.6 15.6,15.6zM204.6,50.36c-10.25,0 -17.81,4.06 -22.48,12.06l-1.35,2.31l-0.32,-2.66c-0.7,-5.81 -7.08,-9.71 -12.61,-9.71h-16.1l0.25,123.47h28.96v-83.61c0,-12.66 2.79,-17.15 10.65,-17.15c6.07,0 9.15,4.51 9.15,13.4v87.37h28.71v-93.87c-0.01,-20.97 -8.37,-31.61 -24.86,-31.61zM304.3,52.36h14.85l-0.25,114.37c0,30.37 -2.91,51.86 -40.61,51.86c-13.13,0 -22.91,-3.42 -29.06,-10.18c-5.01,-5.5 -7.55,-13.05 -7.55,-22.43v-0.6h28.96v0.35c0,9.65 7.2,10.4 9.4,10.4c9.65,0 10.4,-8.56 10.4,-20.65v-17.67l-1.71,3.53c-3.59,7.41 -10.85,11.49 -20.44,11.49c-10.15,0 -17.19,-3.62 -21.54,-11.06c-3.58,-6.12 -5.32,-14.89 -5.32,-26.8v-48c0,-7 0.98,-16.97 5.62,-24.66c4.78,-7.92 12.52,-11.94 22.98,-11.94c10.42,0 17.39,3.95 20.16,11.42l1.39,3.76l0.35,-3.99c0.46,-5.19 7.03,-9.2 12.37,-9.2zM289.95,90.72c0,-7.74 -1.09,-15.65 -9.15,-15.65c-7.17,0 -10.65,4.71 -10.65,14.4v43.01c0,7.74 1.12,15.65 9.4,15.65c8.74,0 10.4,-6.38 10.4,-18.15zM115.6,4.6l27.47,171.23h-28.77l-1.52,-11.13c-2.59,-19.86 -13.08,-38.21 -30.36,-42.28c-0.6,7.01 -3.96,30.77 -5.41,36.96c0,-0.01 0.01,-0.03 0.01,-0.05c-2.63,12.98 -8.24,27.16 -25.14,32.98c-3.5081,1.20251 -7.19153,1.81416 -10.9,1.81c-9.38,0 -18.68,-3.87 -25.49,-11.01c-7.54,-7.9 -11.76,-17.54 -11.88,-29.88c-0.28,-29.52 24.06,-55.9 55.41,-60.07c0.3,-0.04 0.6,-0.06 0.91,-0.1l14.18,-88.46h21zM55.26,122.12c-12.81,4.54 -24.4,16.11 -24.26,30.86c0.05,5.28 1.62,8.41 4.3,11.23c2.08,2.18 5.17,3.07 7.66,2.21c4.18,-1.44 6.14,-6.44 7.63,-14.81zM104.57,102.32l-9.21,-70.65h-1.02l-8.25,63.31c6.41,1.65 12.63,4.14 18.48,7.34z"></path></g></g></svg>