<svg id="Layer_1" enable-background="new 0 0 66 66" viewBox="0 0 66 66" xmlns="http://www.w3.org/2000/svg"><g><path d="m64 59.2h-15.7v-2.4h4.7c3 0 5.5-2.1 6.1-4.8h3.9c.6 0 1-.4 1-1v-10.6c0-.6-.4-1-1-1h-3.7c-.1-3.4-2.9-6.1-6.3-6.1h-3.3v-3.7c0-.6-.4-1-1-1h-1.5v-22.8c0-.6-.4-1-1-1h-33.1c-.6 0-1 .4-1 1v9c-1.7.2-3 1.6-3 3.4v4.2c-3.4 2.2-5.6 6-5.6 10.3v26.5h-1.5c-.6 0-1 .4-1 1s.4 1 1 1h2.6 59.4c.6 0 1-.4 1-1s-.4-1-1-1zm-17.7 0h-18.2v-2.4h18.2zm-40.7-23.9h20.6v12.6h-20.6zm14-20.5v-3.3h20.3v17.1h-1.6c-.6 0-1 .4-1 1v3.7h-9.1v-.6c0-4.3-2.2-8.1-5.6-10.3v-4.2c-.1-1.7-1.3-3.1-3-3.4zm42.4 35.2h-2.7v-8.6h2.7zm-4.6-10.4v10.9c0 2.4-1.9 4.3-4.3 4.3h-25v-19.5h24.9c2.4 0 4.4 1.9 4.4 4.3zm-9.6-6.3h-8.6v-2.7h8.6zm-2.5-26.5v21.8h-3.5v-18.1c0-.6-.4-1-1-1h-22.2c-.6 0-1 .4-1 1v4.3h-3.5v-7.9h31.2zm-34.1 11.4c0-.8.6-1.4 1.4-1.4h6.5c.8 0 1.4.6 1.4 1.4v3.1c-1.4-.6-3-.9-4.7-.9s-3.2.3-4.7.9v-3.1zm4.7 4.2c5.7 0 10.3 4.6 10.3 10.3v.6h-20.6v-.6c0-5.7 4.6-10.3 10.3-10.3zm-10.3 36.8v-9.2h20.6v5.9 3.4h-20.6z"/><path d="m42.8 38.6c-3.5 0-6.4 2.9-6.4 6.4s2.9 6.4 6.4 6.4 6.4-2.9 6.4-6.4-2.9-6.4-6.4-6.4zm0 10.9c-2.4 0-4.4-2-4.4-4.4s2-4.4 4.4-4.4 4.4 2 4.4 4.4-2 4.4-4.4 4.4z"/></g></svg>