<svg id="Layer_1" enable-background="new 0 0 512 512" viewBox="0 0 512 512" xmlns="http://www.w3.org/2000/svg"><path d="m113.76 217.26v16.92h133.68v-16.92zm147.69-7v30.93c0 3.88-3.15 7-7 7h-147.69c-3.85 0-7-3.12-7-7v-119.46c0-3.86 3.15-7 7-7h147.69c3.86 0 7 3.15 7 7zm143.15 247.55c-.2-.11-.4-.23-.6-.34l-71.83-41.47c-7.23-4.17-10.77-12.5-9.07-20.44-38.64-30.08-37.7-87.9-29.88-134.82-5.75 10.97-17.21 18.26-30.05 18.26-20.18 0-24.92 8.62-32.09 21.77-2.64 4.79-5.5 10.06-9.33 15.79-14.17 21.2 2.81 34.36 2.81 66.73v56.52c0 25.14-18.99 47.25-43.97 47.25s-43.97-22.11-43.97-47.25v-56.52c0-32.37 17.01-45.52 2.81-66.73-3.8-5.73-6.69-11-9.33-15.79-7.15-13.15-11.89-21.77-32.07-21.77-18.65 0-33.9-15.25-33.9-33.9v-125.66c0-18.65 15.25-33.9 33.9-33.9h37.45v-7.2c0-11.31 8.96-20.64 20.18-21.17 1.22-3.15 3.29-5.98 6.09-8.16 41.05-32.03 97.88-34.61 141.56-6.41 49.35 31.89 66.53 88.75 48.59 143.77-14 43-42.46 141.02-8.42 175.66 6.04-4.2 14.26-4.65 20.72-.65l71.35 41.22c8.48 4.51 14.2 11.23 16.61 20.3 4.54 16.92-5.44 34.21-22.37 38.75-7.82 2.1-16.44 1.22-24.01-3.15zm-2.92-17.8c1.08-5.75 3.17-11.59 6.24-16.84 3.06-5.3 6.94-9.95 11.48-13.83l-62.53-36.09c-2.35-1.36-5.5-.54-6.86 1.84h-.03l-12.67 21.97c-1.36 2.35-.51 5.47 1.87 6.86zm30.67-22.99c-5.05 3.34-9.27 7.8-12.36 13.15v-.03c-3.06 5.33-4.82 11.25-5.19 17.29 13.24 5.47 27.72-6.49 23.87-20.95-.99-3.68-3.15-7.05-6.32-9.46zm-102.87-34.3 5.47-9.5c-27.24-25.71-23.3-76.34-16.7-113.07 4.11-23.05 10.91-49.1 20.38-78.09 15.96-49.07 1.19-99.24-42.86-127.7-37.28-24.07-85.52-22.93-121.63 2.81h20.69c5.64-2.69 11.54-4.85 17.6-6.41 26.45-6.86 54.57-2.41 77.64 12.5 39.94 25.82 52.98 71.06 38.49 115.51-18.13 55.61-47.78 162.34.92 203.95zm-32.4-142.13c4.34-20.18 10.4-42.24 18.2-66.13 12.53-38.47 1.87-77.07-32.77-99.44-18.71-12.1-41.33-16.21-62.96-11.62 3.83 3.83 6.21 9.13 6.21 14.94v7.2h37.42c18.65 0 33.9 15.25 33.9 33.9zm-85.32-155.06v-7.2c0-3.94-3.26-7.2-7.2-7.2h-47.91c-3.94 0-7.2 3.26-7.2 7.2v7.2zm-31.16 172.38c23.67 0 35.63 28.77 18.85 45.52-16.75 16.78-45.52 4.85-45.52-18.85 0-14.74 11.93-26.67 26.67-26.67zm8.96 17.72c-7.97-7.97-21.63-2.3-21.63 8.96 0 11.25 13.66 16.92 21.63 8.96 4.96-4.94 4.96-12.99 0-17.92zm57.89-146.9h-133.69v74.52h133.68v-74.52zm15.73-29.19h-165.15c-10.91 0-19.9 8.96-19.9 19.9v125.66c0 10.91 8.99 19.9 19.9 19.9 36.65 0 37.02 19.87 53.01 43.8 18.94 28.29-.4 43.06-.4 74.49v56.52c0 17.49 12.78 33.25 29.96 33.25s29.99-15.76 29.99-33.25v-56.52c0-31.44-19.36-46.2-.43-74.49 15.99-23.92 16.36-43.8 53.01-43.8 10.94 0 19.9-8.99 19.9-19.9v-125.66c.01-10.94-8.95-19.9-19.89-19.9z"/></svg>