<svg id="Layer_1" viewBox="0 0 512 512" xmlns="http://www.w3.org/2000/svg" data-name="Layer 1"><path d="m262.948 52.723c10.797 2.229 21.554 14.679 32.942 27.859 18.73 21.679 42.979 49.747 83.508 49.747 10.265 0 21.58-1.802 34.107-5.965 3.257-1.082 5.731-3.759 6.555-7.091 5.466-22.12 4.725-42.193-2.203-59.662-6.308-15.904-17.725-29.09-33.018-38.132-18.078-10.689-40.672-15.126-63.618-12.491-23.597 2.709-45.981 12.863-63.031 28.591-2.756 2.542-3.858 6.412-2.855 10.024s3.941 6.361 7.613 7.119zm111.713-16.028c19.724 11.662 29.645 30.733 28.964 54.809-13.95-14.905-29.797-27.87-47.307-38.671-4.703-2.901-10.862-1.439-13.761 3.261-2.899 4.701-1.439 10.861 3.261 13.761 17.517 10.805 33.208 23.983 46.796 39.259-39.654 6.912-60.943-17.709-81.591-41.607-8.817-10.205-17.318-20.044-26.925-26.711 27.544-17.524 64.119-19.735 90.562-4.101zm-26.494 122.809v31.745c0 6.184 2.91 11.691 7.422 15.256l-4.355 66.57c-.36 5.511 3.814 10.271 9.325 10.631.223.015.443.021.663.021 5.225 0 9.623-4.059 9.969-9.347l4.167-63.681h54.433l16.962 259.324c.346 5.289 4.743 9.347 9.969 9.347.219 0 .44-.007.662-.021 5.512-.36 9.687-5.12 9.326-10.631l-17.152-262.214c4.511-3.565 7.421-9.072 7.421-15.255v-31.745c0-10.725-8.726-19.451-19.45-19.451h-69.912c-10.725 0-19.449 8.726-19.449 19.451zm20 .549h68.812v30.646h-68.812zm127.78 325.7h-80.514v-185.092c0-5.523-4.478-10-10-10h-70.655v-48.915c0-3.411-1.739-6.587-4.613-8.425-2.873-1.838-6.484-2.084-9.582-.652l-87.812 40.586c-3.539 1.636-5.805 5.179-5.805 9.077v8.329h-60.655v-48.915c0-3.411-1.739-6.587-4.613-8.425-2.873-1.838-6.484-2.084-9.582-.652l-87.812 40.586c-3.539 1.636-5.805 5.179-5.805 9.077v203.421h-27.491c-5.522 0-10 4.477-10 10s4.478 10 10 10h464.938c5.522 0 10-4.477 10-10s-4.478-10-10-10zm-154.093 0h-41.309v-58.697c0-6.506 5.293-11.798 11.799-11.798h17.711c6.506 0 11.799 5.292 11.799 11.798zm53.579 0h-33.579v-58.697c0-17.534-14.265-31.798-31.799-31.798h-17.711c-17.534 0-31.799 14.265-31.799 31.798v58.697h-202.045v-197.027l67.812-31.342v43.277c0 5.523 4.478 10 10 10h70.655v89.541c0 5.523 4.478 10 10 10s10-4.477 10-10v-111.475l67.812-31.342v43.277c0 5.523 4.478 10 10 10h70.655v175.092zm-202.479-147.806h-80.441c-5.522 0-10 4.477-10 10v45c0 5.523 4.478 10 10 10h80.441c5.522 0 10-4.477 10-10v-45c0-5.523-4.478-10-10-10zm-10 45h-60.441v-25h60.441zm-85.59-343.721c-.024-5.522 4.433-10.02 9.956-10.044l2.654-.012h.045c5.502 0 9.975 4.448 9.999 9.956.024 5.522-4.434 10.02-9.956 10.044l-2.654.012h-.045c-5.502 0-9.975-4.448-9.999-9.956zm37.273 2.022c.386-5.509 5.158-9.661 10.674-9.277 26.963 1.889 60.062 9.937 76.831 55.797 1.896 5.187-.771 10.929-5.957 12.826-1.134.415-2.294.611-3.434.611-4.079 0-7.91-2.514-9.393-6.568-12.008-32.836-32.448-40.824-59.444-42.714-5.51-.386-9.663-5.165-9.277-10.674zm82.151 1.781c3.003-4.634 9.195-5.956 13.83-2.951 18.039 11.694 29.762 28.09 34.846 48.733 1.32 5.363-1.956 10.78-7.319 12.101-.803.198-1.607.292-2.398.292-4.495 0-8.579-3.052-9.702-7.611-3.881-15.759-12.485-27.774-26.305-36.734-4.635-3.004-5.956-9.196-2.951-13.831zm-146.935 193.265c2.735 1.623 5.409 3.208 7.976 4.76 1.591.961 3.382 1.442 5.174 1.442s3.583-.481 5.174-1.442c2.566-1.552 5.239-3.137 7.976-4.76 21.102-12.516 45.019-26.703 56.298-45.696 5.048-8.499 7.501-17.517 7.501-27.572v-65.657c0-4.332-2.79-8.172-6.91-9.51-19.424-6.312-40.36-16.12-65.712-28.286-2.734-1.312-5.918-1.312-8.652 0-25.352 12.166-46.288 21.974-65.713 28.286-4.12 1.338-6.91 5.178-6.91 9.51v65.657c0 10.053 2.453 19.072 7.501 27.572 11.28 18.993 35.197 33.18 56.299 45.696zm-43.8-131.771c17.372-6.194 35.673-14.666 56.949-24.845 21.276 10.18 39.577 18.651 56.948 24.845v58.503c0 6.448-1.492 11.964-4.696 17.36-8.675 14.607-31.204 27.97-49.306 38.707-.991.587-1.974 1.171-2.946 1.749-.973-.579-1.956-1.162-2.946-1.749-18.103-10.737-40.631-24.101-49.306-38.707-3.205-5.397-4.697-10.914-4.697-17.36zm14.332 41.602c-2.762-4.783-1.123-10.899 3.66-13.66 4.787-2.762 10.898-1.122 13.66 3.66l12.917 22.373 39.265-39.265c3.907-3.906 10.237-3.905 14.143 0s3.905 10.237 0 14.142l-48.48 48.48c-1.888 1.887-4.437 2.929-7.07 2.929-.435 0-.87-.028-1.307-.085-3.082-.406-5.8-2.222-7.354-4.915l-19.433-33.659z"/></svg>