<?xml version="1.0" encoding="UTF-8" standalone="no"?>
<!-- Created with Inkscape (http://www.inkscape.org/) -->

<svg
   version="1.1"
   id="svg3459"
   xml:space="preserve"
   width="682.66669"
   height="682.66669"
   viewBox="0 0 682.66669 682.66669"
   xmlns="http://www.w3.org/2000/svg"
   xmlns:svg="http://www.w3.org/2000/svg"><defs
     id="defs3463"><clipPath
       clipPathUnits="userSpaceOnUse"
       id="clipPath3473"><path
         d="M 0,512 H 512 V 0 H 0 Z"
         id="path3471" /></clipPath></defs><g
     id="g3465"
     transform="matrix(1.3333333,0,0,-1.3333333,0,682.66667)"><g
       id="g3467"><g
         id="g3469"
         clip-path="url(#clipPath3473)"><g
           id="g3475"
           transform="translate(496,160)"><path
             d="m 0,0 c 5.52,0 10,-4.48 10,-10 0,-5.52 -4.48,-10 -10,-10 -5.52,0 -10,4.48 -10,10 0,5.52 4.48,10 10,10"
             style="fill:#000000;fill-opacity:1;fill-rule:nonzero;stroke:none"
             id="path3477" /></g><g
           id="g3479"
           transform="translate(396,180)"><path
             d="m 0,0 c 5.52,0 10,-4.48 10,-10 0,-5.52 -4.48,-10 -10,-10 -5.52,0 -10,4.48 -10,10 0,5.52 4.48,10 10,10"
             style="fill:#000000;fill-opacity:1;fill-rule:nonzero;stroke:none"
             id="path3481" /></g><g
           id="g3483"
           transform="translate(216,140)"><path
             d="m 0,0 c 5.52,0 10,-4.48 10,-10 0,-5.52 -4.48,-10 -10,-10 -5.52,0 -10,4.48 -10,10 0,5.52 4.48,10 10,10"
             style="fill:#000000;fill-opacity:1;fill-rule:nonzero;stroke:none"
             id="path3485" /></g><g
           id="g3487"
           transform="translate(10,10)"><path
             d="m 0,0 c 10.39,0 19.56,5.44 25.73,12.32 8.29,9.23 23.25,9.23 31.54,0 C 63.44,5.44 72.61,0 83,0 c 10.39,0 18.56,5.44 24.73,12.32 8.29,9.23 22.25,9.23 30.54,0 C 144.44,5.44 153.61,0 164,0 c 10.39,0 20.56,5.44 26.73,12.32 8.29,9.23 22.25,9.23 30.54,0 C 227.44,5.44 235.61,0 246,0 c 10.39,0 18.56,5.44 24.73,12.32 8.29,9.23 22.25,9.23 30.54,0 C 307.44,5.44 315.61,0 326,0 c 10.39,0 18.56,5.44 24.73,12.32 8.29,9.23 22.25,9.23 30.54,0 C 387.44,5.44 395.61,0 406,0 c 10.39,0 18.56,5.44 24.73,12.32 8.29,9.23 22.25,9.23 30.54,0 C 468.6,4.16 478.66,-1.99 492,0.6"
             style="fill:none;stroke:#000000;stroke-width:20;stroke-linecap:round;stroke-linejoin:round;stroke-miterlimit:10;stroke-dasharray:none;stroke-opacity:1"
             id="path3489" /></g><g
           id="g3491"
           transform="translate(10,462)"><path
             d="M 0,0 V 40 H 123 V 0 H 83"
             style="fill:none;stroke:#000000;stroke-width:20;stroke-linecap:round;stroke-linejoin:round;stroke-miterlimit:10;stroke-dasharray:none;stroke-opacity:1"
             id="path3493" /></g><g
           id="g3495"
           transform="translate(93,370)"><path
             d="m 0,0 h 20 c 11.05,0 20,-8.95 20,-20 v -120 c 0,-11.05 -8.95,-20 -20,-20 H 0"
             style="fill:none;stroke:#000000;stroke-width:20;stroke-linecap:round;stroke-linejoin:round;stroke-miterlimit:10;stroke-dasharray:none;stroke-opacity:1"
             id="path3497" /></g><g
           id="g3499"
           transform="translate(133,350)"><path
             d="m 0,0 h 103 c 0,11.05 8.95,20 20,20 h 20 v -160 h -20 c -11.05,0 -20,8.95 -20,20 H 0"
             style="fill:none;stroke:#000000;stroke-width:20;stroke-linecap:round;stroke-linejoin:round;stroke-miterlimit:10;stroke-dasharray:none;stroke-opacity:1"
             id="path3501" /></g><g
           id="g3503"
           transform="translate(236,270)"><path
             d="M 0,0 V 80"
             style="fill:none;stroke:#000000;stroke-width:20;stroke-linecap:round;stroke-linejoin:round;stroke-miterlimit:10;stroke-dasharray:none;stroke-opacity:1"
             id="path3505" /></g><g
           id="g3507"
           transform="translate(276,290)"><path
             d="m 0,0 h 20 c 77.32,0 140,-62.68 140,-140 v -20"
             style="fill:none;stroke:#000000;stroke-width:20;stroke-linecap:round;stroke-linejoin:round;stroke-miterlimit:10;stroke-dasharray:none;stroke-opacity:1"
             id="path3509" /></g><g
           id="g3511"
           transform="translate(356,190)"><path
             d="M 0,0 V -111.77"
             style="fill:none;stroke:#000000;stroke-width:20;stroke-linecap:round;stroke-linejoin:round;stroke-miterlimit:10;stroke-dasharray:none;stroke-opacity:1"
             id="path3513" /></g><g
           id="g3515"
           transform="translate(396,130)"><path
             d="M 0,0 V -51.77"
             style="fill:none;stroke:#000000;stroke-width:20;stroke-linecap:round;stroke-linejoin:round;stroke-miterlimit:10;stroke-dasharray:none;stroke-opacity:1"
             id="path3517" /></g><g
           id="g3519"
           transform="translate(436,130)"><path
             d="m 0,0 c 22.09,0 40,-17.91 40,-40 0,-3.65 -0.49,-7.18 -1.4,-10.54"
             style="fill:none;stroke:#000000;stroke-width:20;stroke-linecap:round;stroke-linejoin:round;stroke-miterlimit:10;stroke-dasharray:none;stroke-opacity:1"
             id="path3521" /></g><g
           id="g3523"
           transform="translate(273.9502,76.6201)"><path
             d="m 0,0 c 0,0 -0.01,0 -0.01,0.01 -10.81,7.16 -17.94,19.43 -17.94,33.37 0,22.09 17.91,40 40,40 7.29,0 14.12,-1.95 20,-5.35 v 45.35 c 0,22.09 -17.91,40 -40,40"
             style="fill:none;stroke:#000000;stroke-width:20;stroke-linecap:round;stroke-linejoin:round;stroke-miterlimit:10;stroke-dasharray:none;stroke-opacity:1"
             id="path3525" /></g><g
           id="g3527"
           transform="translate(476,270)"><path
             d="m 0,0 h -40 l 23.99,-31.99 C -12.36,-36.85 -6.55,-40 0,-40 c 11.05,0 20,8.95 20,20 C 20,-8.95 11.05,0 0,0 Z"
             style="fill:none;stroke:#000000;stroke-width:20;stroke-linecap:round;stroke-linejoin:round;stroke-miterlimit:10;stroke-dasharray:none;stroke-opacity:1"
             id="path3529" /></g><g
           id="g3531"
           transform="translate(20,296)"><path
             d="m 0,0 c 0,-5.523 -4.478,-10 -10,-10 -5.522,0 -10,4.477 -10,10 0,5.523 4.478,10 10,10 C -4.478,10 0,5.523 0,0"
             style="fill:#000000;fill-opacity:1;fill-rule:nonzero;stroke:none"
             id="path3533" /></g><g
           id="g3535"
           transform="translate(502,71.0601)"><path
             d="m 0,0 c -11.3,-2.11 -20.44,2.08 -27.4,8.4 -1.17,1.07 -2.28,2.19 -3.33,3.36 -8.29,9.24 -22.25,9.24 -30.54,0 C -67.44,4.89 -75.61,-0.55 -86,-0.55 c -7.93,0 -14.56,3.17 -20,7.73 -1.69,1.4 -3.26,2.95 -4.73,4.58 -8.29,9.24 -22.25,9.24 -30.54,0 -1.47,-1.63 -3.04,-3.18 -4.73,-4.58 -5.44,-4.56 -12.07,-7.73 -20,-7.73 -10.39,0 -18.56,5.44 -24.73,12.31 -8.29,9.24 -22.25,9.24 -30.54,0 -2.04,-2.28 -4.3,-4.39 -6.79,-6.19 -5.03,-3.68 -10.99,-6.12 -17.94,-6.12 -10.39,0 -18.56,5.44 -24.73,12.31 -8.29,9.24 -22.25,9.24 -30.54,0 -6.17,-6.87 -16.34,-12.31 -26.73,-12.31 -10.39,0 -19.56,5.44 -25.73,12.31 -8.29,9.24 -22.25,9.24 -30.54,0 -6.17,-6.87 -14.34,-12.31 -24.73,-12.31 -10.39,0 -19.56,5.44 -25.73,12.31 -8.29,9.24 -23.25,9.24 -31.54,0 -6.17,-6.87 -15.34,-12.31 -25.73,-12.31 v 180.49"
             style="fill:none;stroke:#000000;stroke-width:20;stroke-linecap:round;stroke-linejoin:round;stroke-miterlimit:10;stroke-dasharray:none;stroke-opacity:1"
             id="path3537" /></g><g
           id="g3539"
           transform="translate(10,341.0005)"><path
             d="M 0,0 V 121 H 83 V -270.491"
             style="fill:none;stroke:#000000;stroke-width:20;stroke-linecap:round;stroke-linejoin:round;stroke-miterlimit:10;stroke-dasharray:none;stroke-opacity:1"
             id="path3541" /></g></g></g></g></svg>
