<svg id="Layer_1" enable-background="new 0 0 64 64" viewBox="0 0 64 64" xmlns="http://www.w3.org/2000/svg"><path d="m2.8 13.8c-.3 0-.5.2-.5.5s.2.5.5.5h12.8v.4c0 .5.4.9.9.9h11.9c.5 0 .9-.4.9-.9v-.4h6.2v.4c0 .5.4.9.9.9h11.9c.5 0 .9-.4.9-.9v-.4h12.2c.3 0 .5-.2.5-.5s-.2-.5-.5-.5h-12.4v-3.3h12.2c.3 0 .5-.2.5-.5s-.2-.5-.5-.5h-12.2v-.4c0-.5-.4-.9-.9-.9h-11.8c-.5 0-.9.4-.9.9v.4h-6.2v-.4c0-.5-.4-.9-.9-.9h-11.9c-.5 0-.9.4-.9.9v.4h-12.7c-.3 0-.5.2-.5.5s.2.5.5.5h12.8v3.3zm45.2-4.6v.8s0 0 0 0v4.3s0 0 0 0v.8h-11.6v-.8s0 0 0 0v-4.3s0 0 0 0v-.8zm-12.6 1.3v3.3h-6.2v-3.3zm-7.2-1.3v.8s0 0 0 0v4.3s0 0 0 0v.8h-11.6v-.8s0 0 0 0v-4.3s0 0 0 0v-.8z"/><path d="m20.7 19c-.3.4-2.7 3.6-2.7 5.2 0 1.7 1.4 3.1 3.1 3.1s3.1-1.4 3.1-3.1c0-1.5-2.4-4.8-2.7-5.2-.2-.2-.7-.2-.8 0zm.4 7.3c-1.2 0-2.1-.9-2.1-2.1 0-.8 1.2-2.7 2.1-4 .9 1.3 2.1 3.2 2.1 4 0 1.1-1 2.1-2.1 2.1z"/><path d="m32.5 27.3c1.7 0 3.1-1.4 3.1-3.1 0-1.5-2.4-4.8-2.7-5.2-.2-.2-.6-.2-.8 0-.3.4-2.7 3.6-2.7 5.2 0 1.7 1.4 3.1 3.1 3.1zm0-7.1c.9 1.3 2.1 3.2 2.1 4 0 1.1-1 2.1-2.1 2.1-1.2 0-2.1-.9-2.1-2.1 0-.8 1.2-2.7 2.1-4z"/><path d="m26.9 38c1.8 0 3.2-1.4 3.2-3.1 0-1.5-2.5-4.8-2.8-5.2-.2-.2-.6-.2-.8 0-.3.4-2.8 3.6-2.8 5.2 0 1.7 1.4 3.1 3.2 3.1zm0-7.1c1 1.3 2.2 3.2 2.2 4 0 1.1-1 2.1-2.2 2.1s-2.2-.9-2.2-2.1c0-.8 1.2-2.7 2.2-4z"/><path d="m38.4 38c1.8 0 3.2-1.4 3.2-3.1 0-1.5-2.5-4.8-2.8-5.2-.2-.2-.6-.2-.8 0-.3.4-2.8 3.6-2.8 5.2 0 1.7 1.5 3.1 3.2 3.1zm0-7.1c1 1.3 2.2 3.2 2.2 4 0 1.1-1 2.1-2.2 2.1s-2.2-.9-2.2-2.1c0-.8 1.2-2.7 2.2-4z"/><path d="m44 27.3c1.7 0 3.1-1.4 3.1-3.1 0-1.5-2.4-4.8-2.7-5.2-.2-.2-.6-.2-.8 0-.3.4-2.7 3.6-2.7 5.2 0 1.7 1.4 3.1 3.1 3.1zm0-7.1c.9 1.3 2.1 3.2 2.1 4 0 1.1-1 2.1-2.1 2.1-1.2 0-2.1-.9-2.1-2.1 0-.8 1.2-2.7 2.1-4z"/><path d="m61.8 54.8h-6.4v-3.1c0-.4 0-.8-.1-1.1.2-.4.5-.9.9-1.2.7.7 1.6 1.1 2.5 1.1.4 0 .8-.1 1.2-.2 2.2-.7 3.9-3 4-5.2 0-.2-.1-.4-.3-.5-2.8-.9-4.9-.9-6.2.1-1 .7-1.6 2-1.7 3.7-.3.3-.5.5-.7.8-.2-.5-.4-1-.7-1.5.8-1.8.7-3.5-.4-4.7-1.5-1.7-4.5-2.1-8-.9-.2.1-.4.3-.3.6.9 3.5 2.3 5.7 4.1 6.4.4.2.8.2 1.3.2.8 0 1.7-.3 2.6-.8.5 1 .8 2 .8 3.2v3.1h-21.8v-3.1c0-.4 0-.8-.1-1.1.2-.4.5-.9.9-1.2.7.7 1.6 1.1 2.5 1.1.4 0 .8-.1 1.2-.2 2.2-.7 3.9-3 4-5.2 0-.2-.1-.4-.3-.5-2.8-.9-4.9-.9-6.2.1-1 .7-1.6 2-1.7 3.7-.3.3-.5.5-.7.8-.2-.5-.4-1-.7-1.5.8-1.8.7-3.5-.4-4.7-1.5-1.7-4.5-2.1-8-.9-.2.1-.4.3-.3.6.9 3.5 2.3 5.7 4.1 6.4.4.2.8.2 1.3.2.8 0 1.7-.3 2.6-.8.5 1 .8 2 .8 3.2v3.1h-21.8v-3.1c0-.4 0-.8-.1-1.1.2-.4.5-.9.9-1.2.7.7 1.6 1.1 2.5 1.1.4 0 .8-.1 1.2-.2 2.2-.7 3.9-3 4-5.2 0-.2-.1-.4-.3-.5-2.8-.9-4.9-.9-6.2.1-1 .7-1.6 2-1.7 3.7-.3.3-.5.5-.7.8-.2-.5-.4-1-.7-1.5.8-1.8.7-3.5-.4-4.7-1.5-1.7-4.5-2.1-8-.9-.2.1-.3.3-.3.6.9 3.5 2.3 5.7 4.1 6.4.4.2.8.2 1.3.2.8 0 1.7-.3 2.6-.8.5 1 .8 2 .8 3.2v3.1h-6.9c-.3 0-.5.2-.5.5s.2.5.5.5h59.9c.3 0 .5-.2.5-.5s-.2-.5-.5-.5zm-3.8-9.4c1-.7 2.7-.7 5 0-.2 1.7-1.6 3.3-3.3 3.9-.6.2-1.8.3-2.8-.6 1-.9 2.4-1.5 3.9-1.8.3-.1.4-.3.4-.6-.1-.3-.3-.4-.6-.4-1.4.3-2.7.9-3.8 1.6.3-1 .6-1.7 1.2-2.1zm-7.9 2.7c-1.4-.5-2.6-2.3-3.4-5.2 3-.8 5.4-.5 6.6.8.7.8.8 1.9.4 3.1-1-1.2-2.4-2.2-4.4-3.3-.2-.1-.5 0-.7.2-.1.2 0 .5.2.7 2 1.1 3.4 2.1 4.3 3.3-1.1.6-2.1.7-3 .4zm-14.9-2.7c1-.7 2.7-.7 5 0-.2 1.7-1.6 3.3-3.3 3.9-.6.2-1.8.3-2.8-.6 1-.9 2.4-1.5 3.9-1.8.3-.1.4-.3.4-.6-.1-.3-.3-.4-.6-.4-1.4.3-2.7.9-3.8 1.6.3-1 .6-1.7 1.2-2.1zm-7.9 2.7c-1.4-.5-2.6-2.3-3.4-5.2 3-.8 5.4-.5 6.6.8.7.8.8 1.9.4 3.1-1-1.2-2.4-2.2-4.4-3.3-.2-.1-.5 0-.7.2-.1.2 0 .5.2.7 2 1.1 3.4 2.1 4.3 3.3-1.1.6-2.1.7-3 .4zm-14.9-2.7c1-.7 2.7-.7 5 0-.2 1.7-1.6 3.3-3.3 3.9-.6.2-1.8.3-2.8-.6 1-.9 2.4-1.5 3.9-1.8.3-.1.4-.3.4-.6-.1-.3-.3-.4-.6-.4-1.4.3-2.7.9-3.8 1.6.3-1 .6-1.7 1.2-2.1zm-7.9 2.7c-1.4-.5-2.6-2.3-3.4-5.2 3-.8 5.4-.5 6.6.8.7.8.8 1.9.4 3.1-1-1.2-2.4-2.2-4.4-3.3-.2-.1-.5 0-.7.2-.1.2 0 .5.2.7 2 1.1 3.4 2.1 4.3 3.3-1.1.6-2.1.7-3 .4z"/><path d="m19 13.8c1 0 1.7-.8 1.7-1.7 0-1-.8-1.7-1.7-1.7-1 0-1.7.8-1.7 1.7s.8 1.7 1.7 1.7zm0-2.5c.4 0 .8.3.8.8 0 .4-.3.8-.8.8-.4 0-.8-.3-.8-.8.1-.5.4-.8.8-.8z"/><path d="m24.3 13.8c1 0 1.7-.8 1.7-1.7 0-1-.8-1.7-1.7-1.7-1 0-1.7.8-1.7 1.7-.1.9.7 1.7 1.7 1.7zm0-2.5c.4 0 .8.3.8.8 0 .4-.3.8-.8.8-.4 0-.8-.3-.8-.8s.4-.8.8-.8z"/><path d="m44.8 13.8c1 0 1.7-.8 1.7-1.7 0-1-.8-1.7-1.7-1.7-1 0-1.7.8-1.7 1.7s.8 1.7 1.7 1.7zm0-2.5c.4 0 .8.3.8.8 0 .4-.3.8-.8.8-.4 0-.8-.3-.8-.8.1-.5.4-.8.8-.8z"/><path d="m39.6 13.8c1 0 1.7-.8 1.7-1.7 0-1-.8-1.7-1.7-1.7-1 0-1.7.8-1.7 1.7-.1.9.7 1.7 1.7 1.7zm0-2.5c.4 0 .8.3.8.8 0 .4-.3.8-.8.8-.4 0-.8-.3-.8-.8s.3-.8.8-.8z"/></svg>