<svg id="Layer_1" viewBox="0 0 512 512" xmlns="http://www.w3.org/2000/svg" data-name="Layer 1"><path d="m234.56 179.927a31.312 31.312 0 0 0 -22.5 9.625 28.935 28.935 0 0 0 -8.2 21.4l3.486 79.419c.648 15.071 12.6 26.875 27.211 26.875 14.53 0 26.482-11.786 27.211-26.867l3.487-79.432a28.936 28.936 0 0 0 -8.195-21.4 31.309 31.309 0 0 0 -22.5-9.62zm11.228 109.716c-.315 6.508-5.246 11.605-11.228 11.605-6.016 0-10.947-5.079-11.226-11.569l-3.486-79.42a13.076 13.076 0 0 1 3.767-9.641 15.125 15.125 0 0 1 21.893-.007 13.08 13.08 0 0 1 3.766 9.642zm-11.228 33.12a27.261 27.261 0 1 0 27.247 27.247 27.278 27.278 0 0 0 -27.247-27.247zm0 38.522a11.261 11.261 0 1 1 11.247-11.275 11.274 11.274 0 0 1 -11.247 11.275zm242.926 36.85h-6.824v-76.9a86.793 86.793 0 0 0 -82.957-86.6l-80.705-139.735a83.622 83.622 0 0 0 -144.875 0l-137.763 238.581a83.642 83.642 0 0 0 72.438 125.469h394.18a8 8 0 0 0 8-8v-31.35a21.5 21.5 0 0 0 -21.494-21.465zm-22.824-76.9v76.9h-43.811v-57.735a26.864 26.864 0 0 0 -53.728 0v57.734h-43.839v-76.9a70.689 70.689 0 1 1 141.378 0zm-59.811 76.9h-21.728v-57.735a10.864 10.864 0 0 1 21.728 0zm-125.275 16.583h-172.776a39.424 39.424 0 0 1 -34.119-59.118l68.881-119.308 68.882-119.282a39.4 39.4 0 0 1 68.234 0l68.883 119.285 5.07 8.765a86.762 86.762 0 0 0 -45.347 76.18v76.9h-6.825a21.486 21.486 0 0 0 -20.883 16.578zm-231.358-5.582a66.961 66.961 0 0 1 0-67.654l137.765-238.594c12.4-21.505 33.752-33.838 58.577-33.838s46.176 12.333 58.581 33.842l76.706 132.815a85.956 85.956 0 0 0 -12.406 3l-6.027-10.42-68.879-119.277a55.395 55.395 0 0 0 -95.947 0l-68.882 119.28-68.882 119.31a55.424 55.424 0 0 0 47.976 83.118h172.2v12.232h-172.2c-24.823 0-46.174-12.324-58.582-33.814zm444.762 33.814h-197.986v-23.35a5.538 5.538 0 0 1 5.465-5.465h187.027a5.553 5.553 0 0 1 5.494 5.465zm-106.294-173.511a8 8 0 0 1 -5.316 9.987 44.328 44.328 0 0 0 -30.834 37.244 8 8 0 0 1 -7.945 7.155 8.219 8.219 0 0 1 -.855-.045 8 8 0 0 1 -7.11-8.8 59.733 59.733 0 0 1 42.074-50.857 8 8 0 0 1 9.986 5.316zm-77.565-27.351-20.069-20.041a8 8 0 1 1 11.306-11.321l20.068 20.04a8 8 0 1 1 -11.305 11.322zm84.852-74.832a8 8 0 0 1 8 8v32.06a8 8 0 0 1 -16 0v-32.06a8 8 0 0 1 8-8zm104.927 43.474a8 8 0 0 1 0 11.313l-20.041 20.041a8 8 0 0 1 -11.313-11.314l20.04-20.04a8 8 0 0 1 11.314 0z"/></svg>