<?xml version="1.0" encoding="iso-8859-1"?>
<!-- Generator: Adobe Illustrator 19.0.0, SVG Export Plug-In . SVG Version: 6.00 Build 0)  -->
<svg version="1.1" id="Capa_1" xmlns="http://www.w3.org/2000/svg" xmlns:xlink="http://www.w3.org/1999/xlink" x="0px" y="0px"
	 viewBox="0 0 479.753 479.753" style="enable-background:new 0 0 479.753 479.753;" xml:space="preserve">
<g>
	<g>
		<path d="M456.201,262.725c-0.001-0.004-0.002-0.008-0.003-0.011h0.008l-8.304-30.912c-10.333-38.374-49.78-61.14-88.176-50.888
			l-176.448,47.296v-96.24c0-3.589,2.391-6.739,5.848-7.704L314.27,89.297c29.711-8.341,47.1-39.119,38.912-68.872l-4.04-14.568
			c-1.133-4.074-5.241-6.562-9.376-5.68L83.582,54.865c-25.777,5.614-44.196,28.379-44.304,54.76v323.6
			c-9.555,3.378-15.958,12.394-16,22.528v16c0,4.418,3.582,8,8,8h160c4.418,0,8-3.582,8-8v-16c-0.042-10.134-6.445-19.15-16-22.528
			v-89.096l151.344-40.544l2.08,7.752c3.393,12.781,16.505,20.392,29.286,16.999c0.038-0.01,0.076-0.02,0.114-0.031l61.816-16.552
			c12.802-3.435,20.395-16.598,16.96-29.4c0,0,0,0,0,0l-2.08-7.76l7.744-2.072C454.81,271.379,457.344,266.993,456.201,262.725z
			 M55.278,207.753h112v224h-112V207.753z M183.278,463.753h-144v-8c0-4.418,3.582-8,8-8h128c4.418,0,8,3.582,8,8V463.753z
			 M167.278,131.969v59.784h-112v-82.128c0.081-18.844,13.236-35.105,31.648-39.12l248.8-53.112l2.024,7.304
			c5.839,21.252-6.577,43.231-27.792,49.2l-125.136,34.968C174.466,111.777,167.302,121.212,167.278,131.969z M423.774,296.289
			v0.024l-61.816,16.568c-4.266,1.149-8.656-1.378-9.805-5.645c-0.001-0.004-0.002-0.008-0.003-0.011l-2.064-7.728l77.28-20.704
			l2.072,7.728C430.562,290.781,428.03,295.149,423.774,296.289z M183.278,327.577v-82.8l180.584-48.416
			c29.862-7.953,60.531,9.748,68.584,39.584l6.232,23.2L183.278,327.577z"/>
	</g>
</g>
<g>
	<g>
		<path d="M413.862,347.209l-6.584-9.536l-6.584,9.536c-4.24,6.144-41.416,60.648-41.416,84.544c0,26.51,21.49,48,48,48
			c26.51,0,48-21.49,48-48C455.278,407.857,418.102,353.353,413.862,347.209z M407.278,463.753c-17.673,0-32-14.327-32-32
			c0-12.296,17.6-43.424,32-65.6c14.4,22.184,32,53.312,32,65.6C439.278,449.426,424.951,463.753,407.278,463.753z"/>
	</g>
</g>
<g>
</g>
<g>
</g>
<g>
</g>
<g>
</g>
<g>
</g>
<g>
</g>
<g>
</g>
<g>
</g>
<g>
</g>
<g>
</g>
<g>
</g>
<g>
</g>
<g>
</g>
<g>
</g>
<g>
</g>
</svg>
