<svg id="Layer_1" enable-background="new 0 0 512 512" viewBox="0 0 512 512" xmlns="http://www.w3.org/2000/svg"><path d="m486.45 314.22-26.03-5.59c-.54-.12-.82-.36-1-.88-1.45-4.14-3.16-8.26-5.08-12.24-.24-.5-.22-.87.08-1.33l14.46-22.37c3.45-5.34 2.72-12.21-1.77-16.7l-2.68-2.68v-231.43c0-3.31-2.69-6-6-6h-437.43c-3.31 0-6 2.69-6 6v316.19c0 3.31 2.69 6 6 6h176.2v23.72c0 6.36 4.34 11.73 10.55 13.06l26.03 5.59c.54.12.82.36 1 .88 1.45 4.15 3.16 8.26 5.08 12.24.24.49.22.87-.08 1.33l-14.46 22.37c-3.45 5.34-2.72 12.2 1.77 16.7l28.02 28.02c4.49 4.5 11.36 5.22 16.7 1.77l22.37-14.46c.46-.3.83-.32 1.33-.08 3.98 1.92 8.09 3.63 12.24 5.08.52.18.77.46.88 1l5.59 26.03c1.33 6.21 6.71 10.55 13.06 10.55h39.63c6.36 0 11.73-4.34 13.06-10.55l5.59-26.03c.12-.54.36-.82.88-1 4.15-1.45 8.26-3.16 12.24-5.08.5-.24.87-.22 1.33.08l22.37 14.46c5.34 3.45 12.21 2.72 16.7-1.77l28.02-28.02c4.49-4.49 5.22-11.36 1.77-16.7l-14.46-22.37c-.3-.46-.32-.83-.08-1.33 1.92-3.98 3.63-8.09 5.08-12.24.18-.52.46-.76 1-.88l26.03-5.59c6.21-1.33 10.55-6.71 10.55-13.06v-39.63c.01-6.35-4.33-11.72-10.54-13.06zm-47.37-87.13c-4.5-4.49-11.36-5.22-16.7-1.77l-22.37 14.46c-.46.3-.83.32-1.33.08-3.97-1.92-8.09-3.63-12.24-5.08-.52-.18-.76-.46-.88-1l-5.59-26.03c-1.33-6.21-6.71-10.55-13.06-10.55h-39.63c-6.36 0-11.73 4.34-13.06 10.55l-5.59 26.03c-.12.54-.36.82-.88 1-4.14 1.45-8.26 3.16-12.24 5.08-.49.24-.87.22-1.33-.08l-22.37-14.46c-5.34-3.45-12.21-2.72-16.7 1.77l-9.4 9.4v-51.4h206.71v55.34zm-208.33 24.37h-203.75v-66.36h206.71v63.4zm114.34-144.73v66.36h-210.76v-66.36zm107.33 66.37h-95.33v-66.36h95.33zm-330.09 0h-95.33v-66.36h95.33zm330.09-78.37h-206.71v-67.73h206.71zm-218.71-67.73v67.73h-206.71v-67.73zm-206.71 236.46h95.33v67.73h-95.33zm170.2 63.83v3.91h-62.87v-67.73h88.88c-.24 2.85.45 5.78 2.11 8.36l14.46 22.37c.3.46.32.83.08 1.33-1.92 3.98-3.63 8.09-5.08 12.24-.18.52-.46.76-1 .88l-26.03 5.59c-6.21 1.32-10.55 6.69-10.55 13.05zm287.8 39.63c0 .68-.41 1.19-1.07 1.33l-26.03 5.59c-4.65 1-8.23 4.15-9.8 8.64-1.31 3.72-2.84 7.42-4.56 11-2.07 4.29-1.77 9.05.81 13.06l14.46 22.37c.37.57.3 1.22-.18 1.7l-28.02 28.02c-.48.48-1.13.55-1.7.18l-22.37-14.46c-4-2.59-8.76-2.88-13.06-.81-3.57 1.72-7.27 3.26-11 4.57-4.49 1.58-7.64 5.15-8.64 9.8l-5.59 26.03c-.14.66-.65 1.07-1.33 1.07h-39.63c-.68 0-1.19-.41-1.33-1.07l-5.59-26.03c-1-4.65-4.15-8.23-8.64-9.8-3.72-1.31-7.42-2.84-11-4.56-1.89-.91-3.87-1.37-5.84-1.37-2.5 0-4.98.73-7.21 2.18l-22.38 14.44c-.57.37-1.22.3-1.7-.18l-28.02-28.02c-.48-.48-.55-1.13-.18-1.7l14.46-22.37c2.59-4 2.89-8.76.81-13.06-1.72-3.57-3.26-7.27-4.56-11-1.58-4.49-5.15-7.64-9.8-8.64l-26.03-5.59c-.66-.14-1.07-.65-1.07-1.33v-39.63c0-.68.41-1.19 1.07-1.33l26.03-5.59c4.65-1 8.23-4.15 9.8-8.64 1.31-3.72 2.84-7.42 4.56-11 2.07-4.29 1.78-9.05-.81-13.06l-14.46-22.36c-.37-.57-.3-1.22.18-1.7l28.02-28.02c.48-.48 1.13-.55 1.7-.18l22.37 14.46c4 2.59 8.76 2.88 13.06.81 3.58-1.72 7.28-3.26 11-4.56 4.49-1.57 7.64-5.15 8.64-9.8l5.59-26.03c.14-.66.65-1.07 1.33-1.07h39.63c.68 0 1.19.41 1.33 1.07l5.59 26.03c1 4.65 4.15 8.23 8.64 9.8 3.73 1.31 7.43 2.84 11 4.56 4.29 2.07 9.05 1.77 13.06-.81l22.37-14.46c.57-.37 1.22-.3 1.7.18l28.02 28.02c.48.48.55 1.13.18 1.7l-14.46 22.37c-2.59 4-2.88 8.76-.81 13.06 1.72 3.58 3.26 7.28 4.56 11 1.58 4.49 5.15 7.64 9.8 8.64l26.03 5.59c.66.14 1.07.65 1.07 1.33zm-137.9-96.73c-42.41 0-76.91 34.5-76.91 76.91s34.5 76.91 76.91 76.91 76.91-34.5 76.91-76.91-34.5-76.91-76.91-76.91zm0 141.82c-35.79 0-64.91-29.12-64.91-64.91s29.12-64.91 64.91-64.91 64.91 29.12 64.91 64.91-29.12 64.91-64.91 64.91z"/></svg>