<svg id="Layer_1" enable-background="new 0 0 512 512" height="512" viewBox="0 0 512 512" width="512" xmlns="http://www.w3.org/2000/svg"><path d="m163.227 164.184c-.378-4.118-3.832-7.269-7.966-7.269h-29.776c-2.249 0-4.394.947-5.91 2.608-1.516 1.662-2.263 3.884-2.057 6.124l14.651 159.521c.378 4.118 3.832 7.269 7.966 7.269h29.776c2.249 0 4.394-.947 5.91-2.608 1.516-1.662 2.262-3.884 2.057-6.124zm-15.792 152.253-13.182-143.521h13.709l13.181 143.521zm314.244 17.568-34.48-5.519c-1.952-6.304-4.487-12.416-7.573-18.262l20.484-28.292c2.305-3.183 1.956-7.569-.823-10.348l-25.949-25.949c-2.779-2.779-7.165-3.127-10.348-.823l-28.291 20.483c-2.389-1.261-4.832-2.405-7.303-3.48l13.82-150.469h10.182c6.634 0 11.831-5.151 11.831-11.726v-34.544c0-17.044-18.678-27.229-36.736-27.229h-86.984v-11.95c0-9.869-8.029-17.897-17.897-17.897h-76.408c-9.869 0-17.897 8.029-17.897 17.897v11.95h-86.985c-17.667 0-36.736 10.411-36.736 27.229v34.544c0 6.575 5.197 11.726 11.831 11.726h10.182l25.583 278.547c1.623 17.643 16.426 30.947 34.434 30.947h96.451l-12.84 17.733c-2.305 3.183-1.956 7.569.823 10.348l25.949 25.949c2.779 2.779 7.165 3.127 10.348.823l28.291-20.483c5.847 3.087 11.959 5.623 18.263 7.574l5.519 34.479c.621 3.88 3.969 6.735 7.899 6.735h36.698c3.93 0 7.278-2.855 7.899-6.735l5.519-34.481c6.304-1.952 12.415-4.486 18.262-7.572l28.292 20.484c3.183 2.304 7.569 1.956 10.348-.823l25.949-25.949c2.779-2.779 3.128-7.165.823-10.348l-20.483-28.291c3.087-5.848 5.623-11.96 7.574-18.263l34.478-5.519c3.88-.621 6.735-3.969 6.735-7.899v-36.698c.002-3.929-2.853-7.278-6.734-7.899zm-278.373-308.108c0-1.028.869-1.897 1.897-1.897h76.408c1.028 0 1.897.869 1.897 1.897v11.95h-80.203v-11.95zm-123.721 39.179c0-5.772 10.078-11.229 20.736-11.229h286.171c10.659 0 20.736 5.457 20.736 11.229v30.271h-327.643zm47.529 323.353-25.449-277.082h283.483l-11.718 127.594-2.513-15.698c-.621-3.881-3.969-6.736-7.899-6.736h-23.711l4.672-50.86c.206-2.24-.541-4.462-2.057-6.124-1.516-1.661-3.661-2.608-5.91-2.608h-29.776c-4.135 0-7.588 3.151-7.966 7.269l-8.934 97.272-22.989-16.644c-.036-.026-.074-.047-.11-.073l.201-79.804c.005-2.125-.835-4.165-2.336-5.67-1.501-1.504-3.539-2.35-5.664-2.35h-29.651c-4.41 0-7.989 3.569-8 7.98l-.403 159.521c-.005 2.125.835 4.165 2.336 5.669.49.491 1.041.904 1.629 1.248l-16.691 2.672c-3.88.621-6.735 3.969-6.735 7.899v36.698c0 3.93 2.855 7.278 6.735 7.899l34.48 5.52c1.355 4.377 3.01 8.653 4.916 12.82h-101.439c-9.686 0-17.64-7.056-18.501-16.412zm196.066-171.273c-2.461 1.052-4.315 3.302-4.76 6.086l-5.519 34.479c-2.5.774-4.96 1.666-7.396 2.621l8.03-87.427h13.709zm-76.466 99.281h-10.31l.062-24.505 13.245 18.293c-1.075 2.035-2.058 4.114-2.997 6.212zm3.506-65.023-13.686 13.686.233-92.185h13.651zm222.195 120.367-32.785 5.248c-3.148.504-5.696 2.829-6.486 5.917-2.136 8.353-5.458 16.364-9.874 23.809-1.626 2.743-1.469 6.189.401 8.772l19.48 26.905-16.303 16.303-26.905-19.48c-2.583-1.871-6.03-2.028-8.772-.401-7.442 4.413-15.453 7.735-23.809 9.872-3.088.79-5.413 3.338-5.917 6.486l-5.249 32.788h-23.056l-5.248-32.786c-.504-3.148-2.829-5.696-5.917-6.486-8.354-2.136-16.364-5.458-23.809-9.874-2.742-1.626-6.189-1.469-8.772.401l-26.905 19.479-16.303-16.303 19.48-26.905c1.87-2.583 2.027-6.029.401-8.772-4.413-7.442-7.734-15.453-9.873-23.81-.791-3.088-3.338-5.413-6.486-5.917l-32.787-5.249v-23.055l32.788-5.249c3.148-.504 5.696-2.829 6.486-5.917 2.137-8.355 5.458-16.365 9.872-23.809 1.626-2.743 1.469-6.189-.401-8.772l-19.48-26.905 16.303-16.303 26.903 19.479c2.583 1.87 6.029 2.027 8.772.401 7.444-4.415 15.456-7.736 23.811-9.873 3.088-.79 5.414-3.338 5.917-6.486l5.248-32.786h23.056l5.248 32.785c.504 3.148 2.829 5.697 5.917 6.486 8.353 2.136 16.364 5.458 23.809 9.874 2.742 1.626 6.189 1.469 8.772-.401l26.905-19.48 16.303 16.303-19.48 26.905c-1.87 2.583-2.027 6.029-.401 8.772 4.413 7.441 7.734 15.452 9.873 23.81.79 3.088 3.338 5.413 6.486 5.917l32.787 5.248zm-127.747-73.75c-34.31 0-62.223 27.913-62.223 62.223s27.913 62.223 62.223 62.223 62.223-27.913 62.223-62.223-27.913-62.223-62.223-62.223zm0 108.446c-25.487 0-46.223-20.735-46.223-46.223s20.735-46.223 46.223-46.223 46.223 20.735 46.223 46.223c0 25.487-20.735 46.223-46.223 46.223z"/></svg>