<svg id="Layer_1" viewBox="0 0 512 512" xmlns="http://www.w3.org/2000/svg" data-name="Layer 1"><path d="m221.327 95.4a30.182 30.182 0 0 0 5.549 39.837 49.22 49.22 0 0 0 -5.741 23.395c0 22.348 14.16 40.528 31.564 40.528 17.023 0 30.942-17.392 31.545-39.062a30.3 30.3 0 0 0 23.246-28.577 87.7 87.7 0 0 0 10.174.583c28.851 0 50.607-13 50.607-30.237a20.219 20.219 0 0 0 -2.111-8.932 38.013 38.013 0 0 0 15.867-30.6c0-21.6-18.957-39.169-42.258-39.169a45.351 45.351 0 0 0 -14.069 2.224 30.253 30.253 0 0 0 -54.219.588 30.241 30.241 0 0 0 -33.651 15.1 30.263 30.263 0 0 0 -16.5 54.324zm18.26-40.375a16.171 16.171 0 0 1 1.952.123 7 7 0 0 0 7.489-4.784 16.236 16.236 0 0 1 23.384-9.132 7 7 0 0 0 10.331-4.915 16.234 16.234 0 0 1 31.946-.247 7 7 0 0 0 10.258 4.837 30.774 30.774 0 0 1 14.822-3.744c15.582 0 28.258 11.291 28.258 25.169 0 9.294-5.736 17.8-14.969 22.2a7 7 0 0 0 -1.91 11.3c2.073 2.048 3.123 4.079 3.123 6.035 0 7.664-15.655 16.237-36.607 16.237a69.387 69.387 0 0 1 -16.8-1.983 7 7 0 0 0 -8.295 9.129 16.241 16.241 0 0 1 -15.246 21.661l-.224-.006a7 7 0 0 0 -7.046 7.717 39.44 39.44 0 0 1 .21 4.01c0 14.38-8.044 26.528-17.566 26.528s-17.564-12.148-17.564-26.528c0-8.1 2.5-15.7 6.848-20.838a7 7 0 0 0 -2.382-10.868 16.307 16.307 0 0 1 -9.389-14.726 16.1 16.1 0 0 1 6.643-13.1 7 7 0 0 0 -2.075-12.329 16.241 16.241 0 0 1 4.809-31.752zm260.986 403.021-25.551-42.984c15.191-3.709 26.84-17.41 26.84-33.208v-156.1a34.2 34.2 0 0 0 -67.888-5.874h-89.7a24.9 24.9 0 0 0 -18.541-8.215h-143.743a25 25 0 0 0 -18.533 8.215h-87.569a34.2 34.2 0 0 0 -67.888 5.877v156.1a34.2 34.2 0 0 0 67.888 5.874h87.226a25.025 25.025 0 0 0 18.551 8.215h101.856l-36.915 62.1a27.863 27.863 0 0 0 23.952 42.1h206.065a27.862 27.862 0 0 0 23.95-42.1zm-438.173-76.192a20.2 20.2 0 1 1 -40.4 0v-156.1a20.2 20.2 0 1 1 40.4 0zm405.258-176.3a20.225 20.225 0 0 1 20.2 20.2v156.1c0 10.809-9.383 19.944-20.584 20.18l-19.819-33.343v-142.934a20.225 20.225 0 0 1 20.206-20.202zm-101.782 66.61c-2.684-16.6-7.294-29.069-12.19-38.282h79.77v111.257l-35.918-60.426a27.624 27.624 0 0 0 -23.95-13.625 28.182 28.182 0 0 0 -7.709 1.077zm-211-38.282c-6.986 14.581-13.286 36.882-13.286 69.923 0 33.427 6.083 55.58 12.915 69.922h-78.105v-139.844zm26.788 148.06a10.976 10.976 0 0 1 -9-4.643c-6.378-9.1-17.078-30.738-17.078-73.494 0-41.592 10.816-63.774 17.264-73.3a11.02 11.02 0 0 1 9.135-4.842h61.485l-10.112 19.737a7 7 0 0 0 1.159 8.02l22.545 23.68-12.848 21.321a7 7 0 1 0 11.992 7.225l15.6-25.893a7 7 0 0 0 -.926-8.439l-22.8-23.953 11.125-21.7h66.527a10.953 10.953 0 0 1 8.5 4c5.59 6.806 15.125 22.183 18.655 50.615a28.383 28.383 0 0 0 -3.251 4.434l-57.8 97.23zm307.007 97.2a13.711 13.711 0 0 1 -12.049 7.007h-206.064a13.861 13.861 0 0 1 -11.916-20.949l103.032-173.333a13.863 13.863 0 0 1 23.833 0l103.031 173.333a13.71 13.71 0 0 1 .134 13.938zm-115.081-37.472a19.775 19.775 0 1 0 19.775 19.775 19.8 19.8 0 0 0 -19.775-19.775zm0 25.55a5.775 5.775 0 1 1 5.775-5.775 5.782 5.782 0 0 1 -5.775 5.775zm0-165.055a23.474 23.474 0 0 0 -23.448 23.448c0 .246 0 .748 4.765 92.776a18.684 18.684 0 0 0 37.365 0c4.766-92.028 4.766-92.53 4.766-92.776a23.474 23.474 0 0 0 -23.448-23.448zm4.693 115.66c-.007.12-.01.241-.01.362a4.684 4.684 0 0 1 -9.367 0c0-.121 0-.242-.01-.362-1.591-30.749-4.6-88.967-4.753-92.332a9.448 9.448 0 0 1 18.894 0c-.152 3.365-3.162 61.583-4.754 92.332z"/></svg>