<?xml version="1.0" encoding="UTF-8"?>
<svg xmlns="http://www.w3.org/2000/svg" xmlns:xlink="http://www.w3.org/1999/xlink" version="1.1" id="Capa_1" x="0px" y="0px" viewBox="0 0 511 511" style="enable-background:new 0 0 511 511;" xml:space="preserve" width="512" height="512">
<g>
	<polyline style="fill:none;stroke:#000000;stroke-width:15;stroke-miterlimit:10;" points="207.5,95.5 231.5,127.5 231.5,191.5 &#9;&#10;&#9;&#9;"/>
	<polyline style="fill:none;stroke:#000000;stroke-width:15;stroke-miterlimit:10;" points="303.5,95.5 279.5,127.5 279.5,191.5 &#9;&#10;&#9;&#9;"/>
	<path style="fill:none;stroke:#000000;stroke-width:15;stroke-miterlimit:10;" d="M319.5,95.5h-128c-8.837,0-16-7.163-16-16v0&#10;&#9;&#9;c0-8.837,7.163-16,16-16h128c8.837,0,16,7.163,16,16v0C335.5,88.337,328.337,95.5,319.5,95.5z"/>
	<line style="fill:none;stroke:#000000;stroke-width:15;stroke-miterlimit:10;" x1="231.5" y1="127.5" x2="279.5" y2="127.5"/>
	<rect x="207.5" y="191.5" style="fill:none;stroke:#000000;stroke-width:15;stroke-miterlimit:10;" width="96" height="40"/>
	<polyline style="fill:none;stroke:#000000;stroke-width:15;stroke-miterlimit:10;" points="407.5,415.5 407.5,311.5 367.5,311.5 &#9;&#10;&#9;&#9;"/>
	<path style="fill:none;stroke:#000000;stroke-width:15;stroke-miterlimit:10;" d="M367.5,231.5h72c26.51,0,48,21.49,48,48v136"/>
	<path style="fill:none;stroke:#000000;stroke-width:15;stroke-miterlimit:10;" d="M407.5,447.5h80c8.837,0,16-7.163,16-16v0&#10;&#9;&#9;c0-8.837-7.163-16-16-16h-80c-8.837,0-16,7.163-16,16v0C391.5,440.337,398.663,447.5,407.5,447.5z"/>
	<path style="fill:none;stroke:#000000;stroke-width:15;stroke-miterlimit:10;" d="M367.5,311.5v-80c0-8.837-7.163-16-16-16h0&#10;&#9;&#9;c-8.837,0-16,7.163-16,16v80c0,8.837,7.163,16,16,16h0C360.337,327.5,367.5,320.337,367.5,311.5z"/>
	<polyline style="fill:none;stroke:#000000;stroke-width:15;stroke-miterlimit:10;" points="103.5,415.5 103.5,311.5 143.5,311.5 &#9;&#10;&#9;&#9;"/>
	<line style="fill:none;stroke:#000000;stroke-width:15;stroke-miterlimit:10;" x1="23.5" y1="342.5" x2="23.5" y2="415.5"/>
	<path style="fill:none;stroke:#000000;stroke-width:15;stroke-miterlimit:10;" d="M143.5,231.5h-72c-26.51,0-48,21.49-48,48v48"/>
	<path style="fill:none;stroke:#000000;stroke-width:15;stroke-miterlimit:10;" d="M103.5,447.5h-80c-8.837,0-16-7.163-16-16v0&#10;&#9;&#9;c0-8.837,7.163-16,16-16h80c8.837,0,16,7.163,16,16v0C119.5,440.337,112.337,447.5,103.5,447.5z"/>
	<path style="fill:none;stroke:#000000;stroke-width:15;stroke-miterlimit:10;" d="M143.5,311.5v-80c0-8.837,7.163-16,16-16h0&#10;&#9;&#9;c8.837,0,16,7.163,16,16v80c0,8.837-7.163,16-16,16h0C150.663,327.5,143.5,320.337,143.5,311.5z"/>
	<line style="fill:none;stroke:#000000;stroke-width:15;stroke-miterlimit:10;" x1="175.5" y1="231.5" x2="335.5" y2="231.5"/>
	<line style="fill:none;stroke:#000000;stroke-width:15;stroke-miterlimit:10;" x1="335.5" y1="311.5" x2="175.5" y2="311.5"/>
	<g>
		<line style="fill:none;stroke:#000000;stroke-width:15;stroke-miterlimit:10;" x1="232" y1="271.5" x2="248" y2="271.5"/>
		<line style="fill:none;stroke:#000000;stroke-width:15;stroke-miterlimit:10;" x1="263" y1="271.5" x2="279" y2="271.5"/>
	</g>
</g>















</svg>
