<svg id="_x33_0" enable-background="new 0 0 64 64" height="512" viewBox="0 0 64 64" width="512" xmlns="http://www.w3.org/2000/svg"><g><path d="m19 7h-6c-1.103 0-2 .897-2 2v6c0 1.103.897 2 2 2h6c1.103 0 2-.897 2-2v-6c0-1.103-.897-2-2-2zm-6 8v-6h6l.001 6z"/><path d="m15 19h2v2h-2z"/><path d="m19 19h2v2h-2z"/><path d="m11 19h2v2h-2z"/><path d="m46 7h-12c-1.654 0-3 1.346-3 3v6.191c0 1.549 1.26 2.809 2.809 2.809.195 0 .393-.021.588-.062l12.231-2.622c1.374-.294 2.372-1.527 2.372-2.933v-3.383c0-1.654-1.346-3-3-3zm1 6.383c0 .468-.333.879-.791.978l-12.229 2.62c-.512.109-.98-.287-.98-.79v-6.191c0-.551.449-1 1-1h12c.551 0 1 .449 1 1z"/><path d="m35 11h2v2h-2z"/><path d="m39 11h2v2h-2z"/><path d="m43 11h2v2h-2z"/><path d="m54 3h-28.356c-1.545-1.248-3.508-2-5.644-2h-4c-4.962 0-9 4.038-9 9v12c0 1.654 1.346 3 3 3h.984c-.04 8.258-.566 16.586-1.589 24.775l-.345 2.762c-.033.266-.05.535-.05.804 0 1.283.376 2.526 1.088 3.594l1.015 1.522c.775 2.682 3.21 4.543 6.02 4.543h11.754c2.81 0 5.245-1.861 6.02-4.543l.997-1.496c.724-1.085 1.106-2.348 1.106-3.652 0-.243-.013-.486-.041-.727l-1.906-17.154c-.035-.322-.053-.645-.053-.969 0-3.942 2.656-7.419 6.459-8.457l13.33-3.636c1.301-.355 2.21-1.545 2.21-2.895v-13.471c.001-1.654-1.345-3-2.999-3zm-27 7v12c0 .551-.449 1-1 1h-1v-13c0-2.665-1.164-5.062-3.01-6.712 2.893.859 5.01 3.543 5.01 6.712zm-18 12v-12c0-3.86 3.14-7 7-7s7 3.14 7 7v13h-13c-.551 0-1-.449-1-1zm3.535 35-.783-1.174c-.174-.26-.307-.539-.422-.826h3.67v-2h-3.979c.005-.071.005-.143.013-.214l.224-1.786h5.742v-2h-5.508c.08-.665.145-1.333.218-2h7.29v-2h-7.072c.371-3.689.636-7.394.812-11.103 1.13.715 2.438 1.103 3.808 1.103 1.105 0 2.211-.261 3.198-.755l5.806-2.903c.448-.224.948-.342 1.448-.342 1.103 0 2 .897 2 2 0 .43-.142.856-.4 1.2l-1.174 1.567c-4.655 6.205-7.505 13.531-8.314 21.233zm16.342 4h-11.754c-1.503 0-2.85-.782-3.617-2h18.988c-.767 1.218-2.114 2-3.617 2zm12.056-36.927c-4.671 1.274-7.933 5.545-7.933 10.386 0 .397.022.794.066 1.189l1.906 17.156c.019.168.028.336.028.505 0 .908-.266 1.788-.77 2.543l-.765 1.148h-12.34c.801-7.265 3.505-14.174 7.9-20.033l1.175-1.567c.516-.688.8-1.54.8-2.4 0-2.206-1.794-4-4-4-.808 0-1.618.191-2.342.553l-5.807 2.903c-.711.356-1.507.544-2.303.544-1.376 0-2.669-.536-3.643-1.509l-.051-.051c.077-2.15.119-4.297.13-6.441h13.016c1.654 0 3-1.346 3-3v-11.999c0-1.849-.562-3.569-1.522-5h23.522v16.327zm14.067-4.601c0 .45-.303.847-.737.965l-1.263.345v-15.782h1c.551 0 1 .449 1 1z"/></g></svg>