<svg id="Layer_3" enable-background="new 0 0 64 64" height="512" viewBox="0 0 64 64" width="512" xmlns="http://www.w3.org/2000/svg"><g><path d="m62.447 10.104c-1.447-.722-3.067-1.104-4.683-1.104h-.764v-7c0-.552-.448-1-1-1-9.709 0-18.767 4.971-24 13.07-5.234-8.099-14.292-13.07-24-13.07-.552 0-1 .448-1 1v7h-.764c-1.616 0-3.236.382-4.683 1.104-.339.169-.553.516-.553.895v39c0 .314.147.609.398.798.25.189.575.25.876.163l3.656-1.044c2.131-.607 4.334-.916 6.549-.916 4.723 0 9.296 1.385 13.225 4.004l5.742 3.828c.167.112.361.168.554.168s.387-.056.555-.168l3.556-2.371c2.132 5.014 7.106 8.539 12.889 8.539 7.382 0 13.433-5.747 13.949-13h.051v-39c0-.38-.214-.727-.553-.896zm-7.447-7.085v33.351c-1.822-.869-3.851-1.37-6-1.37-7.72 0-14 6.28-14 14 0 .388.027.77.058 1.15-.731.789-1.421 1.614-2.058 2.48v-14.654c5.196-.235 9-2.295 9-4.976v-4.682l2-.75v1.71c-.595.347-1 .985-1 1.722s.405 1.375 1 1.722v2.278h2v-2.278c.595-.347 1-.985 1-1.722s-.405-1.375-1-1.722v-2.46l2.351-.882c.39-.146.649-.519.649-.936s-.259-.79-.649-.937l-15.351-5.756v-2.032c4.568-7.901 12.917-12.912 22-13.256zm-23 17.049 13.152 4.932-13.152 4.932-13.152-4.932zm-8 9 7.649 2.868c.113.043.232.064.351.064s.238-.021.351-.063l7.649-2.869v3.932c0 1.223-3.117 3-8 3s-8-1.777-8-3zm-15-26.049c9.082.344 17.431 5.354 22 13.256v2.032l-15.351 5.757c-.39.146-.649.519-.649.936s.259.79.649.937l6.351 2.381v4.682c0 2.681 3.804 4.741 9 4.976v14.664c-5.146-6.981-13.258-11.315-22-11.622zm3.479 43.981c-2.401 0-4.789.334-7.098.994l-2.381.68v-37.032c1.023-.421 2.13-.642 3.236-.642h.764v31c0 .552.448 1 1 1 7.774 0 15.096 3.43 20.09 9.191l-1.277-.851c-4.259-2.84-9.216-4.34-14.334-4.34zm36.521 14c-6.617 0-12-5.383-12-12s5.383-12 12-12 12 5.383 12 12-5.383 12-12 12zm8-23.473v-26.527h.764c1.105 0 2.212.221 3.236.642v30.184c-1.019-1.699-2.381-3.166-4-4.299z"/><path d="m57.914 54.594-3.331-7.494c.266-.678.417-1.412.417-2.183 0-3.309-2.691-6-6-6s-6 2.691-6 6c0 .771.151 1.505.417 2.183l-3.331 7.494c-.161.362-.093.785.173 1.079.267.294.681.401 1.057.276l2.414-.805 1.563 1.563c.189.19.445.293.707.293.077 0 .154-.009.23-.027.337-.08.609-.328.719-.657l1.804-5.412c.083.003.164.013.247.013s.165-.009.247-.013l1.804 5.412c.11.329.382.577.719.657.076.018.153.027.23.027.262 0 .518-.103.707-.293l1.563-1.563 2.414.805c.375.124.789.017 1.057-.276.266-.294.334-.717.173-1.079zm-8.914-13.677c2.206 0 4 1.794 4 4s-1.794 4-4 4-4-1.794-4-4 1.794-4 4-4zm-3.437 13.232-.856-.856c-.269-.269-.665-.363-1.023-.242l-.849.283 1.879-4.227c.581.595 1.285 1.067 2.07 1.38zm8.753-1.098c-.359-.12-.756-.026-1.023.242l-.856.856-1.22-3.661c.785-.313 1.489-.786 2.07-1.38l1.879 4.227z"/></g></svg>