<svg id="Layer_1" enable-background="new 0 0 512 512" viewBox="0 0 512 512" xmlns="http://www.w3.org/2000/svg"><path d="m351.54 403.488c-11.079-6.794-22.388-13.505-33.79-20.144-.012-.007-.024-.015-.036-.021-19.995-11.643-40.278-23.047-60.202-34.22v-11.058c.925-1.122 1.842-2.262 2.742-3.433 10.401-13.545 18.222-29.209 23.156-46.018 17.503-6.294 30.689-24.538 30.689-43.374 0-9.73-3.568-18.32-10.048-24.19-2.962-2.683-6.411-4.669-10.17-5.925 6.912-17.068 10.797-34.291 10.797-49.671 0-57.871-49.531-104.953-110.413-104.953s-110.414 47.083-110.414 104.954c0 15.373 3.889 32.595 10.808 49.666-3.866 1.293-7.395 3.365-10.403 6.155-6.319 5.859-9.798 14.369-9.798 23.964 0 18.834 13.184 37.077 30.685 43.372 4.931 16.81 12.749 32.475 23.145 46.019.959 1.25 1.937 2.465 2.926 3.659v10.721c-31.487 17.68-63.952 35.939-94.191 54.493-11.685 7.149-18.387 19.103-18.387 32.799v64.338c0 3.852 3.123 6.974 6.974 6.974s6.974-3.122 6.974-6.974v-64.338c0-8.856 4.161-16.279 11.725-20.905 7.497-4.6 15.141-9.186 22.878-13.753v98.996c0 3.852 3.123 6.974 6.974 6.974 3.852 0 6.974-3.122 6.974-6.974v-107.153c9.408-5.456 18.905-10.881 28.406-16.262v78.628c0 3.852 3.122 6.974 6.974 6.974h155.527c3.852 0 6.974-3.122 6.974-6.974v-78.62c9.485 5.37 18.977 10.785 28.406 16.255v107.152c0 3.852 3.122 6.974 6.974 6.974s6.974-3.122 6.974-6.974v-98.99c7.71 4.552 15.355 9.135 22.884 13.752 7.557 4.622 11.718 12.045 11.718 20.9v64.338c0 3.852 3.122 6.974 6.974 6.974s6.974-3.122 6.974-6.974v-64.338c.002-13.696-6.701-25.651-18.38-32.795zm-206.378-50.492c0-.014 0-.027 0-.041v-.483c15.14 12.858 32.264 19.939 49.102 19.939 16.909 0 34.109-7.14 49.3-20.1v.762.038.076c0 27.137-22.078 49.215-49.215 49.215-27.122 0-49.187-22.078-49.187-49.215zm-41.723-154.777c24.645-16.324 56.676-25.272 90.825-25.272 34.16 0 66.194 8.944 90.838 25.262-6.033 19.072-16.578 38.884-29.976 55.528-18.074-11.375-38.981-17.357-60.862-17.357-21.865 0-42.762 5.982-60.834 17.357-13.401-16.648-23.952-36.456-29.991-55.518zm196.712 47.002c0 9.329-5.156 18.921-12.589 25.076 1.307-8.06 1.979-16.289 1.979-24.595 0-4.467-.061-10.822-.511-17.522 2.116.639 4.02 1.708 5.656 3.19 3.525 3.191 5.465 8.11 5.465 13.851zm-105.886-170.791c53.191 0 96.465 40.824 96.465 91.005 0 5.868-.675 12.114-1.955 18.572-26.312-16.182-59.45-25.009-94.51-25.009-35.053 0-68.19 8.831-94.504 25.022-1.283-6.463-1.961-12.714-1.961-18.585 0-50.18 43.273-91.005 96.465-91.005zm-105.859 170.791c0-5.669 1.894-10.547 5.334-13.737 1.585-1.47 3.435-2.546 5.493-3.212-.22 6.571-.219 12.403-.217 16.52v.91c0 8.305.672 16.534 1.978 24.594-7.432-6.156-12.588-15.747-12.588-25.075zm24.634 4.346c4.235 6.29 8.852 12.342 13.804 18.029 2.357 2.707 6.382 3.184 9.307 1.101 16.87-12.017 36.965-18.37 58.114-18.37 21.167 0 41.272 6.352 58.142 18.37 1.222.87 2.637 1.293 4.042 1.293 1.956 0 3.893-.82 5.264-2.395 4.952-5.688 9.569-11.742 13.804-18.035-.776 28.293-10.04 55.348-26.325 76.556-15.786 20.556-35.806 32.346-54.927 32.346-19.119 0-39.134-11.789-54.912-32.345-16.276-21.203-25.536-48.257-26.313-76.55zm152.028 199.293h-141.579v-79.527c2.92-1.643 5.835-3.282 8.744-4.917 5.313 29.488 31.135 51.935 62.116 51.935 30.961 0 56.771-22.398 62.127-51.837 2.859 1.604 5.723 3.216 8.592 4.829zm190.163-264.122c-2.16-1.098-4.74-.995-6.807.272-2.067 1.268-3.328 3.52-3.328 5.945v28.378c0 10.288-8.371 18.659-18.659 18.659-10.289 0-18.66-8.371-18.66-18.659v-28.378c0-2.425-1.26-4.677-3.328-5.945-2.068-1.269-4.646-1.37-6.807-.272-21.496 10.93-34.85 32.685-34.85 56.776 0 20.073 9.399 38.791 25.322 50.796v180.867c0 21.132 17.191 38.323 38.323 38.323 21.147 0 38.35-17.191 38.35-38.323v-180.871c15.906-12.01 25.294-30.725 25.294-50.792 0-24.09-13.354-45.845-34.85-56.776zm-1.284 98.165c-1.942 1.293-3.108 3.472-3.108 5.804v184.469c0 13.44-10.947 24.375-24.402 24.375-13.44 0-24.375-10.934-24.375-24.375v-184.468c0-2.335-1.169-4.515-3.113-5.807-13.906-9.246-22.209-24.718-22.209-41.386 0-14.666 6.339-28.224 17.089-37.534v15.353c0 17.98 14.628 32.607 32.608 32.607s32.607-14.628 32.607-32.607v-15.354c10.75 9.311 17.089 22.869 17.089 37.534 0 16.664-8.294 32.136-22.186 41.389zm35.762-176.515-14.38-11.425c.128-1.89.181-3.779.158-5.659l14.956-10.684c2.586-1.847 3.596-5.208 2.457-8.174l-9.676-25.208c-1.137-2.963-4.129-4.779-7.285-4.432l-18.302 2.044c-1.249-1.427-2.54-2.791-3.867-4.084l3.028-18.145c.524-3.137-1.14-6.229-4.046-7.521l-24.699-10.979c-2.903-1.292-6.312-.455-8.29 2.03l-11.438 14.374c-1.894-.123-3.783-.172-5.649-.148l-10.684-14.956c-1.845-2.585-5.205-3.597-8.174-2.457l-25.209 9.677c-2.963 1.137-4.785 4.132-4.432 7.286l2.044 18.277c-1.413 1.24-2.775 2.531-4.078 3.868l-18.16-3.007c-3.132-.518-6.221 1.144-7.511 4.045l-10.977 24.671c-1.292 2.902-.459 6.308 2.024 8.288l14.368 11.457c-.122 1.869-.169 3.753-.141 5.644l-14.957 10.707c-2.581 1.848-3.589 5.206-2.451 8.17l9.676 25.209c1.138 2.967 4.144 4.781 7.295 4.431l18.263-2.065c1.225 1.398 2.519 2.762 3.875 4.088l-3.009 18.142c-.519 3.131 1.141 6.218 4.039 7.51l24.672 11.006c2.906 1.297 6.317.463 8.298-2.025l11.457-14.391c1.85.122 3.728.174 5.621.15l10.693 14.97c1.338 1.874 3.473 2.921 5.677 2.921.834 0 1.679-.151 2.494-.463l25.237-9.676c2.968-1.137 4.791-4.138 4.434-7.296l-2.067-18.276c1.419-1.246 2.787-2.542 4.096-3.884l18.129 3.029c3.135.523 6.227-1.138 7.52-4.04l11.006-24.7c1.291-2.906.455-6.321-2.035-8.299zm-19.518 22.392-16.52-2.76c-2.384-.401-4.811.469-6.404 2.294-2.372 2.718-5.045 5.255-7.944 7.538-1.897 1.494-2.886 3.863-2.615 6.263l1.883 16.649-15.161 5.812-9.738-13.633c-1.314-1.839-3.431-2.92-5.674-2.92-.145 0-.292.005-.439.014-3.743.237-7.421.135-10.926-.3-2.409-.292-4.802.678-6.315 2.578l-10.442 13.117-14.819-6.611 2.741-16.526c.394-2.374-.465-4.784-2.271-6.375-2.812-2.478-5.34-5.147-7.51-7.935-1.491-1.916-3.874-2.918-6.286-2.645l-16.651 1.883-5.81-15.139 13.639-9.764c1.969-1.409 3.066-3.741 2.898-6.157-.257-3.677-.165-7.337.275-10.878.298-2.409-.676-4.799-2.573-6.311l-13.099-10.448 6.594-14.819 16.551 2.74c2.382.398 4.808-.475 6.397-2.298 2.362-2.711 5.023-5.234 7.907-7.501 1.899-1.492 2.89-3.86 2.622-6.259l-1.863-16.656 15.141-5.812 9.736 13.631c1.409 1.974 3.75 3.063 6.161 2.904 3.557-.251 7.241-.155 10.951.281 2.397.286 4.767-.697 6.27-2.584l10.42-13.093 14.833 6.593-2.76 16.542c-.401 2.4.479 4.836 2.32 6.426 2.646 2.286 5.162 4.939 7.478 7.886 1.491 1.9 3.86 2.895 6.258 2.623l16.686-1.864 5.811 15.141-13.631 9.737c-1.974 1.409-3.073 3.743-2.904 6.163.251 3.585.15 7.254-.303 10.903-.299 2.412.679 4.807 2.583 6.319l13.112 10.417zm-51.269-72.871c-9.164-4.093-19.375-4.369-28.752-.778-9.385 3.597-16.804 10.634-20.885 19.807-4.097 9.166-4.375 19.378-.782 28.755 3.597 9.386 10.634 16.805 19.817 20.892 4.957 2.207 10.141 3.251 15.247 3.251 14.403-.001 28.171-8.314 34.392-22.291 8.429-18.943-.11-41.21-19.037-49.636zm6.292 43.965c-5.299 11.905-19.305 17.275-31.224 11.969-5.775-2.57-10.2-7.236-12.463-13.139-2.258-5.894-2.084-12.313.495-18.084 2.57-5.775 7.235-10.2 13.138-12.463 2.745-1.052 5.604-1.576 8.457-1.576 3.273 0 6.54.69 9.619 2.066.003.001.006.002.009.004 11.904 5.298 17.274 19.305 11.969 31.223zm8.197 261.037v57.519c0 3.852-3.122 6.974-6.974 6.974s-6.974-3.122-6.974-6.974v-57.519c0-3.852 3.122-6.974 6.974-6.974s6.974 3.122 6.974 6.974z"/></svg>