<svg fill="none" height="512" viewBox="0 0 128 129" width="512" xmlns="http://www.w3.org/2000/svg"><g clip-rule="evenodd" fill="rgb(0,0,0)" fill-rule="evenodd"><path d="m7.73645 12.8125c0-1.1046.89543-2 2-2h12.71335c1.1046 0 2 .8954 2 2v3.2383h79.1932v-3.2383c0-1.1046.896-2 2-2h12.714c1.104 0 2 .8954 2 2v52.4766c0 1.1045-.896 2-2 2h-12.714c-1.104 0-2-.8955-2-2v-3.2383h-79.1932v3.2383c0 1.1045-.8954 2-2 2h-12.71335c-1.10457 0-2-.8955-2-2zm95.90655 45.2383v-38h-79.1932v38h38.4683v-4.8481l-6.0639-5.3901h-3.5676c-1.1045 0-2-.8954-2-2s.8955-2 2-2h3.2399l4.52-6.9857-4.9062-5.3524c-.7464-.8143-.6914-2.0794.1229-2.8258.8142-.7464 2.0794-.6913 2.8257.1229l5.0335 5.4913 10.0922-3.8442c1.0322-.3932 2.1877.1248 2.5809 1.1571.3932 1.0322-.1249 2.1877-1.1571 2.5809l-10.7493 4.0945-4.663 7.2069 6.0207 5.3516c.427.3796.6713.9236.6713 1.4949v5.7462zm-91.9065-43.2383v48.4766h8.7133v-48.4766zm95.9065 48.4766v-48.4766h8.714v48.4766z"/><path d="m64.377 67.2129c-.6638 0-1.3815.4593-1.6564.8792-.275.42-.7993 1.2207-1.1366 1.7582-.6735 1.0733-1.5741 2.5605-2.4775 4.2092-.9001 1.643-1.8213 3.4795-2.5225 5.2463-.681 1.7158-1.24 3.5717-1.24 5.1856 0 4.9888 4.0442 9.033 9.033 9.033s9.033-4.0442 9.033-9.033c0-1.6139-.5589-3.4698-1.2399-5.1856-.7012-1.7668-1.6224-3.6033-2.5226-5.2463-.9034-1.6487-1.804-3.1359-2.4775-4.2092-.3373-.5375-.8445-1.3121-1.1357-1.757-.2913-.4449-.9934-.8804-1.6573-.8804zm0 5.7263c.5362.8804 1.1501 1.9245 1.7625 3.0424.8581 1.5661 1.6952 3.2439 2.3127 4.7998.6377 1.6067.9578 2.8817.9578 3.71 0 2.7796-2.2533 5.033-5.033 5.033-2.7796 0-5.033-2.2534-5.033-5.033 0-.8283.3201-2.1033.9578-3.71.6175-1.5559 1.4546-3.2337 2.3127-4.7998.6125-1.1179 1.2263-2.162 1.7625-3.0424z"/><path d="m48.1458 90.8125c-.9124 0-1.6564.8792-1.6564.8792-.1647.2516-.6642 1.0144-.9437 1.4598-.5578.8889-1.3041 2.1212-2.0532 3.4884-.7458 1.3613-1.5127 2.8894-2.0982 4.3651-.5653 1.424-1.0471 3.005-1.0471 4.404 0 4.308 3.4916 7.799 7.7986 7.799 4.3071 0 7.7987-3.491 7.7987-7.799 0-1.399-.4818-2.98-1.0471-4.404-.5855-1.4757-1.3524-3.0038-2.0982-4.3651-.7491-1.3672-1.4955-2.5995-2.0532-3.4884-.2795-.4454-.7783-1.2071-.943-1.4587 0 0-.7447-.8803-1.6572-.8803zm0 5.7518c-.3621.6061-.7541 1.2836-1.1453 1.9976-.7038 1.2845-1.3866 2.6541-1.8883 3.9181-.522 1.315-.765 2.315-.765 2.929 0 2.098 1.7007 3.799 3.7986 3.799 2.098 0 3.7987-1.701 3.7987-3.799 0-.614-.243-1.614-.765-2.929-.5017-1.264-1.1845-2.6336-1.8883-3.9181-.3912-.714-.7832-1.3915-1.1454-1.9976z"/><path d="m79.1913 90.8125c1.0449 0 1.6636.89 1.6636.89.2063.315.8233 1.2577 1.1741 1.8166.7003 1.116 1.6366 2.6622 2.5758 4.3763.9359 1.7081 1.8928 3.6166 2.6209 5.4506.7078 1.783 1.2846 3.703 1.2846 5.366 0 5.147-4.1723 9.319-9.319 9.319-5.1468 0-9.3191-4.172-9.3191-9.319 0-1.663.5768-3.583 1.2847-5.366.728-1.834 1.6849-3.7425 2.6208-5.4506.9392-1.7141 1.8755-3.2603 2.5759-4.3763.3507-.5589.9677-1.5016 1.174-1.8166 0 0 .6187-.89 1.6637-.89zm-1.9056 9.0049c.6647-1.2132 1.331-2.3429 1.9056-3.2833.5746.9404 1.2408 2.0701 1.9055 3.2833.8939 1.6316 1.7667 3.3806 2.411 5.0036.6645 1.675 1.0025 3.013 1.0025 3.891 0 2.938-2.3814 5.319-5.319 5.319-2.9377 0-5.3191-2.381-5.3191-5.319 0-.878.338-2.216 1.0025-3.891.6443-1.623 1.5172-3.372 2.411-5.0036z"/></g></svg>