<?xml version="1.0" encoding="UTF-8" standalone="no"?>
<!-- Created with Inkscape (http://www.inkscape.org/) -->

<svg
   version="1.1"
   id="svg2007"
   xml:space="preserve"
   width="682.66669"
   height="682.66669"
   viewBox="0 0 682.66669 682.66669"
   xmlns="http://www.w3.org/2000/svg"
   xmlns:svg="http://www.w3.org/2000/svg"><defs
     id="defs2011"><clipPath
       clipPathUnits="userSpaceOnUse"
       id="clipPath2025"><path
         d="M 0,512 H 512 V 0 H 0 Z"
         id="path2023" /></clipPath></defs><g
     id="g2013"
     transform="matrix(1.3333333,0,0,-1.3333333,0,682.66667)"><g
       id="g2015"
       transform="translate(446.4077,460)"><path
         d="M 0,0 H -59.444 L -90.658,-31.213 V -60.5"
         style="fill:none;stroke:#000000;stroke-width:15;stroke-linecap:round;stroke-linejoin:round;stroke-miterlimit:10;stroke-dasharray:none;stroke-opacity:1"
         id="path2017" /></g><g
       id="g2019"><g
         id="g2021"
         clip-path="url(#clipPath2025)"><g
           id="g2027"
           transform="translate(325.75,398.5)"><path
             d="m 0,0 v 36.5 c 0,3.978 1.581,7.793 4.394,10.606 l 40,40 C 47.207,89.919 51.022,91.5 55,91.5 h 65.658"
             style="fill:none;stroke:#000000;stroke-width:15;stroke-linecap:round;stroke-linejoin:round;stroke-miterlimit:10;stroke-dasharray:none;stroke-opacity:1"
             id="path2029" /></g><g
           id="g2031"
           transform="translate(446.0796,52)"><path
             d="M 0,0 H -59.116 L -90.33,31.213 v 30.608"
             style="fill:none;stroke:#000000;stroke-width:15;stroke-linecap:round;stroke-linejoin:round;stroke-miterlimit:10;stroke-dasharray:none;stroke-opacity:1"
             id="path2033" /></g><g
           id="g2035"
           transform="translate(325.75,114.1494)"><path
             d="m 0,0 v -37.149 c 0,-3.978 1.581,-7.794 4.394,-10.607 l 40,-40 c 2.813,-2.813 6.628,-4.393 10.606,-4.393 h 65.33"
             style="fill:none;stroke:#000000;stroke-width:15;stroke-linecap:round;stroke-linejoin:round;stroke-miterlimit:10;stroke-dasharray:none;stroke-opacity:1"
             id="path2037" /></g><g
           id="g2039"
           transform="translate(446.4077,354.5)"><path
             d="M 0,0 H -76.873"
             style="fill:none;stroke:#000000;stroke-width:15;stroke-linecap:round;stroke-linejoin:round;stroke-miterlimit:10;stroke-dasharray:none;stroke-opacity:1"
             id="path2041" /></g><g
           id="g2043"
           transform="translate(369.0776,384.5)"><path
             d="M 0,0 H 75.172"
             style="fill:none;stroke:#000000;stroke-width:15;stroke-linecap:round;stroke-linejoin:round;stroke-miterlimit:10;stroke-dasharray:none;stroke-opacity:1"
             id="path2045" /></g><g
           id="g2047"
           transform="translate(446.0796,127.5)"><path
             d="M 0,0 H -77.081"
             style="fill:none;stroke:#000000;stroke-width:15;stroke-linecap:round;stroke-linejoin:round;stroke-miterlimit:10;stroke-dasharray:none;stroke-opacity:1"
             id="path2049" /></g><g
           id="g2051"
           transform="translate(369.3271,157.5)"><path
             d="M 0,0 H 74.923"
             style="fill:none;stroke:#000000;stroke-width:15;stroke-linecap:round;stroke-linejoin:round;stroke-miterlimit:10;stroke-dasharray:none;stroke-opacity:1"
             id="path2053" /></g><g
           id="g2055"
           transform="translate(311.728,156.7939)"><path
             d="M 0,0 -31.1,41.344"
             style="fill:none;stroke:#000000;stroke-width:15;stroke-linecap:round;stroke-linejoin:round;stroke-miterlimit:10;stroke-dasharray:none;stroke-opacity:1"
             id="path2057" /></g><g
           id="g2059"
           transform="translate(303.5459,217.5771)"><path
             d="M 0,0 33.8,-44.934"
             style="fill:none;stroke:#000000;stroke-width:15;stroke-linecap:round;stroke-linejoin:round;stroke-miterlimit:10;stroke-dasharray:none;stroke-opacity:1"
             id="path2061" /></g><g
           id="g2063"
           transform="translate(337.3457,339.1689)"><path
             d="M 0,0 -33.8,-45.331"
             style="fill:none;stroke:#000000;stroke-width:15;stroke-linecap:round;stroke-linejoin:round;stroke-miterlimit:10;stroke-dasharray:none;stroke-opacity:1"
             id="path2065" /></g><g
           id="g2067"
           transform="translate(280.6138,313.2705)"><path
             d="M 0,0 31.114,41.729"
             style="fill:none;stroke:#000000;stroke-width:15;stroke-linecap:round;stroke-linejoin:round;stroke-miterlimit:10;stroke-dasharray:none;stroke-opacity:1"
             id="path2069" /></g><g
           id="g2071"
           transform="translate(311.25,369.5)"><path
             d="M 0,0 C 0,16.568 13.432,30 30,30 46.568,30 60,16.568 60,0 60,-16.568 46.568,-30 30,-30 13.432,-30 0,-16.568 0,0 Z"
             style="fill:none;stroke:#000000;stroke-width:15;stroke-linecap:round;stroke-linejoin:round;stroke-miterlimit:10;stroke-dasharray:none;stroke-opacity:1"
             id="path2073" /></g><g
           id="g2075"
           transform="translate(311.25,142.5)"><path
             d="M 0,0 C 0,16.568 13.432,30 30,30 46.568,30 60,16.568 60,0 60,-16.568 46.568,-30 30,-30 13.432,-30 0,-16.568 0,0 Z"
             style="fill:none;stroke:#000000;stroke-width:15;stroke-linecap:round;stroke-linejoin:round;stroke-miterlimit:10;stroke-dasharray:none;stroke-opacity:1"
             id="path2077" /></g><g
           id="g2079"
           transform="translate(282.6284,430.0107)"><path
             d="m 0,0 -24.49,-63.333 c -1.406,-3.639 -4.802,-6.133 -8.696,-6.366 -54.501,-3.26 -97.692,-48.492 -97.692,-103.812 0,-55.313 43.181,-100.54 97.672,-103.81 3.904,-0.235 7.306,-2.74 8.706,-6.391 l 44.746,-116.65 c 0.613,-1.598 0.818,-3.33 0.567,-5.023 -1.438,-9.69 -9.792,-17.126 -19.881,-17.126 h -10.81 m -35,0 h -9.81 c -11.102,0 -20.101,8.999 -20.101,20.1 v 21.65 c 0,8.66 -5.549,16.35 -13.77,19.07 -9.149,3.03 -18.009,6.711 -26.52,10.99 -7.75,3.9 -17.119,2.41 -23.25,-3.72 l -15.319,-15.32 c -7.851,-7.85 -20.581,-7.85 -28.431,0 l -40.04,40.03 c -7.839,7.85 -7.839,20.58 0,28.43 l 15.33,15.32 c 6.13,6.13 7.621,15.5 3.721,23.25 -4.28,8.51 -7.96,17.37 -10.991,26.52 -2.719,8.22 -10.409,13.77 -19.069,13.77 h -21.65 c -11.101,0 -20.1,8.999 -20.1,20.1 v 56.62 c 0,11.101 8.999,20.1 20.1,20.1 h 21.65 c 8.66,0 16.35,5.55 19.069,13.77 3.031,9.15 6.711,18.01 10.991,26.52 3.9,7.75 2.409,17.12 -3.721,23.25 l -15.33,15.32 c -7.839,7.85 -7.839,20.58 0,28.43 l 40.04,40.04 c 7.85,7.84 20.58,7.84 28.431,0 l 15.319,-15.33 c 6.131,-6.129 15.5,-7.62 23.25,-3.72 8.511,4.28 17.371,7.96 26.52,10.99 8.221,2.72 13.77,10.41 13.77,19.07 v 21.65 c 0,11.101 8.999,20.1 20.101,20.1 h 55.62 c 10.085,0 18.437,-7.429 19.879,-17.114 0.254,-1.701 0.044,-3.442 -0.577,-5.047 L 12.631,32.665"
             style="fill:none;stroke:#000000;stroke-width:15;stroke-linecap:round;stroke-linejoin:round;stroke-miterlimit:10;stroke-dasharray:none;stroke-opacity:1"
             id="path2081" /></g><g
           id="g2083"
           transform="translate(163.1079,139.2944)"><path
             d="m 0,0 c 25.434,-20.217 57.627,-32.294 92.642,-32.294 5.143,0 10.226,0.26 15.234,0.769"
             style="fill:none;stroke:#000000;stroke-width:15;stroke-linecap:round;stroke-linejoin:round;stroke-miterlimit:10;stroke-dasharray:none;stroke-opacity:1"
             id="path2085" /></g><g
           id="g2087"
           transform="translate(268.71,404.4443)"><path
             d="m 0,0 c -4.271,0.368 -8.594,0.556 -12.96,0.556 -82.29,0 -149,-66.71 -149,-149 0,-34.634 11.816,-66.508 31.637,-91.809"
             style="fill:none;stroke:#000000;stroke-width:15;stroke-linecap:round;stroke-linejoin:round;stroke-miterlimit:10;stroke-dasharray:none;stroke-opacity:1"
             id="path2089" /></g><g
           id="g2091"
           transform="translate(195.75,256)"><path
             d="M 0,0 C 0,33.137 26.863,60 60,60 93.137,60 120,33.137 120,0 120,-33.137 93.137,-60 60,-60 26.863,-60 0,-33.137 0,0 Z"
             style="fill:none;stroke:#000000;stroke-width:15;stroke-linecap:round;stroke-linejoin:round;stroke-miterlimit:10;stroke-dasharray:none;stroke-opacity:1"
             id="path2093" /></g><g
           id="g2095"
           transform="translate(444.25,256)"><path
             d="M 0,0 C 0,16.568 13.432,30 30,30 46.568,30 60,16.568 60,0 60,-16.568 46.568,-30 30,-30 13.432,-30 0,-16.568 0,0 Z"
             style="fill:none;stroke:#000000;stroke-width:15;stroke-linecap:round;stroke-linejoin:round;stroke-miterlimit:10;stroke-dasharray:none;stroke-opacity:1"
             id="path2097" /></g><g
           id="g2099"
           transform="translate(444.25,369.5)"><path
             d="M 0,0 C 0,16.568 13.432,30 30,30 46.568,30 60,16.568 60,0 60,-16.568 46.568,-30 30,-30 13.432,-30 0,-16.568 0,0 Z"
             style="fill:none;stroke:#000000;stroke-width:15;stroke-linecap:round;stroke-linejoin:round;stroke-miterlimit:10;stroke-dasharray:none;stroke-opacity:1"
             id="path2101" /></g><g
           id="g2103"
           transform="translate(444.25,474.5)"><path
             d="M 0,0 C 0,16.568 13.432,30 30,30 46.568,30 60,16.568 60,0 60,-16.568 46.568,-30 30,-30 13.432,-30 0,-16.568 0,0 Z"
             style="fill:none;stroke:#000000;stroke-width:15;stroke-linecap:round;stroke-linejoin:round;stroke-miterlimit:10;stroke-dasharray:none;stroke-opacity:1"
             id="path2105" /></g><g
           id="g2107"
           transform="translate(444.25,142.5)"><path
             d="M 0,0 C 0,16.568 13.432,30 30,30 46.568,30 60,16.568 60,0 60,-16.568 46.568,-30 30,-30 13.432,-30 0,-16.568 0,0 Z"
             style="fill:none;stroke:#000000;stroke-width:15;stroke-linecap:round;stroke-linejoin:round;stroke-miterlimit:10;stroke-dasharray:none;stroke-opacity:1"
             id="path2109" /></g><g
           id="g2111"
           transform="translate(444.25,37.5)"><path
             d="M 0,0 C 0,16.568 13.432,30 30,30 46.568,30 60,16.568 60,0 60,-16.568 46.568,-30 30,-30 13.432,-30 0,-16.568 0,0 Z"
             style="fill:none;stroke:#000000;stroke-width:15;stroke-linecap:round;stroke-linejoin:round;stroke-miterlimit:10;stroke-dasharray:none;stroke-opacity:1"
             id="path2113" /></g><g
           id="g2115"
           transform="translate(311.25,369.5)"><path
             d="M 0,0 C 0,16.568 13.432,30 30,30 46.568,30 60,16.568 60,0 60,-16.568 46.568,-30 30,-30 13.432,-30 0,-16.568 0,0 Z"
             style="fill:none;stroke:#000000;stroke-width:15;stroke-linecap:round;stroke-linejoin:round;stroke-miterlimit:10;stroke-dasharray:none;stroke-opacity:1"
             id="path2117" /></g><g
           id="g2119"
           transform="translate(311.25,142.5)"><path
             d="M 0,0 C 0,16.568 13.432,30 30,30 46.568,30 60,16.568 60,0 60,-16.568 46.568,-30 30,-30 13.432,-30 0,-16.568 0,0 Z"
             style="fill:none;stroke:#000000;stroke-width:15;stroke-linecap:round;stroke-linejoin:round;stroke-miterlimit:10;stroke-dasharray:none;stroke-opacity:1"
             id="path2121" /></g><g
           id="g2123"
           transform="translate(315.75,271)"><path
             d="M 0,0 H 49"
             style="fill:none;stroke:#000000;stroke-width:15;stroke-linecap:round;stroke-linejoin:round;stroke-miterlimit:10;stroke-dasharray:none;stroke-opacity:1"
             id="path2125" /></g><g
           id="g2127"
           transform="translate(444.25,241)"><path
             d="M 0,0 H -128.5"
             style="fill:none;stroke:#000000;stroke-width:15;stroke-linecap:round;stroke-linejoin:round;stroke-miterlimit:10;stroke-dasharray:none;stroke-opacity:1"
             id="path2129" /></g><g
           id="g2131"
           transform="translate(400.7173,271)"><path
             d="M 0,0 H 43.533"
             style="fill:none;stroke:#000000;stroke-width:15;stroke-linecap:round;stroke-linejoin:round;stroke-miterlimit:10;stroke-dasharray:none;stroke-opacity:1"
             id="path2133" /></g><g
           id="g2135"
           transform="translate(195.75,256)"><path
             d="M 0,0 C 0,33.137 26.863,60 60,60 93.137,60 120,33.137 120,0 120,-33.137 93.137,-60 60,-60 26.863,-60 0,-33.137 0,0 Z"
             style="fill:none;stroke:#000000;stroke-width:15;stroke-linecap:round;stroke-linejoin:round;stroke-miterlimit:10;stroke-dasharray:none;stroke-opacity:1"
             id="path2137" /></g><g
           id="g2139"
           transform="translate(444.25,256)"><path
             d="M 0,0 C 0,16.568 13.432,30 30,30 46.568,30 60,16.568 60,0 60,-16.568 46.568,-30 30,-30 13.432,-30 0,-16.568 0,0 Z"
             style="fill:none;stroke:#000000;stroke-width:15;stroke-linecap:round;stroke-linejoin:round;stroke-miterlimit:10;stroke-dasharray:none;stroke-opacity:1"
             id="path2141" /></g><g
           id="g2143"
           transform="translate(444.25,369.5)"><path
             d="M 0,0 C 0,16.568 13.432,30 30,30 46.568,30 60,16.568 60,0 60,-16.568 46.568,-30 30,-30 13.432,-30 0,-16.568 0,0 Z"
             style="fill:none;stroke:#000000;stroke-width:15;stroke-linecap:round;stroke-linejoin:round;stroke-miterlimit:10;stroke-dasharray:none;stroke-opacity:1"
             id="path2145" /></g><g
           id="g2147"
           transform="translate(444.25,474.5)"><path
             d="M 0,0 C 0,16.568 13.432,30 30,30 46.568,30 60,16.568 60,0 60,-16.568 46.568,-30 30,-30 13.432,-30 0,-16.568 0,0 Z"
             style="fill:none;stroke:#000000;stroke-width:15;stroke-linecap:round;stroke-linejoin:round;stroke-miterlimit:10;stroke-dasharray:none;stroke-opacity:1"
             id="path2149" /></g><g
           id="g2151"
           transform="translate(444.25,142.5)"><path
             d="M 0,0 C 0,16.568 13.432,30 30,30 46.568,30 60,16.568 60,0 60,-16.568 46.568,-30 30,-30 13.432,-30 0,-16.568 0,0 Z"
             style="fill:none;stroke:#000000;stroke-width:15;stroke-linecap:round;stroke-linejoin:round;stroke-miterlimit:10;stroke-dasharray:none;stroke-opacity:1"
             id="path2153" /></g><g
           id="g2155"
           transform="translate(444.25,37.5)"><path
             d="M 0,0 C 0,16.568 13.432,30 30,30 46.568,30 60,16.568 60,0 60,-16.568 46.568,-30 30,-30 13.432,-30 0,-16.568 0,0 Z"
             style="fill:none;stroke:#000000;stroke-width:15;stroke-linecap:round;stroke-linejoin:round;stroke-miterlimit:10;stroke-dasharray:none;stroke-opacity:1"
             id="path2157" /></g></g></g></g></svg>
