<svg clip-rule="evenodd" fill-rule="evenodd" stroke-linejoin="round" stroke-miterlimit="2" viewBox="0 0 510 510" xmlns="http://www.w3.org/2000/svg"><path d="m183.693 349.379c-4.085-1.943-8.092-4.053-12.014-6.324l-26.157 11.586c-3.023 1.34-6.559.681-8.897-1.657l-35.262-35.262c-2.341-2.341-2.998-5.882-1.653-8.907 0 0 11.621-26.137 11.622-26.137-7.409-12.716-13.065-26.395-16.873-40.632l-26.68-10.268c-3.088-1.189-5.126-4.157-5.126-7.466v-49.879c0-3.31 2.038-6.278 5.126-7.467 0 0 26.677-10.267 26.677-10.266 3.808-14.274 9.466-27.927 16.878-40.678l-11.624-26.143c-1.345-3.025-.688-6.566 1.653-8.907l35.262-35.262c2.341-2.341 5.882-2.998 8.907-1.653 0 0 26.143 11.624 26.143 11.624 12.75-7.411 26.399-13.066 40.635-16.838l10.312-26.723c1.19-3.085 4.157-5.12 7.464-5.12h49.879c3.311 0 6.28 2.04 7.467 5.131 0 0 10.265 26.714 10.264 26.714 14.234 3.772 27.881 9.426 40.629 16.836l26.143-11.624c3.025-1.345 6.566-.688 8.907 1.653l35.262 35.262c2.338 2.338 2.997 5.874 1.657 8.897 0 0-11.581 26.147-11.582 26.147 7.415 12.754 13.071 26.411 16.844 40.688l26.665 10.262c3.088 1.189 5.126 4.157 5.126 7.467v49.879c0 3.309-2.038 6.277-5.126 7.466 0 0-26.669 10.264-26.669 10.263-3.778 14.233-9.464 27.88-16.844 40.627l11.586 26.157c1.34 3.023.681 6.559-1.657 8.897l-35.262 35.262c-2.338 2.338-5.874 2.997-8.897 1.657 0 0-26.141-11.579-26.141-11.579-3.919 2.284-7.931 4.401-12.021 6.347l4.397 13.837h19.726c10.735 0 19.517 8.781 19.517 19.517 0 10.735-8.782 19.518-19.517 19.518h-7.32l6.954 21.879c.37 1.163.469 2.395.289 3.601l-8.819 59.239h79.735c4.415 0 8 3.585 8 8s-3.585 8-8 8h-333.844c-4.415 0-8-3.585-8-8s3.585-8 8-8h81.022l-8.819-59.239c-.18-1.206-.081-2.438.288-3.601l6.954-21.879h-7.319c-10.735 0-19.516-8.783-19.516-19.518 0-10.736 8.781-19.517 19.516-19.517h19.725zm137.726-15.377c4.151-2.051 8.208-4.3 12.154-6.74 2.246-1.389 5.033-1.58 7.447-.511 0 0 24.921 11.039 24.921 11.039l27.502-27.502-11.039-24.921c-1.064-2.404-.88-5.177.493-7.419 8.299-13.544 14.454-28.28 18.126-43.732.611-2.567 2.448-4.669 4.91-5.616l25.414-9.781v-38.893l-25.414-9.781c-2.464-.949-4.302-3.052-4.911-5.622-3.67-15.492-9.772-30.222-18.114-43.76-1.383-2.244-1.571-5.026-.504-7.436 0 0 11.039-24.921 11.039-24.921l-27.496-27.496-24.916 11.078c-2.413 1.073-5.2.886-7.447-.499-13.539-8.342-28.269-14.445-43.715-18.115-2.569-.611-4.671-2.449-5.618-4.914 0 0-9.783-25.46-9.783-25.46h-38.895l-9.828 25.471c-.949 2.459-3.049 4.293-5.614 4.903-15.446 3.67-30.176 9.773-43.715 18.115-2.247 1.385-5.034 1.572-7.447.499 0 0-24.916-11.078-24.916-11.078l-27.49 27.49 11.078 24.916c1.073 2.413.886 5.2-.499 7.447-8.346 13.545-14.45 28.283-18.17 43.783-.614 2.559-2.448 4.653-4.905 5.599l-25.414 9.781v38.893l25.414 9.781c2.455.944 4.288 3.036 4.904 5.593 3.719 15.45 9.82 30.233 18.164 43.727 1.391 2.249 1.581 5.041.506 7.458l-11.078 24.916 27.496 27.496 24.921-11.039c2.404-1.064 5.177-.88 7.419.494 3.965 2.429 8.032 4.674 12.19 6.728l8.119-25.547c-38.884-20.835-65.318-61.874-65.318-109.087 0-68.295 55.307-123.602 123.602-123.602 68.293 0 123.668 55.308 123.668 123.602 0 47.212-26.466 88.252-65.37 109.087zm-7.494 29.244-33.56-105.591c-4.2 2.274-8.741 4.001-13.525 5.085l31.944 100.506zm-20.072-115.976 14.495 45.606c32.443-18.55 54.312-53.493 54.312-93.537 0-59.456-48.213-107.602-107.668-107.602s-107.602 48.147-107.602 107.602c0 40.043 21.838 74.985 54.261 93.537l14.495-45.607c-8.99-9.549-14.498-22.413-14.498-36.563 0-21.831 13.115-40.597 31.892-48.857v-13.376c0-11.802 9.657-21.458 21.46-21.458 11.802 0 21.459 9.656 21.459 21.458l-.001 13.376c18.78 8.26 31.893 27.026 31.893 48.857 0 14.151-5.508 27.014-14.498 36.564zm32.478 155.011h-15.141l18.244 57.402 4.83-32.444zm-31.93 0h-78.803l-26.926 84.719h132.656zm-95.592 0h-15.141l-7.933 24.958 4.83 32.444zm-2.735-39.035h15.141l31.944-100.506c-4.785-1.084-9.325-2.811-13.526-5.085zm31.93 0h53.991l-26.996-84.938zm32.455-195.861v-18.912c0-3.002-2.457-5.459-5.459-5.459-3.003 0-5.46 2.457-5.46 5.459v18.912c0 3.505-2.281 6.602-5.628 7.641-15.216 4.722-26.264 18.911-26.264 35.68 0 20.63 16.722 37.353 37.352 37.353 20.629 0 37.352-16.723 37.352-37.353 0-16.768-11.047-30.958-26.265-35.68-3.347-1.039-5.628-4.136-5.628-7.641zm-5.459 15.241c15.508 0 28.08 12.572 28.08 28.08 0 15.51-12.572 28.08-28.08 28.08s-28.08-12.57-28.08-28.08c0-15.508 12.572-28.08 28.08-28.08zm0 16c-6.672 0-12.08 5.409-12.08 12.08 0 6.673 5.408 12.081 12.08 12.081s12.08-5.408 12.08-12.081c0-6.671-5.408-12.08-12.08-12.08zm-95.44 180.62c-1.934 0-3.516 1.583-3.516 3.517 0 1.935 1.582 3.518 3.516 3.518h190.879c1.934 0 3.517-1.583 3.517-3.518 0-1.934-1.583-3.517-3.517-3.517z"/></svg>