<svg id="Layer_1" enable-background="new 0 0 512 512" viewBox="0 0 512 512" xmlns="http://www.w3.org/2000/svg"><path d="m496.3 398.12-100.43-189.86v-97.19c0-3.31-2.69-6-6-6h-69.83c-3.31 0-6 2.69-6 6v26.22h-25.32-66-66c-2.23 0-4.27 1.23-5.31 3.2l-33.93 64.41-33.93 64.41-33.93 64.41-33.93 64.4c-1.44 2.73-.57 6.11 2.01 7.81 1.01.67 2.16.99 3.29.99 1.76 0 3.5-.77 4.68-2.23 8.25-10.23 17.99-15.66 28.17-15.68 10.07-.04 20.23 5.55 28.5 15.71l.02-.01c.38.47.81.89 1.34 1.24 1.01.67 2.16.99 3.29.99 1.76 0 3.5-.77 4.68-2.23 8.25-10.23 17.99-15.66 28.17-15.68 10.13-.04 20.24 5.55 28.5 15.71l.02-.01c.38.47.81.89 1.34 1.24 1.01.67 2.16.99 3.29.99 1.76 0 3.5-.77 4.68-2.23 8.25-10.23 17.99-15.66 28.17-15.68h.07c9.45 0 18.9 4.89 26.84 13.83.14.41.31.81.54 1.18 1.09 1.8 3.04 2.9 5.14 2.9h272.57c2.1 0 4.05-1.1 5.14-2.9 1.09-1.84 1.15-4.08.16-5.94zm-170.27-281.05h57.83v68.5l-23.85-45.09c-1.04-1.96-3.08-3.19-5.3-3.19 0 0 0 0-.01 0h-28.67zm-33.7 32.23h52.42l-25.42 48.06c-9.41-8.81-20.39-13.57-31.63-13.57-.03 0-.07 0-.1 0-5.09.01-10.12 1-14.97 2.91zm-41.05 176.69c-9.36-8.69-20.28-13.39-31.44-13.39-.03 0-.07 0-.1 0-5.09.01-10.12 1-14.97 2.91l21.09-40.03c8.18-9.97 17.79-15.25 27.84-15.28h.07c8.99 0 17.98 4.44 25.67 12.57zm-65.72.26c-9.43-8.86-20.44-13.65-31.71-13.65-.03 0-.07 0-.1 0-5.09.01-10.12 1-14.97 2.91l21.09-40.03c8.18-9.97 17.79-15.25 27.84-15.28h.07c9.06 0 18.13 4.51 25.86 12.77zm8.24-115.19c8.18-9.97 17.79-15.25 27.83-15.28h.07c9.06 0 18.13 4.51 25.86 12.77l-28.07 53.29c-9.43-8.86-20.44-13.65-31.71-13.65-.03 0-.07 0-.1 0-5.09.01-10.12 1-14.97 2.91zm91.51 50.61c-9.39-8.75-20.34-13.47-31.54-13.47-.03 0-.07 0-.1 0-5.09.01-10.12 1-14.97 2.91l21.09-40.04c8.18-9.97 17.79-15.25 27.83-15.28h.07c9.03 0 18.05 4.47 25.76 12.66zm-58.98-112.37h52.44l-25.36 48.14c-9.43-8.86-20.44-13.65-31.71-13.65-.03 0-.07 0-.1 0-5.09.01-10.12 1-14.97 2.91zm-66 0h52.44l-25.36 48.14c-9.43-8.86-20.44-13.65-31.71-13.65-.03 0-.07 0-.1 0-5.09.01-10.12 1-14.97 2.91zm-32.53 61.76c8.18-9.97 17.79-15.25 27.83-15.28h.07c9.06 0 18.13 4.51 25.86 12.77l-28.07 53.29c-9.43-8.86-20.44-13.65-31.71-13.65-.03 0-.07 0-.1 0-5.09.01-10.12 1-14.97 2.91zm-33.93 64.41c8.18-9.97 17.79-15.25 27.83-15.28h.07c9.06 0 18.13 4.51 25.86 12.77l-28.07 53.29c-9.43-8.86-20.44-13.65-31.71-13.65-.03 0-.07 0-.1 0-5.09.01-10.12 1-14.97 2.91zm-8.24 115.19c-9.43-8.86-20.44-13.65-31.71-13.65-.03 0-.07 0-.1 0-5.09.01-10.12 1-14.97 2.91l21.09-40.04c8.18-9.97 17.79-15.25 27.83-15.28h.07c9.06 0 18.13 4.51 25.86 12.77zm66 0c-9.43-8.86-20.44-13.65-31.71-13.65-.03 0-.07 0-.1 0-5.09.01-10.12 1-14.97 2.91l21.09-40.04c8.18-9.97 17.79-15.25 27.83-15.28h.07c9.06 0 18.13 4.51 25.86 12.77zm34.29-13.65c-.03 0-.07 0-.1 0-5.09.01-10.12 1-14.97 2.91l21.09-40.04c8.18-9.97 17.79-15.25 27.83-15.28h.07c8.95 0 17.91 4.4 25.58 12.47l-28.16 53.24c-9.35-8.63-20.22-13.3-31.34-13.3zm72.09 17.92 96.71-182.25 96.71 182.25zm207 0-105-197.87c-1.04-1.96-3.08-3.19-5.3-3.19s-4.26 1.23-5.3 3.19l-104.99 197.87h-16.03l126.32-238.8 126.32 238.8z"/></svg>