<svg version="1.1" id="Layer_1" xmlns="http://www.w3.org/2000/svg" xmlns:xlink="http://www.w3.org/1999/xlink" x="0px" y="0px" viewBox="0 0 511.941 511.941" style="enable-background:new 0 0 511.941 511.941;" xml:space="preserve">
<g>
	
		<line style="fill:none;stroke:#000000;stroke-width:15;stroke-linecap:round;stroke-linejoin:round;stroke-miterlimit:10;" x1="331.261" y1="66.731" x2="331.261" y2="38.621"/>
	
		<line style="fill:none;stroke:#000000;stroke-width:15;stroke-linecap:round;stroke-linejoin:round;stroke-miterlimit:10;" x1="406.561" y1="66.731" x2="406.561" y2="38.621"/>
	<path style="fill:none;stroke:#000000;stroke-width:15;stroke-linecap:round;stroke-linejoin:round;stroke-miterlimit:10;" d="&#10;&#9;&#9;M406.618,37.618h-75.412c-8.284,0-15-6.716-15-15c0-8.601,6.868-15.118,15-15.118h75.412c8.284,0,15,6.716,15,15&#10;&#9;&#9;C421.618,31.101,414.749,37.618,406.618,37.618z"/>
	<path style="fill:none;stroke:#000000;stroke-width:15;stroke-linecap:round;stroke-linejoin:round;stroke-miterlimit:10;" d="&#10;&#9;&#9;M474.441,504.441H37.5c-16.569,0-30-13.431-30-30V97.735c0-16.569,13.431-30,30-30h436.941c16.569,0,30,13.431,30,30v376.706&#10;&#9;&#9;C504.441,491.01,491.01,504.441,474.441,504.441z"/>
	<path style="fill:none;stroke:#000000;stroke-width:15;stroke-linecap:round;stroke-linejoin:round;stroke-miterlimit:10;" d="&#10;&#9;&#9;M8.501,345.881c6.57-2.73,47.31-17.25,178.26-21.17"/>
	<path style="fill:none;stroke:#000000;stroke-width:15;stroke-linecap:round;stroke-linejoin:round;stroke-miterlimit:10;" d="&#10;&#9;&#9;M445.651,333.481c38.44,5.18,53.97,10.81,57.79,12.4"/>
	
		<line style="fill:none;stroke:#000000;stroke-width:15;stroke-linecap:round;stroke-linejoin:round;stroke-miterlimit:10;" x1="428.151" y1="97.851" x2="386.541" y2="97.851"/>
	
		<line style="fill:none;stroke:#000000;stroke-width:15;stroke-linecap:round;stroke-linejoin:round;stroke-miterlimit:10;" x1="501.691" y1="97.851" x2="463.151" y2="97.851"/>
	
		<line style="fill:none;stroke:#000000;stroke-width:15;stroke-linecap:round;stroke-linejoin:round;stroke-miterlimit:10;" x1="351.439" y1="97.851" x2="9.992" y2="97.851"/>
	
		<line style="fill:none;stroke:#000000;stroke-width:15;stroke-linecap:round;stroke-linejoin:round;stroke-miterlimit:10;" x1="153.211" y1="158.091" x2="9.501" y2="158.091"/>
	<path style="fill:none;stroke:#000000;stroke-width:15;stroke-linecap:round;stroke-linejoin:round;stroke-miterlimit:10;" d="&#10;&#9;&#9;M188.211,158.091h45.23c8.28,0,15,6.72,15,15v12.17"/>
	<path style="fill:none;stroke:#000000;stroke-width:15;stroke-linecap:round;stroke-linejoin:round;stroke-miterlimit:10;" d="&#10;&#9;&#9;M9.501,127.971h224.06c24.853,0,45,20.147,45,45v12.29"/>
	
		<line style="fill:none;stroke:#000000;stroke-width:15;stroke-linecap:round;stroke-linejoin:round;stroke-miterlimit:10;" x1="383.971" y1="69.731" x2="383.971" y2="187.211"/>
	
		<line style="fill:none;stroke:#000000;stroke-width:15;stroke-linecap:round;stroke-linejoin:round;stroke-miterlimit:10;" x1="353.851" y1="187.211" x2="353.851" y2="69.731"/>
	<path style="fill:none;stroke:#000000;stroke-width:15;stroke-linecap:round;stroke-linejoin:round;stroke-miterlimit:10;" d="&#10;&#9;&#9;M445.651,244.221c31.94-3.9,53.07-9.3,57.79-10.57"/>
	<path style="fill:none;stroke:#000000;stroke-width:15;stroke-linecap:round;stroke-linejoin:round;stroke-miterlimit:10;" d="&#10;&#9;&#9;M8.501,233.651c7.58,2.04,57.73,14.79,127,14.79c15.69,0,32.91-1.02,51.26-2.53"/>
	<path style="fill:none;stroke:#000000;stroke-width:15;stroke-linecap:round;stroke-linejoin:round;stroke-miterlimit:10;" d="&#10;&#9;&#9;M378.411,399.031h35.8c16.56,0,30-13.43,30-30v-150.82c0-16.57-13.44-30-30-30h-196c-16.57,0-30,13.43-30,30v150.82&#10;&#9;&#9;c0,16.57,13.43,30,30,30h125.2"/>
	
		<polyline style="fill:none;stroke:#000000;stroke-width:15;stroke-linecap:round;stroke-linejoin:round;stroke-miterlimit:10;" points="&#10;&#9;&#9;338.794,459.265 316.206,474.324 293.618,459.265 &#9;"/>
	
		<line style="fill:none;stroke:#000000;stroke-width:15;stroke-linecap:round;stroke-linejoin:round;stroke-miterlimit:10;" x1="316.206" y1="429.147" x2="316.206" y2="465.651"/>
	
		<polyline style="fill:none;stroke:#000000;stroke-width:15;stroke-linecap:round;stroke-linejoin:round;stroke-miterlimit:10;" points="&#10;&#9;&#9;188.206,444.206 173.147,459.265 188.206,474.324 &#9;"/>
	<path style="fill:none;stroke:#000000;stroke-width:15;stroke-linecap:round;stroke-linejoin:round;stroke-miterlimit:10;" d="&#10;&#9;&#9;M233.382,429.147c0,30.118-37.647,30.118-37.647,30.118h-15.059"/>
	
		<polyline style="fill:none;stroke:#000000;stroke-width:15;stroke-linecap:round;stroke-linejoin:round;stroke-miterlimit:10;" points="&#10;&#9;&#9;444.206,444.206 459.265,459.265 444.206,474.324 &#9;"/>
	<path style="fill:none;stroke:#000000;stroke-width:15;stroke-linecap:round;stroke-linejoin:round;stroke-miterlimit:10;" d="&#10;&#9;&#9;M399.029,429.147c0,30.118,37.647,30.118,37.647,30.118h15.059"/>
	<path style="fill:none;stroke:#000000;stroke-width:15;stroke-linecap:round;stroke-linejoin:round;stroke-miterlimit:10;" d="&#10;&#9;&#9;M189.231,355.421c9.315-9.571,23.422-11.592,34.75-6.07c8.36,4.08,17.99,4.07,26.34,0c8.111-3.954,17.89-4.129,26.36,0&#10;&#9;&#9;c8.36,4.07,17.99,4.07,26.35,0c8.111-3.954,17.89-4.129,26.36,0c8.35,4.07,17.99,4.07,26.34,0c8.111-3.953,17.89-4.129,26.36,0&#10;&#9;&#9;c8.36,4.07,17.99,4.07,26.35,0c11.489-5.6,25.57-3.369,34.74,6.07"/>
	<path style="fill:none;stroke:#000000;stroke-width:15;stroke-linecap:round;stroke-linejoin:round;stroke-miterlimit:10;" d="&#10;&#9;&#9;M189.231,284.971c9.315-9.571,23.422-11.592,34.75-6.07c8.36,4.08,17.99,4.07,26.34,0c8.111-3.954,17.89-4.129,26.36,0&#10;&#9;&#9;c8.36,4.07,17.99,4.07,26.35,0c8.111-3.954,17.89-4.129,26.36,0c8.35,4.07,17.99,4.07,26.34,0c8.111-3.953,17.89-4.129,26.36,0&#10;&#9;&#9;c8.36,4.07,17.99,4.07,26.35,0c11.489-5.6,25.57-3.369,34.74,6.07"/>
	<g>
		
			<line style="fill:none;stroke:#000000;stroke-width:15;stroke-linecap:round;stroke-linejoin:round;stroke-miterlimit:10;" x1="253.757" y1="221.768" x2="253.757" y2="233.768"/>
		
			<line style="fill:none;stroke:#000000;stroke-width:15;stroke-linecap:round;stroke-linejoin:round;stroke-miterlimit:10;" x1="378.655" y1="221.768" x2="378.655" y2="233.768"/>
		<path style="fill:none;stroke:#000000;stroke-width:15;stroke-linecap:round;stroke-linejoin:round;stroke-miterlimit:10;" d="&#10;&#9;&#9;&#9;M299.742,233.411c8.715,10.001,24.213,10.001,32.929,0"/>
	</g>
</g>
<g>
</g>
<g>
</g>
<g>
</g>
<g>
</g>
<g>
</g>
<g>
</g>
<g>
</g>
<g>
</g>
<g>
</g>
<g>
</g>
<g>
</g>
<g>
</g>
<g>
</g>
<g>
</g>
<g>
</g>
</svg>