<?xml version="1.0"?>
<svg xmlns="http://www.w3.org/2000/svg" id="Layer_1" data-name="Layer 1" viewBox="0 0 512 512"><path d="M482.647,345.623V265.9a32.808,32.808,0,0,0-65.077-5.93H332.913a23.986,23.986,0,0,0-17.757-7.8H281.92V204.4h40.364a20.4,20.4,0,0,0,20.373-20.373V172.711a20.4,20.4,0,0,0-20.373-20.372H173.649a20.4,20.4,0,0,0-20.373,20.372v11.316A20.4,20.4,0,0,0,173.649,204.4h42.04v47.774H178.75a24.071,24.071,0,0,0-17.743,7.8H78.364a32.809,32.809,0,0,0-65.078,5.93V414.029a32.809,32.809,0,0,0,65.078,5.931h82.321a24.1,24.1,0,0,0,17.756,7.8H293.073a104.522,104.522,0,1,0,189.574-82.133ZM64.911,414.029a18.813,18.813,0,1,1-37.625,0V265.9a18.813,18.813,0,0,1,37.625,0Zm384.924-166.94A18.833,18.833,0,0,1,468.647,265.9v62.063a104.8,104.8,0,0,0-37.625-24.539V265.9A18.834,18.834,0,0,1,449.835,247.089Zm-97.057,58.19a114.2,114.2,0,0,0-10.513-31.308h74.757v25.265a104.536,104.536,0,0,0-64.244,6.043Zm-185.5-121.252V172.711a6.38,6.38,0,0,1,6.373-6.372H322.284a6.379,6.379,0,0,1,6.373,6.372v11.316a6.38,6.38,0,0,1-6.373,6.373H173.649A6.381,6.381,0,0,1,167.276,184.027ZM229.689,204.4H267.92v47.774H229.689Zm-77.234,69.571c-6.551,13.885-12.4,34.966-12.4,66,0,31.384,5.645,52.329,12.049,65.994H78.911V273.971Zm25.986,139.785A10.06,10.06,0,0,1,170.2,409.5c-6.028-8.6-16.141-29.064-16.141-69.537,0-39.374,10.226-60.352,16.323-69.354a10.1,10.1,0,0,1,8.371-4.438H315.156a10.036,10.036,0,0,1,7.79,3.662c4.749,5.783,12.981,18.738,16.817,42.2a104.469,104.469,0,0,0-49.349,101.719Zm125.221-12.513a90.526,90.526,0,1,1,174.62,33.51l-21.16-21.142,6.953-24.735c1.958-7.313-.6-16.865-5.953-22.219l-36.434-36.434c-5.356-5.354-14.911-7.915-22.222-5.954L381.452,329.1c-4.821,1.292-8.223,4.411-9.335,8.558s.276,8.55,3.8,12.079l37.695,37.695a5.934,5.934,0,0,1,1.531,5.717L410.5,410.491a5.933,5.933,0,0,1-4.185,4.185l-17.348,4.648a5.93,5.93,0,0,1-5.714-1.53l-39.3-39.3a10.393,10.393,0,0,0-10.2-2.973c-4.193,1.123-7.412,4.807-8.831,10.106l-4.827,18.017c-1.959,7.314.6,16.866,5.954,22.219L362.481,462.3c5.356,5.354,14.908,7.913,22.208,5.957l25.821-6.874,21.78,21.968a90.5,90.5,0,0,1-128.628-82.105ZM444.908,476.19,417.6,448.645a7,7,0,0,0-6.772-1.836l-29.749,7.92a10.966,10.966,0,0,1-8.7-2.332l-36.435-36.434a10.981,10.981,0,0,1-2.331-8.7l4.08-15.228,35.658,35.657a19.976,19.976,0,0,0,19.238,5.153l17.347-4.648a19.971,19.971,0,0,0,14.085-14.085l4.648-17.347a19.975,19.975,0,0,0-5.155-19.24L387.86,341.872l15.229-4.08a10.977,10.977,0,0,1,8.7,2.33l36.435,36.434c1.82,1.821,3,6.211,2.353,8.615l-8.04,28.6a7,7,0,0,0,1.791,6.846L471.7,447.965A91.245,91.245,0,0,1,444.908,476.19ZM215.312,71.622a19.413,19.413,0,0,0-3.83,11.419c0,6.789,3.776,13.068,10.123,17.478a29.711,29.711,0,0,0-4.811,16.164c0,17.255,15.027,31.293,33.5,31.293,17.366,0,31.688-12.41,33.339-28.237,13.537-2.107,23.674-10.381,25.061-20.845,3.8.329,7.7.495,11.674.495,26.027,0,54.038-7.46,54.038-23.837a13.467,13.467,0,0,0-1.113-5.341c10.033-5.624,15.951-14.042,15.951-23.306,0-16.995-19.78-30.308-45.032-30.308a66.64,66.64,0,0,0-16.086,1.939c-5.45-7.483-16.042-12.305-28.172-12.305-12.383,0-23.078,4.961-28.431,12.649a43.642,43.642,0,0,0-8.534-.84c-11.639,0-21.916,4.4-27.565,11.505-17.632.277-31.34,10.645-31.34,23.831C204.082,60.669,208.311,67.231,215.312,71.622Zm20.835-28.083c.791,0,1.589.034,2.442.1a6.991,6.991,0,0,0,6.863-3.926c1.848-3.815,8.465-7.676,17.535-7.676a28,28,0,0,1,9.8,1.7,7,7,0,0,0,9.255-4.813c1.071-4.184,8.224-8.7,17.913-8.7,9.562,0,16.729,4.462,17.886,8.6a7,7,0,0,0,9.171,4.677,50.118,50.118,0,0,1,17.2-2.907c18.288,0,31.032,8.594,31.032,16.308,0,5.389-6.263,11.015-15.584,14a7,7,0,0,0-1.736,12.5,8.058,8.058,0,0,1,2.41,2.168c-1.57,2.909-15.284,9.817-39.966,9.817a113.954,113.954,0,0,1-18.79-1.492,7,7,0,0,0-7.35,10.169,5,5,0,0,1,.628,2.358c0,4.644-7.725,9.837-18.063,9.837l-.191,0h-.078a7,7,0,0,0-6.918,8.062,15.652,15.652,0,0,1,.185,2.364c0,9.535-8.746,17.293-19.5,17.293s-19.5-7.758-19.5-17.293a16.534,16.534,0,0,1,6.527-12.892,7,7,0,0,0-2.258-12.166c-5.64-1.766-9.581-5.3-9.581-8.584,0-2.573,2.431-5.37,6.344-7.3a7,7,0,0,0-1.673-13.131c-6.882-1.431-12.071-5.4-12.071-9.234C218.082,48.733,225.808,43.539,236.147,43.539Z"/></svg>
