<?xml version="1.0" encoding="UTF-8"?>
<svg xmlns="http://www.w3.org/2000/svg" id="Layer_3" data-name="Layer 3" viewBox="0 0 64 64" width="512" height="512"><path d="M62.882,45.532l.825-.825-1.414-1.414-.825.825a3.074,3.074,0,0,1-2.461.853c0-.059-.007-.118-.007-.177a7.478,7.478,0,0,0-1.066-3.847A13.581,13.581,0,0,1,56,33.963,11.878,11.878,0,0,0,53.744,27,25.816,25.816,0,0,0,55,19C55,9.075,49.617,1,43,1H33a9.871,9.871,0,0,0-7.526,4H9C4.514,5,1,11.149,1,19S4.514,33,9,33H25.474A9.871,9.871,0,0,0,33,37h9.932A9.81,9.81,0,0,1,41.6,41.058a11.2,11.2,0,0,0-.742,1.5A5.669,5.669,0,0,0,35.2,43.1l-1.6,1.2a3.6,3.6,0,0,1-4.2,0l-1.6-1.2a5.65,5.65,0,0,0-6.6,0l-1.6,1.2a3.6,3.6,0,0,1-4.2,0l-1.6-1.2a5.65,5.65,0,0,0-6.6,0L5.6,44.3a3.575,3.575,0,0,1-4.045.11L.444,46.073A5.621,5.621,0,0,0,6.8,45.9l1.6-1.2a3.6,3.6,0,0,1,4.2,0l1.6,1.2a5.65,5.65,0,0,0,6.6,0l1.6-1.2a3.6,3.6,0,0,1,4.2,0l1.6,1.2a5.5,5.5,0,0,0,6.6,0l1.6-1.2a3.6,3.6,0,0,1,3.872-.2A11.215,11.215,0,0,0,40,46.831c0,.137-.02.273-.031.409a5.635,5.635,0,0,0-4.769.86l-1.6,1.2a3.6,3.6,0,0,1-4.2,0l-1.6-1.2a5.65,5.65,0,0,0-6.6,0l-1.6,1.2a3.6,3.6,0,0,1-4.2,0l-1.6-1.2a5.65,5.65,0,0,0-6.6,0L5.6,49.3a3.575,3.575,0,0,1-4.045.11L.444,51.073A5.619,5.619,0,0,0,6.8,50.9l1.6-1.2a3.6,3.6,0,0,1,4.2,0l1.6,1.2a5.65,5.65,0,0,0,6.6,0l1.6-1.2a3.6,3.6,0,0,1,4.2,0l1.6,1.2a5.65,5.65,0,0,0,6.6,0l1.6-1.2a3.6,3.6,0,0,1,4.2,0l1.6,1.2a5.65,5.65,0,0,0,6.6,0l1.6-1.2a3.6,3.6,0,0,1,4.2,0L56.33,51a5.047,5.047,0,0,0,3.008,1,4.976,4.976,0,0,0,3.544-1.468l.825-.825-1.414-1.414-.825.825a2.852,2.852,0,0,1-.912.6A8.672,8.672,0,0,1,59.294,47c.014,0,.029,0,.044,0A4.976,4.976,0,0,0,62.882,45.532ZM9,31c-3.252,0-6-5.5-6-12S5.748,7,9,7H24.081A23.569,23.569,0,0,0,21,19a23.569,23.569,0,0,0,3.081,12Zm24,4c-5.514,0-10-7.178-10-16S27.486,3,33,3h4.528C33.658,5.99,31,12.033,31,19s2.658,13.01,6.528,16Zm0-16c0-8.822,4.486-16,10-16s10,7.178,10,16a24.317,24.317,0,0,1-.808,6.235,11.982,11.982,0,0,0-1.7-1.326A23.858,23.858,0,0,0,51,19c0-7.851-3.514-14-8-14s-8,6.149-8,14c0,6.588,2.5,12.124,6.1,13.606a4.018,4.018,0,0,1,1.759,2.383C37.41,34.865,33,27.746,33,19Zm6.124-9.065C40.179,8.119,41.537,7,43,7c3.252,0,6,5.495,6,12a22.269,22.269,0,0,1-.341,3.931,11.882,11.882,0,0,0-7.909-.464A24.506,24.506,0,0,0,41,19,21.308,21.308,0,0,0,39.124,9.935ZM39,19a22.036,22.036,0,0,1-.429,4.352c-.23.119-.467.22-.69.353l-.33.2A21.8,21.8,0,0,1,37,19a20.969,20.969,0,0,1,1-6.524A20.75,20.75,0,0,1,39,19ZM57.53,49.4,55.8,48.1a5.65,5.65,0,0,0-6.6,0l-1.6,1.2a3.6,3.6,0,0,1-4.2,0l-1.541-1.156A6.888,6.888,0,0,0,42,46.831a9.229,9.229,0,0,1,1.314-4.744A11.835,11.835,0,0,0,45,36a6.022,6.022,0,0,0-3.693-5.526,8.785,8.785,0,0,1-3.178-4.585l.782-.469A9.963,9.963,0,0,1,54,33.963a15.587,15.587,0,0,0,2.219,8.013A5.474,5.474,0,0,1,57,44.794a10.684,10.684,0,0,0,1.243,4.976A2.773,2.773,0,0,1,57.53,49.4Z"/><path d="M61.468,55.118a3.106,3.106,0,0,1-3.938.279L55.8,54.1a5.65,5.65,0,0,0-6.6,0l-1.6,1.2a3.6,3.6,0,0,1-4.2,0l-1.6-1.2a5.65,5.65,0,0,0-6.6,0l-1.6,1.2a3.6,3.6,0,0,1-4.2,0l-1.6-1.2a5.65,5.65,0,0,0-6.6,0l-1.6,1.2a3.6,3.6,0,0,1-4.2,0l-1.6-1.2a5.65,5.65,0,0,0-6.6,0L5.6,55.3a3.579,3.579,0,0,1-4.045.11L.444,57.073A5.621,5.621,0,0,0,6.8,56.9l1.6-1.2a3.6,3.6,0,0,1,4.2,0l1.6,1.2a5.65,5.65,0,0,0,6.6,0l1.6-1.2a3.6,3.6,0,0,1,4.2,0l1.6,1.2a5.65,5.65,0,0,0,6.6,0l1.6-1.2a3.6,3.6,0,0,1,4.2,0l1.6,1.2a5.65,5.65,0,0,0,6.6,0l1.6-1.2a3.6,3.6,0,0,1,4.2,0L56.33,57a5.047,5.047,0,0,0,3.008,1,4.976,4.976,0,0,0,3.544-1.468l.825-.825-1.414-1.414Z"/><path d="M61.468,60.118a3.109,3.109,0,0,1-3.938.279L55.8,59.1a5.65,5.65,0,0,0-6.6,0l-1.6,1.2a3.6,3.6,0,0,1-4.2,0l-1.6-1.2a5.65,5.65,0,0,0-6.6,0l-1.6,1.2a3.6,3.6,0,0,1-4.2,0l-1.6-1.2a5.65,5.65,0,0,0-6.6,0l-1.6,1.2a3.6,3.6,0,0,1-4.2,0l-1.6-1.2a5.65,5.65,0,0,0-6.6,0L5.6,60.3a3.579,3.579,0,0,1-4.045.11L.444,62.073A5.617,5.617,0,0,0,6.8,61.9l1.6-1.2a3.6,3.6,0,0,1,4.2,0l1.6,1.2a5.65,5.65,0,0,0,6.6,0l1.6-1.2a3.6,3.6,0,0,1,4.2,0l1.6,1.2a5.65,5.65,0,0,0,6.6,0l1.6-1.2a3.6,3.6,0,0,1,4.2,0l1.6,1.2a5.65,5.65,0,0,0,6.6,0l1.6-1.2a3.6,3.6,0,0,1,4.2,0L56.33,62a5.047,5.047,0,0,0,3.008,1,4.976,4.976,0,0,0,3.544-1.468l.825-.825-1.414-1.414Z"/></svg>
