<svg clip-rule="evenodd" fill-rule="evenodd" stroke-linejoin="round" stroke-miterlimit="2" viewBox="0 0 96 94" xmlns="http://www.w3.org/2000/svg"><g><path d="m86.987 92.164v-74.1c0-5.048-4.06-9.149-9.093-9.214-.042-.001-.182-.001-.208-.001-4.129.022-8.083 1.672-11.004 4.592 0 0-3.64 3.64-3.64 3.64-.585.586-.585 1.536 0 2.122.586.585 1.536.585 2.122 0l3.64-3.64c2.362-2.362 5.559-3.696 8.898-3.714.019 0 .122 0 .153.001 3.394.044 6.132 2.81 6.132 6.214v74.1c0 .828.672 1.5 1.5 1.5s1.5-.672 1.5-1.5zm-28.565-78.26 4.362-4.361c3.948-3.948 9.293-6.177 14.872-6.207.039 0 .247 0 .309.001 8.045.104 14.535 6.658 14.535 14.727v74.1c0 .828.672 1.5 1.5 1.5s1.5-.672 1.5-1.5v-74.1c0-9.713-7.812-17.601-17.496-17.727-.074-.001-.318-.001-.363-.001-6.37.034-12.472 2.579-16.978 7.086 0 0-4.362 4.361-4.362 4.361-.585.586-.585 1.536 0 2.121.585.586 1.536.586 2.121 0z"/><path d="m28.245 18.121c8.586-8.427 22.329-9.3 31.953-1.594 9.625 7.707 11.779 21.307 5.433 31.529-.437.703-.22 1.629.483 2.066.704.436 1.629.22 2.066-.484 7.135-11.494 4.716-26.787-6.107-35.453-10.822-8.665-26.274-7.681-35.93 1.795-.591.58-.6 1.53-.02 2.121s1.531.6 2.122.02z"/><path d="m32.628 19.48c-1.558-1.248-2.954-2.366-4.129-3.306-1.354-1.084-3.082-1.586-4.806-1.395-1.723.191-3.3 1.058-4.384 2.412 0 0 0 0-.001.001-1.083 1.353-1.585 3.082-1.394 4.805.19 1.723 1.058 3.301 2.412 4.384 8.829 7.07 30.147 24.139 38.976 31.209 1.354 1.084 3.083 1.585 4.806 1.395 1.723-.191 3.3-1.059 4.384-2.412 0-.001.001-.001.001-.001 1.084-1.354 1.585-3.082 1.394-4.806-.19-1.723-1.058-3.3-2.411-4.384-6.643-5.318-20.351-16.295-30.495-24.416-.646-.518-1.591-.413-2.108.233-.518.646-.413 1.591.233 2.108 10.144 8.122 23.852 19.099 30.495 24.417.732.586 1.201 1.44 1.305 2.372.103.933-.169 1.868-.755 2.601l-.001.001c-.586.732-1.44 1.202-2.372 1.305-.933.103-1.868-.169-2.6-.755-8.83-7.07-30.147-24.138-38.977-31.209-.733-.586-1.202-1.439-1.305-2.372-.104-.933.168-1.868.754-2.6l.001-.001c.586-.733 1.44-1.202 2.372-1.305.933-.103 1.868.168 2.601.754 1.175.941 2.571 2.059 4.129 3.307.646.517 1.591.413 2.109-.234.517-.646.412-1.591-.234-2.108z"/><path d="m2.84 74.082c2.298-1.553 5.064-2.475 8.044-2.475 5.753 0 10.709 3.44 12.923 8.373.788 1.787 2.649 2.865 4.6 2.659.318-.025.657-.045 1.001-.045 4.081 0 7.507 2.827 8.422 6.629 0 0 .001 0 .001.001.192.805 1.003 1.302 1.808 1.109s1.302-1.003 1.109-1.809c0-.001-.001-.002-.001-.004-1.233-5.118-5.845-8.926-11.339-8.926-.43 0-.855.024-1.273.058-.014.001-.027.002-.04.003-.655.071-1.281-.291-1.547-.894-.001-.003-.002-.006-.004-.009-2.683-5.978-8.689-10.145-15.66-10.145-3.602 0-6.946 1.112-9.724 2.989-.686.463-.866 1.396-.403 2.082s1.396.867 2.083.404z"/><path d="m8.594.336c-3.848 0-6.972 3.124-6.972 6.972s3.124 6.972 6.972 6.972 6.972-3.124 6.972-6.972-3.124-6.972-6.972-6.972zm0 3c2.193 0 3.972 1.78 3.972 3.972s-1.779 3.972-3.972 3.972c-2.192 0-3.972-1.78-3.972-3.972s1.78-3.972 3.972-3.972z"/><path d="m72.728 64.678c-3.872 0-7.016 3.144-7.016 7.016s3.144 7.016 7.016 7.016c3.873 0 7.017-3.144 7.017-7.016s-3.144-7.016-7.017-7.016zm0 3c2.217 0 4.017 1.8 4.017 4.016 0 2.217-1.8 4.016-4.017 4.016-2.216 0-4.016-1.799-4.016-4.016 0-2.216 1.8-4.016 4.016-4.016z"/><path d="m54.33 79.635c-2.995 0-5.426 2.431-5.426 5.426 0 2.994 2.431 5.425 5.426 5.425 2.994 0 5.425-2.431 5.425-5.425 0-2.995-2.431-5.426-5.425-5.426zm0 3c1.338 0 2.425 1.087 2.425 2.426 0 1.338-1.087 2.425-2.425 2.425-1.339 0-2.426-1.087-2.426-2.425 0-1.339 1.087-2.426 2.426-2.426z"/><path d="m7.973 54.023c-2.994 0-5.425 2.431-5.425 5.426 0 2.994 2.431 5.425 5.425 5.425s5.425-2.431 5.425-5.425c0-2.995-2.431-5.426-5.425-5.426zm0 3c1.338 0 2.425 1.087 2.425 2.426 0 1.338-1.087 2.425-2.425 2.425-1.339 0-2.425-1.087-2.425-2.425 0-1.339 1.086-2.426 2.425-2.426z"/><path d="m20.065 30.297-17.621 8.937c-.738.374-1.034 1.278-.659 2.016.374.739 1.278 1.034 2.016.66l17.621-8.938c.738-.374 1.034-1.278.659-2.016-.374-.738-1.278-1.034-2.016-.659z"/><path d="m49.159 55.828-6.589 23.174c-.227.796.236 1.627 1.032 1.853.797.227 1.627-.236 1.853-1.032l6.59-23.175c.226-.796-.237-1.626-1.033-1.853-.796-.226-1.627.237-1.853 1.033z"/><path d="m27.208 37.087-15.49 10.519c-.685.465-.864 1.399-.399 2.084.466.685 1.399.863 2.084.398l15.49-10.519c.685-.465.864-1.399.399-2.084-.466-.684-1.399-.863-2.084-.398z"/><path d="m33.718 66.624-1.587 3.71c-.326.761.028 1.644.789 1.969.761.326 1.643-.028 1.969-.789l1.587-3.711c.326-.761-.028-1.643-.789-1.969-.761-.325-1.644.028-1.969.79zm7.459-17.439-5.135 12.004c-.325.761.028 1.644.79 1.969.761.326 1.643-.028 1.969-.789l5.134-12.005c.326-.761-.028-1.643-.789-1.969-.761-.325-1.643.028-1.969.79z"/><path d="m34.515 42.982-14.038 17.036c-.526.639-.435 1.586.204 2.112s1.585.435 2.111-.204l14.038-17.036c.527-.639.435-1.585-.203-2.111-.639-.527-1.585-.436-2.112.203z"/></g></svg>