<?xml version="1.0"?>
<svg xmlns="http://www.w3.org/2000/svg" id="Icons" viewBox="0 0 60 60" width="512" height="512"><path d="M58.983,8.286,56.87,7.13,55.714,5.016a1.954,1.954,0,0,0-3.428,0L51.13,7.13,49.016,8.286a1.953,1.953,0,0,0,0,3.428L51.13,12.87l1.155,2.113a1.954,1.954,0,0,0,3.429,0L56.87,12.87l2.114-1.156a1.953,1.953,0,0,0,0-3.428Zm-3.329,2.97a1,1,0,0,0-.4.4L54.04,14.024l-1.3-2.371a1,1,0,0,0-.4-.4l-2.37-1.215,2.37-1.3a1,1,0,0,0,.4-.4l1.243-2.322,1.271,2.322a1,1,0,0,0,.4.4l2.37,1.215Z"/><path d="M1.016,18.714,3.13,19.87l1.156,2.114a1.954,1.954,0,0,0,3.428,0L8.87,19.87l2.114-1.156a1.954,1.954,0,0,0,0-3.428L8.87,14.13,7.714,12.016a1.954,1.954,0,0,0-3.428,0L3.13,14.13,1.016,15.286a1.954,1.954,0,0,0,0,3.428Zm3.331-2.97a1.011,1.011,0,0,0,.4-.4l1.242-2.322,1.27,2.322a1.011,1.011,0,0,0,.4.4l2.371,1.215-2.371,1.3a1.011,1.011,0,0,0-.4.4L6.041,21.024l-1.3-2.371a1.011,1.011,0,0,0-.4-.4L1.976,17.041Z"/><path d="M4,30a3,3,0,0,0,2.042,2.829A15.006,15.006,0,0,0,21,47h1V58a2,2,0,0,0,2,2H36a2,2,0,0,0,2-2V47h1a14.8,14.8,0,0,0,5.764-1.177l.689,1.259a1.763,1.763,0,0,0,3.094,0l.9-1.64,1.639-.9a1.763,1.763,0,0,0,0-3.094l-.314-.172a14.925,14.925,0,0,0,3.192-8.453A2.992,2.992,0,0,0,53,27H45V26a3,3,0,0,0-3-3H41V21a3,3,0,0,0-6,0v2H33V9a9.03,9.03,0,0,0-2.857-6.572A8.9,8.9,0,0,0,23.385.021,9.171,9.171,0,0,0,15,9.283V11a3,3,0,0,0,6,0V9a3.007,3.007,0,0,1,.986-2.222A2.97,2.97,0,0,1,24.3,6.015,3.123,3.123,0,0,1,27,9.178V23H25V21a3,3,0,0,0-6,0v2H18a3,3,0,0,0-3,3v1H7A3,3,0,0,0,4,30ZM24,58V47h2v7a1,1,0,0,0,2,0V47h8l0,11ZM48.227,43.83a1.011,1.011,0,0,0-.4.4L47,45.743l-.83-1.516a1.011,1.011,0,0,0-.4-.4L44.257,43l1.516-.83a1.011,1.011,0,0,0,.4-.4L47,40.257l.83,1.516a1.011,1.011,0,0,0,.4.4l1.516.83Zm.952-3.757-.632-1.155a1.763,1.763,0,0,0-3.094,0l-.9,1.64-1.639.9a1.746,1.746,0,0,0-.162,2.975A12.89,12.89,0,0,1,39,45H21A13.017,13.017,0,0,1,8.038,33H51.962A12.945,12.945,0,0,1,49.179,40.073ZM37,21a1,1,0,0,1,2,0v2H37ZM24.5,4.024A5,5,0,0,0,19,9v2a1,1,0,0,1-2,0V9.283a7.168,7.168,0,0,1,6.519-7.267,6.952,6.952,0,0,1,5.258,1.873A7.023,7.023,0,0,1,31,9V23H29V9.178A5.14,5.14,0,0,0,24.5,4.024ZM21,21a1,1,0,0,1,2,0v2H21Zm-4,5a1,1,0,0,1,1-1H42a1,1,0,0,1,1,1v1H17Zm-1,3H53a1,1,0,0,1,0,2H7a1,1,0,0,1,0-2Z"/><path d="M10.919,36.4A11.011,11.011,0,0,0,21,43a1,1,0,0,0,0-2,9.01,9.01,0,0,1-8.249-5.4,1,1,0,0,0-1.832.8Z"/></svg>
