<?xml version="1.0" encoding="UTF-8"?>
<svg xmlns="http://www.w3.org/2000/svg" width="512" height="512" viewBox="0 0 128 128"><g><path d="M101.463,54.173a1.75,1.75,0,0,0,0-3.5H95.515V42.6h5.948a1.75,1.75,0,0,0,0-3.5H95.515v-4.86a1.751,1.751,0,0,0-1.75-1.75H88.9V26.538a1.75,1.75,0,1,0-3.5,0v5.948H77.327V26.538a1.75,1.75,0,1,0-3.5,0v5.948H65.75V26.538a1.75,1.75,0,1,0-3.5,0v5.948H54.173V26.538a1.75,1.75,0,1,0-3.5,0v5.948H42.6V26.538a1.75,1.75,0,0,0-3.5,0v5.948H34.235a1.751,1.751,0,0,0-1.75,1.75V39.1H26.537a1.75,1.75,0,0,0,0,3.5h5.948v8.077H26.537a1.75,1.75,0,0,0,0,3.5h5.948V62.25H26.537a1.75,1.75,0,0,0,0,3.5h5.948v8.077H26.537a1.75,1.75,0,0,0,0,3.5h5.948V85.4H26.537a1.75,1.75,0,0,0,0,3.5h5.948v4.86a1.751,1.751,0,0,0,1.75,1.75H39.1v5.948a1.75,1.75,0,0,0,3.5,0V95.514h8.077v5.948a1.75,1.75,0,0,0,3.5,0V95.514H62.25v5.948a1.75,1.75,0,0,0,3.5,0V95.514h8.077v5.948a1.75,1.75,0,0,0,3.5,0V95.514H85.4v5.948a1.75,1.75,0,0,0,3.5,0V95.514h4.861a1.751,1.751,0,0,0,1.75-1.75V88.9h5.948a1.75,1.75,0,0,0,0-3.5H95.515V77.327h5.948a1.75,1.75,0,0,0,0-3.5H95.515V65.75h5.948a1.75,1.75,0,0,0,0-3.5H95.515V54.173ZM92.015,92.014H35.985V35.986h56.03Z"/><path d="M78.578,51.584c.006-.122.009-.245.009-.367A8.16,8.16,0,0,0,64,46.181a8.16,8.16,0,0,0-14.587,5.036c0,.122,0,.245.009.367A7.782,7.782,0,0,0,45.715,64a7.782,7.782,0,0,0,3.707,12.416c-.006.122-.009.245-.009.367A8.16,8.16,0,0,0,64,81.819a8.16,8.16,0,0,0,14.587-5.036c0-.123,0-.245-.009-.367A7.782,7.782,0,0,0,82.285,64a7.782,7.782,0,0,0-3.707-12.416Zm-21,29.867a4.674,4.674,0,0,1-4.669-4.668c0-.042.008-.084.009-.126A7.794,7.794,0,0,0,59.5,68.973a1.75,1.75,0,0,0-3.5,0,4.294,4.294,0,0,1-4.289,4.289c-.027,0-.052.007-.079.008-.042,0-.082-.018-.125-.021a4.282,4.282,0,0,1-2.225-7.808,1.75,1.75,0,0,0,0-2.882A4.282,4.282,0,0,1,51.5,54.751c.043,0,.084-.016.127-.021.026,0,.051.008.077.008A4.294,4.294,0,0,1,56,59.027a1.75,1.75,0,0,0,3.5,0,7.8,7.8,0,0,0-6.573-7.685c0-.041-.009-.083-.009-.125a4.669,4.669,0,0,1,9.337,0V76.783A4.673,4.673,0,0,1,57.582,81.451Zm21.141-16.01A4.282,4.282,0,0,1,76.5,73.249c-.043,0-.083.016-.125.021-.027,0-.052-.008-.079-.008a4.294,4.294,0,0,1-4.289-4.289,1.75,1.75,0,0,0-3.5,0,7.794,7.794,0,0,0,6.573,7.684c0,.042.009.084.009.126a4.669,4.669,0,0,1-9.337,0V51.217a4.669,4.669,0,0,1,9.337,0c0,.042-.008.084-.009.125a7.8,7.8,0,0,0-6.573,7.685,1.75,1.75,0,0,0,3.5,0,4.294,4.294,0,0,1,4.289-4.289c.026,0,.051-.007.077-.008.043.005.084.018.127.021a4.282,4.282,0,0,1,2.225,7.808,1.75,1.75,0,0,0,0,2.882Z"/></g></svg>
