<svg clip-rule="evenodd" fill-rule="evenodd" height="512" stroke-linejoin="round" stroke-miterlimit="2" viewBox="0 0 65 64" width="512" xmlns="http://www.w3.org/2000/svg"><path d="m29.295 26.341c1.074.049 2.144.083 3.205.098 7.658-.108 15.738-1.179 22.998-2.331v-6.612c-.005-.717-.588-1.298-1.307-1.298-.721 0-1.306.586-1.306 1.307 0 .632-.513 1.145-1.145 1.145s-1.145-.513-1.145-1.145c0-1.985 1.612-3.596 3.596-3.596 1.985 0 3.597 1.611 3.597 3.596v6.233l1.351-.222c1.778-.273 3.443.949 3.716 2.727.223 1.454-.553 2.833-1.815 3.436-1.794 4.408-3.015 11.253-3.636 15.352-.001.003-.001.006-.001.009-.378 2.188-2.276 3.787-4.496 3.787l-.296.001 1.828 3.166c.537.93.218 2.121-.712 2.658-.926.535-2.112.22-2.652-.702l-2.952-5.113c-8.799.014-22.542.017-31.302.017l-2.937 5.086c-.537.93-1.728 1.249-2.658.712-.926-.535-1.246-1.719-.718-2.647l1.819-3.151h-.186c-2.233 0-4.143-1.608-4.523-3.81 0-.003-.001-.007-.001-.01-.599-4.094-1.811-10.92-3.598-15.328-1.297-.589-2.1-1.987-1.874-3.463.273-1.778 1.939-3 3.717-2.727h.005c3.487.58 7.234 1.176 11.083 1.679.5-.573 1.252-.914 2.068-.859l8.15.547c.953.064 1.748.649 2.127 1.458zm-13.437 22.513-2.695 4.669c-.307.532-.988.714-1.52.407-.529-.306-.713-.982-.411-1.513l2.057-3.563zm33.226-.018 2.567-.006 2.067 3.58c.307.532.124 1.213-.408 1.52-.529.306-1.207.126-1.515-.4zm-28.539-16.607c-5.414-.597-10.728-1.444-15.525-2.244 1.682 4.47 2.84 10.955 3.42 14.922.313 1.799 1.875 3.114 3.702 3.114 8.906 0 31.856 0 40.763-.027h.001c1.814 0 3.365-1.306 3.675-3.093.601-3.965 1.764-10.454 3.449-14.925-8.335 1.392-18.242 2.927-27.524 3.049h-.011c-.983-.013-1.972-.042-2.967-.085v4.9c0 .23-.187.416-.417.416h-8.15c-.23 0-.416-.186-.416-.416zm.291-6.936 6.276.422c.933.062 1.64.868 1.583 1.799v9.909h-7.317v-10.42c.015-.276-.014-.552-.088-.819-.091-.323-.246-.627-.454-.891zm8.692 6.813c.996.043 1.988.072 2.972.085 9.276-.122 19.179-1.664 27.496-3.054.002 0 .003 0 .005-.001 1.324-.203 2.234-1.443 2.031-2.766-.203-1.324-1.442-2.233-2.765-2.031-8.167 1.357-17.755 2.807-26.761 2.933h-.012c-.984-.014-1.976-.043-2.972-.087.011.12.013.242.006.366zm-9.027-5.642c-5.134-.57-10.175-1.362-14.767-2.125-1.323-.202-2.562.707-2.765 2.031-.203 1.323.707 2.563 2.03 2.766.002.001.004.001.006.001 4.794.801 10.116 1.653 15.54 2.254v-4.423c.01-.169-.004-.339-.044-.504zm-.563-.902c-.616-.07-1.23-.144-1.842-.221.259-.13.556-.194.866-.173.374.025.71.17.976.394zm37.017-1.688c-.207.034-.415.067-.624.101v-6.484c-.007-1.174-.963-2.126-2.14-2.126-1.181 0-2.139.959-2.139 2.14 0 .172-.14.312-.312.312s-.312-.14-.312-.312c0-1.525 1.239-2.763 2.763-2.763 1.525 0 2.764 1.238 2.764 2.763zm-19.434-14.145c.669 1.044.995 1.817.995 2.707 0 .779-.518 1.757-1.016 2.743-.563 1.116-1.106 2.238-1.106 3.12 0 1.033.35 1.942 1.127 3.156.124.193.382.25.575.126.194-.124.251-.382.127-.575-.669-1.045-.996-1.818-.996-2.707 0-.779.519-1.758 1.017-2.744.563-1.115 1.105-2.238 1.105-3.119 0-1.034-.349-1.943-1.126-3.157-.124-.193-.382-.25-.576-.126s-.25.382-.126.576zm-10.743 0c.669 1.044.995 1.817.995 2.707 0 .779-.518 1.757-1.016 2.743-.563 1.116-1.106 2.238-1.106 3.12 0 1.033.35 1.942 1.127 3.156.124.193.382.25.576.126.193-.124.25-.382.126-.575-.669-1.045-.995-1.818-.995-2.707 0-.779.518-1.758 1.016-2.744.563-1.115 1.106-2.238 1.106-3.119 0-1.034-.35-1.943-1.127-3.157-.124-.193-.382-.25-.576-.126-.193.124-.25.382-.126.576zm5.371 0c.669 1.044.996 1.817.996 2.707 0 .779-.519 1.757-1.017 2.743-.563 1.116-1.105 2.238-1.105 3.12 0 1.033.349 1.942 1.126 3.156.124.193.382.25.576.126s.25-.382.126-.575c-.669-1.045-.995-1.818-.995-2.707 0-.779.518-1.758 1.016-2.744.563-1.115 1.106-2.238 1.106-3.119 0-1.034-.35-1.943-1.127-3.157-.124-.193-.382-.25-.575-.126-.194.124-.251.382-.127.576z"/></svg>