<?xml version="1.0"?>
<svg xmlns="http://www.w3.org/2000/svg" id="Layer_1" data-name="Layer 1" viewBox="0 0 512 512"><path d="M483.587,351.91V271.129A14.946,14.946,0,0,0,468.659,256.2h-5.974V61.092h26.934a7,7,0,0,0,7-7V11.166a7,7,0,0,0-7-7H436.292A30.567,30.567,0,0,0,405.759,34.7V256.2h-6.9a14.946,14.946,0,0,0-14.929,14.929V313.4a91.875,91.875,0,0,0-46.781,29.339l-3.9-5.709v-202.6h3.477a7,7,0,0,0,7-7V70.845a39.849,39.849,0,0,0-39.8-39.8H179a39.864,39.864,0,0,0-39.35,33.808H67.886A33.721,33.721,0,0,0,34.2,98.533v365.5a21.915,21.915,0,0,0,1.07,43.8H358.987a21.948,21.948,0,0,0,21.522-17.8A91.684,91.684,0,0,0,483.587,351.91ZM419.759,34.7a16.551,16.551,0,0,1,16.533-16.532h46.327V47.092H455.685a7,7,0,0,0-7,7V256.2H419.759Zm-21.828,236.43a.93.93,0,0,1,.929-.929h69.8a.93.93,0,0,1,.928.929v64.162a91.378,91.378,0,0,0-62.663-24.811q-4.551,0-8.993.442Zm-251.739-136.7h3.477v202.6l-29.015,42.452a7.007,7.007,0,0,0-1.22,3.951V464H83.146V113.794h56.046v13.64A7,7,0,0,0,146.192,134.434Zm61.419,0V332.193H163.669V134.434Zm14,197.759V134.434h39.695V332.193Zm-88.177,53.4,26.93-39.4H322.553l5.879,8.6A91.555,91.555,0,0,0,339.215,464H133.434Zm185.814-53.4H275.306V134.434h43.942ZM153.192,70.845a25.833,25.833,0,0,1,25.8-25.8H303.922a25.833,25.833,0,0,1,25.8,25.8v49.589H153.192Zm-85.306,8h71.306V99.794H76.146a7,7,0,0,0-7,7V464H48.2V98.533A19.706,19.706,0,0,1,67.886,78.85ZM366.9,485.919a7.924,7.924,0,0,1-7.915,7.915H35.272a7.915,7.915,0,0,1,0-15.83H355.347a91.712,91.712,0,0,0,11.453,6.66A8.059,8.059,0,0,1,366.9,485.919Zm-37.7-83.719A77.719,77.719,0,1,1,479.62,429.654l-17-16.981,5.9-20.979a22.462,22.462,0,0,0-5.41-20.189L431.46,339.854a22.462,22.462,0,0,0-20.19-5.41l-15.648,4.194c-4.515,1.21-7.707,4.157-8.76,8.086s.24,8.076,3.543,11.379l32.745,32.744a4.236,4.236,0,0,1,1.093,4.079L420.206,410a4.233,4.233,0,0,1-2.986,2.985l-15.069,4.039a4.242,4.242,0,0,1-4.077-1.091l-34.142-34.143a10.06,10.06,0,0,0-9.749-2.818c-3.968,1.063-7,4.5-8.321,9.429l-4.193,15.65a22.456,22.456,0,0,0,5.411,20.189l31.65,31.653a22.47,22.47,0,0,0,20.179,5.412l21.916-5.835,17.6,17.756A77.67,77.67,0,0,1,329.205,402.2Zm121.88,63.9-23.172-23.373a7,7,0,0,0-6.772-1.836l-25.844,6.88a8.715,8.715,0,0,1-6.668-1.786l-31.65-31.651a8.719,8.719,0,0,1-1.787-6.667l3.133-11.692,29.849,29.85a18.276,18.276,0,0,0,17.6,4.715l15.07-4.038a18.275,18.275,0,0,0,12.885-12.886l4.037-15.069a18.278,18.278,0,0,0-4.716-17.6L403.2,351.1l11.69-3.133a8.717,8.717,0,0,1,6.669,1.787L453.211,381.4a8.73,8.73,0,0,1,1.81,6.585l-6.984,24.843a7,7,0,0,0,1.791,6.847l23.259,23.24A78.315,78.315,0,0,1,451.085,466.1Z"/></svg>
