<?xml version="1.0" encoding="UTF-8" standalone="no"?>
<!-- Created with Inkscape (http://www.inkscape.org/) -->

<svg
   version="1.1"
   id="svg825"
   xml:space="preserve"
   width="682.66669"
   height="682.66669"
   viewBox="0 0 682.66669 682.66669"
   xmlns="http://www.w3.org/2000/svg"
   xmlns:svg="http://www.w3.org/2000/svg"><defs
     id="defs829"><clipPath
       clipPathUnits="userSpaceOnUse"
       id="clipPath839"><path
         d="M 0,512 H 512 V 0 H 0 Z"
         id="path837" /></clipPath><clipPath
       clipPathUnits="userSpaceOnUse"
       id="clipPath863"><path
         d="M 0,512 H 512 V 0 H 0 Z"
         id="path861" /></clipPath></defs><g
     id="g831"
     transform="matrix(1.3333333,0,0,-1.3333333,0,682.66667)"><g
       id="g833"><g
         id="g835"
         clip-path="url(#clipPath839)"><g
           id="g841"
           transform="translate(512,194)"><path
             d="M 0,0 H -512"
             style="fill:none;stroke:#000000;stroke-width:15;stroke-linecap:butt;stroke-linejoin:miter;stroke-miterlimit:10;stroke-dasharray:390, 15;stroke-dashoffset:0;stroke-opacity:1"
             id="path843" /></g><g
           id="g845"
           transform="translate(0,164)"><path
             d="M 0,0 H 512"
             style="fill:none;stroke:#000000;stroke-width:15;stroke-linecap:butt;stroke-linejoin:miter;stroke-miterlimit:10;stroke-dasharray:187, 15;stroke-dashoffset:0;stroke-opacity:1"
             id="path847" /></g></g></g><g
       id="g849"
       transform="translate(438,134)"><path
         d="M 0,0 H -96"
         style="fill:none;stroke:#000000;stroke-width:15;stroke-linecap:butt;stroke-linejoin:miter;stroke-miterlimit:10;stroke-dasharray:none;stroke-opacity:1"
         id="path851" /></g><g
       id="g853"
       transform="translate(438,104)"><path
         d="M 0,0 H -96"
         style="fill:none;stroke:#000000;stroke-width:15;stroke-linecap:butt;stroke-linejoin:miter;stroke-miterlimit:10;stroke-dasharray:none;stroke-opacity:1"
         id="path855" /></g><g
       id="g857"><g
         id="g859"
         clip-path="url(#clipPath863)"><g
           id="g865"
           transform="translate(0,28)"><path
             d="m 0,0 c 42.666,0 42.666,-20 85.331,-20 42.666,0 42.666,20 85.332,20 42.665,0 42.665,-20 85.33,-20 42.667,0 42.667,20 85.333,20 42.669,0 42.669,-20 85.337,-20 42.669,0 42.669,20 85.337,20"
             style="fill:none;stroke:#000000;stroke-width:15;stroke-linecap:butt;stroke-linejoin:miter;stroke-miterlimit:10;stroke-dasharray:none;stroke-opacity:1"
             id="path867" /></g><g
           id="g869"
           transform="translate(0,78)"><path
             d="m 0,0 c 42.666,0 42.666,-20 85.331,-20 42.666,0 42.666,20 85.332,20 42.665,0 42.665,-20 85.33,-20 42.667,0 42.667,20 85.333,20 42.669,0 42.669,-20 85.337,-20 42.669,0 42.669,20 85.337,20"
             style="fill:none;stroke:#000000;stroke-width:15;stroke-linecap:butt;stroke-linejoin:miter;stroke-miterlimit:10;stroke-dasharray:none;stroke-opacity:1"
             id="path871" /></g><g
           id="g873"
           transform="translate(342,78)"><path
             d="m 0,0 v 165 c 0,13.807 11.193,25 25,25 13.807,0 25,-11.193 25,-25 v -49"
             style="fill:none;stroke:#000000;stroke-width:15;stroke-linecap:butt;stroke-linejoin:miter;stroke-miterlimit:10;stroke-dasharray:none;stroke-opacity:1"
             id="path875" /></g><g
           id="g877"
           transform="translate(438,58)"><path
             d="m 0,0 v 185 c 0,13.807 11.193,25 25,25 13.807,0 25,-11.193 25,-25 v -49"
             style="fill:none;stroke:#000000;stroke-width:15;stroke-linecap:butt;stroke-linejoin:miter;stroke-miterlimit:10;stroke-dasharray:none;stroke-opacity:1"
             id="path879" /></g><g
           id="g881"
           transform="translate(15,308)"><path
             d="m 0,0 44,-74 h 146 l 30,-40"
             style="fill:none;stroke:#000000;stroke-width:15;stroke-linecap:butt;stroke-linejoin:miter;stroke-miterlimit:10;stroke-dasharray:none;stroke-opacity:1"
             id="path883" /></g><g
           id="g885"
           transform="translate(59,234)"><path
             d="M 0,0 -19,-40"
             style="fill:none;stroke:#000000;stroke-width:15;stroke-linecap:butt;stroke-linejoin:miter;stroke-miterlimit:10;stroke-dasharray:none;stroke-opacity:1"
             id="path887" /></g><g
           id="g889"
           transform="translate(39,266)"><path
             d="M 0,0 H 50 C 61.046,0 70,-8.954 70,-20 V -32"
             style="fill:none;stroke:#000000;stroke-width:15;stroke-linecap:butt;stroke-linejoin:miter;stroke-miterlimit:10;stroke-dasharray:none;stroke-opacity:1"
             id="path891" /></g><g
           id="g893"
           transform="translate(193,384)"><path
             d="M 0,0 C 0,66.274 -24.625,120 -55,120 -85.375,120 -110,66.274 -110,0"
             style="fill:none;stroke:#000000;stroke-width:15;stroke-linecap:butt;stroke-linejoin:miter;stroke-miterlimit:10;stroke-dasharray:none;stroke-opacity:1"
             id="path895" /></g><g
           id="g897"
           transform="translate(8,384.0005)"><path
             d="M 0,0 V 0.75 C 0,62.881 58.203,120 130,120 201.797,120 260,62.882 260,0.75 V 0 C 260,12.15 243.21,22 222.5,22 201.79,22 185,12.15 185,0 185,12.886 160.375,28 130,28 99.625,28 75,12.886 75,0 75,12.15 58.21,22 37.5,22 16.79,22 0,12.15 0,0 Z"
             style="fill:none;stroke:#000000;stroke-width:15;stroke-linecap:butt;stroke-linejoin:miter;stroke-miterlimit:10;stroke-dasharray:800, 15, 15, 15;stroke-dashoffset:0;stroke-opacity:1"
             id="path899" /></g><g
           id="g901"
           transform="translate(138,262)"><path
             d="M 0,0 V 150"
             style="fill:none;stroke:#000000;stroke-width:15;stroke-linecap:butt;stroke-linejoin:miter;stroke-miterlimit:10;stroke-dasharray:15, 15, 600, 15;stroke-dashoffset:0;stroke-opacity:1"
             id="path903" /></g><g
           id="g905"
           transform="translate(20,134)"><path
             d="M 0,0 H 15"
             style="fill:none;stroke:#000000;stroke-width:15;stroke-linecap:butt;stroke-linejoin:miter;stroke-miterlimit:10;stroke-dasharray:none;stroke-opacity:1"
             id="path907" /></g><g
           id="g909"
           transform="translate(110,134)"><path
             d="M 0,0 H 15"
             style="fill:none;stroke:#000000;stroke-width:15;stroke-linecap:butt;stroke-linejoin:miter;stroke-miterlimit:10;stroke-dasharray:none;stroke-opacity:1"
             id="path911" /></g><g
           id="g913"
           transform="translate(200,134)"><path
             d="M 0,0 H 15"
             style="fill:none;stroke:#000000;stroke-width:15;stroke-linecap:butt;stroke-linejoin:miter;stroke-miterlimit:10;stroke-dasharray:none;stroke-opacity:1"
             id="path915" /></g><g
           id="g917"
           transform="translate(290,134)"><path
             d="M 0,0 H 15"
             style="fill:none;stroke:#000000;stroke-width:15;stroke-linecap:butt;stroke-linejoin:miter;stroke-miterlimit:10;stroke-dasharray:none;stroke-opacity:1"
             id="path919" /></g><g
           id="g921"
           transform="translate(470,134)"><path
             d="M 0,0 H 15"
             style="fill:none;stroke:#000000;stroke-width:15;stroke-linecap:butt;stroke-linejoin:miter;stroke-miterlimit:10;stroke-dasharray:none;stroke-opacity:1"
             id="path923" /></g></g></g></g></svg>
