<svg version="1.1" id="Layer_1" xmlns="http://www.w3.org/2000/svg" xmlns:xlink="http://www.w3.org/1999/xlink" x="0px" y="0px" viewBox="0 0 512 512" style="enable-background:new 0 0 512 512;" xml:space="preserve">
<g>
	<g>
		<path style="fill:none;stroke:#000000;stroke-width:15;stroke-miterlimit:10;" d="M56.907,7.5h92.51c8.28,0,15,6.72,15,15v252.38&#10;&#9;&#9;&#9;H50.967c-7.51,0-13.86-5.55-14.87-12.99L7.857,53.24V22.5c0-8.28,6.72-15,15-15h19.05"/>
		<path style="fill:none;stroke:#000000;stroke-width:15;stroke-miterlimit:10;" d="M241.357,504.5h-110.03V374.88&#10;&#9;&#9;&#9;c0-16.57-13.43-30-30-30h-8.47c-16.57,0-30-13.43-30-30v-40h179.37"/>
		<path style="fill:none;stroke:#000000;stroke-width:15;stroke-miterlimit:10;" d="M300.097,274.88h29.7c16.57,0,30,13.43,30,30&#10;&#9;&#9;&#9;v29.25c0,19.54-7.92,37.23-20.72,50.03c-12.8,12.8-30.49,20.72-50.03,20.72c-9,0-15.6,8.46-13.41,17.19&#10;&#9;&#9;&#9;c0,0,25.69,46.76,25.69,82.43h-44.97"/>
		<line style="fill:none;stroke:#000000;stroke-width:15;stroke-miterlimit:10;" x1="7.857" y1="53.235" x2="164.416" y2="53.235"/>
		<path style="fill:none;stroke:#000000;stroke-width:15;stroke-miterlimit:10;" d="M164.416,274.882v10c0,16.569,13.431,30,30,30&#10;&#9;&#9;&#9;h165.382"/>
		<path style="fill:none;stroke:#000000;stroke-width:15;stroke-miterlimit:10;" d="M116.328,474.471h15v-60h-15&#10;&#9;&#9;&#9;c-8.284,0-15,6.716-15,15v30C101.328,467.755,108.044,474.471,116.328,474.471z"/>
		<path style="fill:none;stroke:#000000;stroke-width:15;stroke-miterlimit:10;" d="M377.242,84.295&#10;&#9;&#9;&#9;c-12.392-51.438,47.83-91.896,91.288-67.62l-28.857,24.621L444,70.167l27.83,8.817l28.857-24.621&#10;&#9;&#9;&#9;c17.1,46.77-32.303,99.832-81.159,79.492l-86.421,73.735c12.399,51.456-47.793,91.879-91.278,67.632l28.857-24.621l-4.326-28.871&#10;&#9;&#9;&#9;l-27.83-8.817l-28.857,24.621c-17.133-46.748,32.309-99.835,81.148-79.504L377.242,84.295z"/>
	</g>
	<g>
		
			<line style="fill:none;stroke:#000000;stroke-width:15;stroke-miterlimit:10;" x1="376.933" y1="126.608" x2="365.51" y2="136.33"/>
		
			<line style="fill:none;stroke:#000000;stroke-width:15;stroke-miterlimit:10;" x1="354.087" y1="146.052" x2="342.664" y2="155.774"/>
	</g>
</g>
<g>
</g>
<g>
</g>
<g>
</g>
<g>
</g>
<g>
</g>
<g>
</g>
<g>
</g>
<g>
</g>
<g>
</g>
<g>
</g>
<g>
</g>
<g>
</g>
<g>
</g>
<g>
</g>
<g>
</g>
</svg>