<?xml version="1.0" encoding="UTF-8" standalone="no"?>
<!-- Created with Inkscape (http://www.inkscape.org/) -->

<svg
   version="1.1"
   id="svg2394"
   xml:space="preserve"
   width="682.66669"
   height="682.66669"
   viewBox="0 0 682.66669 682.66669"
   xmlns="http://www.w3.org/2000/svg"
   xmlns:svg="http://www.w3.org/2000/svg"><defs
     id="defs2398"><clipPath
       clipPathUnits="userSpaceOnUse"
       id="clipPath2416"><path
         d="M 0,512 H 512 V 0 H 0 Z"
         id="path2414" /></clipPath></defs><g
     id="g2400"
     transform="matrix(1.3333333,0,0,-1.3333333,0,682.66667)"><g
       id="g2402"
       transform="translate(106.6875,151.4792)"><path
         d="M 0,0 V 239.469"
         style="fill:none;stroke:#000000;stroke-width:30;stroke-linecap:round;stroke-linejoin:round;stroke-miterlimit:10;stroke-dasharray:none;stroke-opacity:1"
         id="path2404" /></g><g
       id="g2406"
       transform="translate(406.625,151.4792)"><path
         d="M 0,0 V 239.469"
         style="fill:none;stroke:#000000;stroke-width:30;stroke-linecap:round;stroke-linejoin:round;stroke-miterlimit:10;stroke-dasharray:none;stroke-opacity:1"
         id="path2408" /></g><g
       id="g2410"><g
         id="g2412"
         clip-path="url(#clipPath2416)"><g
           id="g2418"
           transform="translate(497,208.4167)"><path
             d="m 0,0 h -19.843 c -25.872,0 -50.685,-10.278 -68.979,-28.572 l -1.553,-1.553 -1.553,1.553 C -110.222,-10.278 -135.035,0 -160.907,0 h -158.907 c -26.626,0 -52.095,-10.883 -70.498,-30.125 v 0 h -10e-4 C -410.487,-10.793 -437.35,0 -465.292,0 H -482 V -150.5 H 0 Z"
             style="fill:none;stroke:#000000;stroke-width:30;stroke-linecap:round;stroke-linejoin:round;stroke-miterlimit:10;stroke-dasharray:none;stroke-opacity:1"
             id="path2420" /></g><g
           id="g2422"
           transform="translate(15,208.4167)"><path
             d="m 0,0 v 118.969 c 0,0 37.75,3.943 90.375,12.083 43.969,6.801 104.23,-12.083 155.625,-12.083 51.793,0 101.065,18.787 145.625,11.925 C 444.205,122.797 482,118.969 482,118.969 V 0"
             style="fill:none;stroke:#000000;stroke-width:30;stroke-linecap:round;stroke-linejoin:round;stroke-miterlimit:10;stroke-dasharray:none;stroke-opacity:1"
             id="path2424" /></g><g
           id="g2426"
           transform="translate(195.75,133.1667)"><path
             d="M 0,0 H 111.75"
             style="fill:none;stroke:#000000;stroke-width:30;stroke-linecap:round;stroke-linejoin:round;stroke-miterlimit:10;stroke-dasharray:none;stroke-opacity:1"
             id="path2428" /></g><g
           id="g2430"
           transform="translate(297.6667,158.7106)"><path
             d="M 0,0 18.583,-25.544 0,-51.088"
             style="fill:none;stroke:#000000;stroke-width:30;stroke-linecap:round;stroke-linejoin:round;stroke-miterlimit:10;stroke-dasharray:none;stroke-opacity:1"
             id="path2432" /></g><path
           d="M 135.5,393.833 H 75.25 v 60.25 h 60.25 z"
           style="fill:none;stroke:#000000;stroke-width:30;stroke-linecap:round;stroke-linejoin:round;stroke-miterlimit:10;stroke-dasharray:none;stroke-opacity:1"
           id="path2434" /><path
           d="M 436.75,393.833 H 376.5 v 60.25 h 60.25 z"
           style="fill:none;stroke:#000000;stroke-width:30;stroke-linecap:round;stroke-linejoin:round;stroke-miterlimit:10;stroke-dasharray:none;stroke-opacity:1"
           id="path2436" /></g></g></g></svg>
