<svg clip-rule="evenodd" fill-rule="evenodd" stroke-linejoin="round" stroke-miterlimit="2" viewBox="0 0 512 512" xmlns="http://www.w3.org/2000/svg" xmlns:serif="http://www.serif.com/"><g transform="translate(-562 -1124)"><g id="Icons"><path d="m1043.86 1160.87h-434.599c-6.276 0-11.37 5.09-11.37 11.37v231.95c0 1.42.604 2.77 1.663 3.72 1.058.95 2.469 1.4 3.882 1.25 5.003-.55 9.468-.46 13.484.18v28.97h-14.029c-2.762 0-5 2.24-5 5v70.41h-19.891c-2.761 0-5 2.24-5 5v75.41c0 2.76 2.239 5 5 5h446.78c6.28 0 11.37-5.09 11.37-11.37v-190.67h21.85c2.76 0 5-2.23 5-5v-75.4c0-2.77-2.24-5-5-5h-59.225v-65.41h45.085c2.76 0 5-2.24 5-5v-75.41c0-2.76-2.24-5-5-5zm-318.806 362.85h-47.584v65.41h48.845c-1.734-9.25-3.886-20.76-4.253-28.84-.372-8.19 1.642-17.67 2.592-26.96.332-3.25.549-6.49.4-9.61zm-142.054 0h84.47v65.41h-84.47zm257.327-278.74c-6.599-5.75-11.927-12.09-14.541-19.84-2.941-8.72-2.602-19.34 3.782-33.18 3.318-7.18 9.068-14.18 14.088-21.09h-234.395c-.756 0-1.37.61-1.37 1.37v226.57c24.754-.86 37.902 12.09 48.272 29.35 2.4 3.99 4.642 8.23 6.858 12.57.125.2.236.42.33.64 3.907 7.67 7.757 15.62 12.289 23.04 6.002 9.84 15.735 14.75 25.294 19.63 11.161 5.7 22.131 11.36 28.956 21.91 2.269 3.51 3.649 7.33 4.405 11.37.105.35.171.73.193 1.11.804 5.08.671 10.46.114 15.91-.899 8.79-2.902 17.75-2.55 25.5.373 8.23 2.714 20.17 4.434 29.29h288.294c.76 0 1.37-.61 1.37-1.37v-190.25c-11.92-.22-21.63-7.94-30.687-17.31-6.58-6.8-12.746-14.53-19.774-19.24-.489-.21-.937-.5-1.33-.85-1.83-1.1-3.722-2-5.697-2.61-9.989-3.08-20.244.39-30.348 2.84-12.326 3-24.408 4.71-35.728-2.54-13.973-8.95-17.691-22.53-18.835-37.3-.084-1.09-.154-2.19-.212-3.3h-.001l-.006-.07-.005-.06-.004-.06-.004-.07-.003-.06-.002-.06-.001-.07-.001-.06c-.58-11.6-.065-23.68-3.909-33.85-2.965-7.84-8.662-13.84-15.088-19.22-7.079-5.92-15.057-11.09-21.918-16.72-.717-.59-1.422-1.18-2.114-1.78l-.025-.02-.045-.04-.045-.04zm-232.436 203.33v65.41h114.901c-.376-.8-.806-1.58-1.297-2.34-5.856-9.04-15.535-13.54-25.111-18.43-11.176-5.71-22.262-11.83-29.28-23.33-4.191-6.87-7.803-14.18-11.414-21.31h-33.77zm19.029-35.92v25.92h23.541c-.936-1.7-1.89-3.37-2.87-5-5.399-8.98-11.653-16.66-20.671-20.92zm355.754-90.7v32.18c6.974 5.22 13.4 12.58 19.976 19.38 8.05 8.32 16.28 15.98 27.53 13.94.22-.05.45-.07.68-.09h.03.04.03.02.02.02.02.03.02l.05-.01h.01 21.85v-65.4zm-88.785 0c1.026 10.89 3.708 21.04 14.09 27.69 8.85 5.66 18.338 3.59 27.974 1.24 11.855-2.87 23.942-6.29 35.662-2.67.354.11.707.23 1.059.35v-26.61zm94.886-75.41h-130.518c4.268 3.13 8.619 6.28 12.677 9.67 7.758 6.5 14.443 13.88 18.023 23.35 3.696 9.78 3.841 21.17 4.313 32.39h95.505zm-70.326-75.41v65.41h75.326 45.085v-65.41zm-62.659 0c-5.415 8.27-13.14 16.62-17.142 25.28-4.974 10.78-5.678 19-3.386 25.8 1.885 5.59 5.686 10.14 10.311 14.33h62.876v-65.41z"/></g></g></svg>