<svg height="512" viewBox="0 0 64 64" width="512" xmlns="http://www.w3.org/2000/svg"><g id="_16-Water_heater" fill="#231f20" data-name="16-Water heater"><path d="m32 46h-26a3 3 0 0 1 -3-3v-40a3 3 0 0 1 3-3h26a3 3 0 0 1 3 3v40a3 3 0 0 1 -3 3zm-26-44a1 1 0 0 0 -1 1v40a1 1 0 0 0 1 1h26a1 1 0 0 0 1-1v-40a1 1 0 0 0 -1-1z"/><path d="m19 22a9 9 0 1 1 9-9 9.01 9.01 0 0 1 -9 9zm0-16a7 7 0 1 0 7 7 7.008 7.008 0 0 0 -7-7z"/><path d="m19 19a6 6 0 1 1 6-6 6.006 6.006 0 0 1 -6 6zm0-10a4 4 0 1 0 4 4 4 4 0 0 0 -4-4z"/><path d="m14 12h3v2h-3z"/><path d="m17 24h4v2h-4z"/><path d="m17 28h4v2h-4z"/><path d="m31 50h-8a1 1 0 0 1 -1-1v-4h2v3h6v-3h2v4a1 1 0 0 1 -1 1z"/><path d="m15 50h-8a1 1 0 0 1 -1-1v-4h2v3h6v-3h2v4a1 1 0 0 1 -1 1z"/><path d="m43 60h-10a5.006 5.006 0 0 1 -5-5v-6h2v6a3 3 0 0 0 3 3h10a3 3 0 0 0 3-3v-14h2v14a5.006 5.006 0 0 1 -5 5z"/><path d="m45 64h-14a7.008 7.008 0 0 1 -7-7v-8h2v8a5.006 5.006 0 0 0 5 5h14a5.006 5.006 0 0 0 5-5v-16h2v16a7.008 7.008 0 0 1 -7 7z"/><path d="m12 49h2v10h-2z"/><path d="m8 49h2v14h-2z"/><path d="m49 24a12 12 0 1 1 12-12 12.013 12.013 0 0 1 -12 12zm0-22a10 10 0 1 0 10 10 10.011 10.011 0 0 0 -10-10z"/><path d="m52 38h-6a1 1 0 0 1 -1-1v-8.586l-2.707-2.707a1 1 0 0 1 -.293-.707v-4h2v3.586l2.707 2.707a1 1 0 0 1 .293.707v8h4v-8a1 1 0 0 1 .293-.707l2.707-2.707v-3.586h2v4a1 1 0 0 1 -.293.707l-2.707 2.707v8.586a1 1 0 0 1 -1 1z"/><path d="m54 42h-10a1 1 0 0 1 -1-1v-4a1 1 0 0 1 1-1h2v2h-1v2h8v-2h-1v-2h2a1 1 0 0 1 1 1v4a1 1 0 0 1 -1 1z"/><path d="m48 3h2v2h-2z"/><path d="m48 7h2v2h-2z"/><path d="m48 11h2v2h-2z"/><path d="m48 15h2v2h-2z"/><path d="m48 19h2v2h-2z"/><path d="m56 11h2v2h-2z"/><path d="m52 11h2v2h-2z"/><path d="m44 11h2v2h-2z"/><path d="m43 6h2v2h-2z"/><path d="m53 6h2v2h-2z"/><path d="m53 16h2v2h-2z"/><path d="m43 16h2v2h-2z"/><path d="m40 11h2v2h-2z"/><path d="m12 61h2v2h-2z"/></g></svg>