<svg id="Layer_1" enable-background="new 0 0 66 66" height="512" viewBox="0 0 66 66" width="512" xmlns="http://www.w3.org/2000/svg"><g><path d="m64.17 32.43h-5.11v-2.23h5.11c.27 0 .5-.22.5-.5s-.22-.5-.5-.5h-5.11v-.89c0-.27-.22-.5-.5-.5h-1.81c-.14-.87-.89-1.54-1.8-1.54h-8.98c-.27 0-.5.22-.5.5s.22.5.5.5h8.98c.46 0 .83.37.83.83v.21 6 .21c0 .46-.37.83-.83.83h-43.91c-.46 0-.83-.37-.83-.83v-.21-6-.21c0-.46.37-.83.83-.83h8.97c.27 0 .5-.22.5-.5s-.22-.5-.5-.5h-8.97c-.91 0-1.66.67-1.8 1.54h-1.81c-.27 0-.5.22-.5.5v.89h-5.1c-.27 0-.5.22-.5.5s.22.5.5.5h5.11v2.23h-5.11c-.27 0-.5.22-.5.5s.22.5.5.5h5.11v.89c0 .27.22.5.5.5h1.81c.14.87.89 1.54 1.8 1.54h3.91v1.59h-1c-.64 0-1.16.52-1.16 1.16v1.4h-1.62c-.64 0-1.16.52-1.16 1.16v1.1c0 .64.52 1.16 1.16 1.16h.39l1.36 18.65c.07.93.85 1.65 1.78 1.65h4.41c.93 0 1.71-.73 1.78-1.65l1.36-18.65h.39c.64 0 1.16-.52 1.16-1.16v-1.1c0-.64-.52-1.16-1.16-1.16h-1.65v-1.4c0-.64-.52-1.16-1.16-1.16h-1v-1.59h12.21v1.59h-1c-.64 0-1.16.52-1.16 1.16v1.4h-1.62c-.64 0-1.16.52-1.16 1.16v1.1c0 .64.52 1.16 1.16 1.16h.39l1.36 18.65c.07.93.85 1.65 1.78 1.65h4.41c.93 0 1.71-.73 1.78-1.65l1.36-18.65h.39c.64 0 1.16-.52 1.16-1.16v-1.1c0-.64-.52-1.16-1.16-1.16h-1.62v-1.4c0-.64-.52-1.16-1.16-1.16h-1v-1.59h12.21v1.59h-1c-.64 0-1.16.52-1.16 1.16v1.4h-1.62c-.64 0-1.16.52-1.16 1.16v1.1c0 .64.52 1.16 1.16 1.16h.39l1.36 18.65c.07.93.85 1.65 1.78 1.65h4.41c.93 0 1.71-.73 1.78-1.65l1.36-18.65h.39c.64 0 1.16-.52 1.16-1.16v-1.1c0-.64-.52-1.16-1.16-1.16h-1.62v-1.4c0-.64-.52-1.16-1.16-1.16h-1v-1.59h3.91c.91 0 1.66-.67 1.8-1.54h1.81c.27 0 .5-.22.5-.5v-.89h5.11c.27 0 .5-.22.5-.5s-.26-.5-.54-.5zm-54.95 1.39h-1.29v-.89-3.23-.89h1.29zm6.73 2.53h1.9v1.59h-1.9zm3.93 26.16c-.03.41-.37.73-.78.73h-4.41c-.41 0-.75-.32-.78-.73l-.61-7.76h7.19zm.69-8.76h-7.34l-.67-9.82h8.69zm2.05-12.25c.09 0 .17.07.17.17v1.1c0 .09-.07.17-.17.17h-11.45c-.09 0-.17-.07-.17-.17v-1.1c0-.09.07-.17.17-.17zm-2.78-2.56c.09 0 .17.07.17.17v1.4h-6.22v-1.4c0-.09.07-.17.17-.17zm12.21-2.59h1.9v1.59h-1.9zm3.94 26.16c-.03.41-.37.73-.78.73h-4.41c-.41 0-.75-.32-.78-.73l-.61-7.76h7.19zm.68-8.76h-7.34l-.67-9.82h8.69zm2.06-12.25c.09 0 .17.07.17.17v1.1c0 .09-.07.17-.17.17h-11.46c-.09 0-.17-.07-.17-.17v-1.1c0-.09.07-.17.17-.17zm-2.78-2.56c.09 0 .17.07.17.17v1.4h-6.22v-1.4c0-.09.07-.17.17-.17zm12.2-2.59h1.9v1.59h-1.9zm3.94 26.16c-.03.41-.37.73-.78.73h-4.41c-.41 0-.75-.32-.78-.73l-.61-7.76h7.19zm.69-8.76h-7.34l-.67-9.82h8.69zm2.05-12.25c.09 0 .17.07.17.17v1.1c0 .09-.07.17-.17.17h-11.45c-.09 0-.17-.07-.17-.17v-1.1c0-.09.07-.17.17-.17zm-2.78-2.56c.09 0 .17.07.17.17v1.4h-6.23v-1.4c0-.09.07-.17.17-.17zm6.02-9.24v3.22.89h-1.29v-5.01h1.29z"/><path d="m21.11 17.16c.26.07.54-.09.6-.36 1.38-5.42 6.44-9.08 12.02-8.74 5.48.35 9.96 4.49 10.77 9.89l-1.16-1.32c-.18-.21-.5-.23-.7-.04-.21.18-.23.5-.04.7l1.92 2.18c.1.11.24.17.37.17.12 0 .23-.04.33-.12l2.18-1.92c.21-.18.23-.5.05-.7-.18-.21-.5-.23-.7-.05l-1.24 1.09c-.83-5.93-5.72-10.49-11.71-10.87-6.05-.39-11.55 3.6-13.05 9.48-.07.27.09.55.36.61z"/><path d="m19.26 22.54 1.23-1.08c.83 5.92 5.72 10.46 11.7 10.84.27.02.54.03.81.03 5.74 0 10.81-3.89 12.24-9.51.07-.27-.09-.54-.36-.6-.26-.07-.54.09-.6.36-1.38 5.42-6.44 9.08-12.02 8.74-5.48-.35-9.96-4.49-10.77-9.89l1.17 1.33c.1.11.24.17.37.17.12 0 .23-.04.33-.12.21-.18.23-.5.04-.7l-1.92-2.18c-.18-.21-.5-.23-.7-.05l-2.18 1.92c-.21.18-.23.5-.05.7.19.2.5.22.71.04z"/><path d="m41.95 2.76c.46 0 .72.4 1.11 1.05.41.68.91 1.54 1.96 1.54s1.56-.85 1.96-1.53c.39-.65.65-1.05 1.11-1.05s.72.4 1.11 1.05c.41.68.91 1.53 1.96 1.53s1.56-.85 1.96-1.53c.39-.65.65-1.05 1.11-1.05s.72.4 1.11 1.05c.41.68.91 1.53 1.97 1.53 1.05 0 1.56-.85 1.97-1.53.39-.65.65-1.05 1.11-1.05s.72.4 1.11 1.05c.41.68.91 1.53 1.97 1.53.27 0 .5-.22.5-.5s-.22-.5-.5-.5c-.46 0-.72-.4-1.11-1.05-.41-.68-.91-1.53-1.97-1.53-1.05 0-1.56.85-1.97 1.53-.39.65-.65 1.05-1.11 1.05s-.72-.4-1.11-1.05c-.41-.68-.91-1.53-1.97-1.53-1.05 0-1.56.85-1.96 1.54-.39.65-.65 1.05-1.11 1.05s-.72-.4-1.11-1.05c-.41-.68-.91-1.54-1.96-1.54s-1.56.85-1.96 1.53c-.39.65-.65 1.05-1.11 1.05s-.72-.4-1.11-1.05c-.4-.68-.91-1.53-1.96-1.53-.27 0-.5.22-.5.5 0 .27.23.49.5.49z"/><path d="m41.95 6.7c.46 0 .72.4 1.11 1.05.41.68.91 1.54 1.96 1.54s1.56-.85 1.96-1.54c.4-.65.66-1.05 1.12-1.05s.72.4 1.11 1.05c.41.68.91 1.54 1.96 1.54s1.56-.85 1.96-1.54c.39-.65.65-1.05 1.11-1.05s.72.4 1.11 1.05c.41.68.91 1.53 1.97 1.53 1.05 0 1.56-.85 1.97-1.54.39-.64.65-1.04 1.11-1.04s.72.4 1.11 1.05c.41.68.91 1.54 1.97 1.54.27 0 .5-.22.5-.5 0-.27-.22-.5-.5-.5-.46 0-.72-.4-1.11-1.05-.41-.68-.91-1.53-1.97-1.53-1.05 0-1.56.85-1.97 1.53-.39.65-.65 1.05-1.11 1.05s-.72-.4-1.11-1.05c-.41-.68-.91-1.54-1.97-1.54-1.05 0-1.56.85-1.96 1.54-.39.65-.65 1.05-1.11 1.05s-.72-.4-1.11-1.05c-.41-.68-.91-1.54-1.96-1.54s-1.56.85-1.96 1.54c-.39.65-.65 1.05-1.11 1.05s-.72-.4-1.11-1.05c-.41-.68-.92-1.53-1.97-1.53-.27 0-.5.22-.5.5 0 .27.23.49.5.49z"/><path d="m32.58 11.6c-.21.33-5.1 8.01-5.1 10.9 0 3.04 2.47 5.52 5.52 5.52s5.52-2.47 5.52-5.52c0-2.88-4.89-10.57-5.1-10.9-.18-.29-.66-.29-.84 0zm.42 15.41c-2.49 0-4.52-2.03-4.52-4.52 0-1.96 2.95-7.15 4.52-9.69 1.57 2.54 4.52 7.73 4.52 9.69 0 2.5-2.03 4.52-4.52 4.52z"/><path d="m32.5 25.33c0 .27.22.5.5.5 1.84 0 3.33-1.5 3.33-3.33 0-.27-.22-.5-.5-.5s-.5.22-.5.5c0 1.29-1.05 2.34-2.34 2.34-.26-.01-.49.22-.49.49z"/></g></svg>