<svg id="Capa_1" enable-background="new 0 0 496.014 496.014" height="512" viewBox="0 0 496.014 496.014" width="512" xmlns="http://www.w3.org/2000/svg"><g><path d="m312 240.007c44.183 0 80-35.817 80-80s-35.817-80-80-80-80 35.817-80 80c.048 44.163 35.837 79.952 80 80zm0-144c35.346 0 64 28.654 64 64s-28.654 64-64 64-64-28.654-64-64c.04-35.33 28.67-63.96 64-64z"/><path d="m488 400.007c4.418 0 8-3.582 8-8v-32c0-4.418-3.582-8-8-8h-8v-17.736c12.847-4.913 19.278-19.311 14.364-32.157-1.253-3.277-3.185-6.252-5.668-8.731l-84.8-84.8c26.896-50.751 7.557-113.697-43.194-140.593s-113.697-7.557-140.593 43.194c-13.185 24.879-15.718 54.042-7.021 80.822h-13.088c0-4.418-3.582-8-8-8h-40c-4.418 0-8 3.582-8 8v14.864c-14.085-3.637-23.945-16.317-24-30.864v-32h8c4.418 0 8-3.582 8-8v-32c0-4.418-3.582-8-8-8h-8v-32h8c4.418 0 8-3.582 8-8v-48c0-4.418-3.582-8-8-8h-96c-4.418 0-8 3.582-8 8v48c0 4.418 3.582 8 8 8h8v32h-8c-4.418 0-8 3.582-8 8v32c0 4.418 3.582 8 8 8h8v48c.057 52.996 43.004 95.943 96 96h8v16c0 4.418 3.582 8 8 8h40c4.418 0 8-3.582 8-8h8v64c0 17.673-14.327 32-32 32h-32v-8c0-4.418-3.582-8-8-8h-32c-4.418 0-8 3.582-8 8v8h-32v-8c0-4.418-3.582-8-8-8h-48c-4.418 0-8 3.582-8 8v96c0 4.418 3.582 8 8 8h48c4.418 0 8-3.582 8-8v-8h32v8c0 4.418 3.582 8 8 8h32c4.418 0 8-3.582 8-8v-8h48c52.996-.057 95.943-43.004 96-96v-80h8c0 4.418 3.582 8 8 8h40c4.418 0 8-3.582 8-8v-16h16c17.673 0 32 14.327 32 32v32h-8c-4.418 0-8 3.582-8 8v32c0 4.418 3.582 8 8 8h8v32h-8c-4.418 0-8 3.582-8 8v48c0 4.418 3.582 8 8 8h96c4.418 0 8-3.582 8-8v-48c0-4.418-3.582-8-8-8h-8v-32h8zm-368-384v32h-80v-32zm-64 48h48v32h-48zm64 48v16h-80v-16zm16 160c-44.163-.048-79.951-35.837-80-80v-48h48v32c.043 23.397 16.934 43.361 40 47.28v48.72zm48 24h-24v-96h24zm-136 184h-32v-80h32zm16-16v-48h32v48zm64 16h-16v-80h16zm349.376-175.312c3.504 3.501 3.506 9.179.005 12.683-1.683 1.685-3.968 2.631-6.349 2.629-2.381.009-4.666-.936-6.344-2.624l-81.6-81.6c4.376-4.109 8.391-8.587 12-13.384zm-165.376-232.688c48.601 0 88 39.399 88 88s-39.399 88-88 88-88-39.399-88-88c.057-48.577 39.423-87.943 88-88zm-40 312c-.048 44.163-35.837 79.952-80 80h-48v-48h32c26.499-.026 47.974-21.501 48-48v-64h48zm-72-96v-80h19.832c15.296 29.254 43.555 49.526 76.168 54.64v25.36zm112 8v-32c8.086-.029 16.141-1.004 24-2.904v34.904zm56-24h-16v-16c6.514-2.728 12.733-6.113 18.56-10.104l82.816 82.792c2.963 2.926 6.617 5.056 10.624 6.192v17.12h-48v-32c-.026-26.498-21.501-47.973-48-48zm112 96v16h-80v-16zm-80 112v-32h80v32zm64-48h-48v-32h48z"/></g></svg>